<?xml version="1.0" encoding="utf-8" standalone="no"?>
<!DOCTYPE svg PUBLIC "-//W3C//DTD SVG 1.1//EN"
  "http://www.w3.org/Graphics/SVG/1.1/DTD/svg11.dtd">
<svg xmlns:xlink="http://www.w3.org/1999/xlink" width="408.96pt" height="192.24pt" viewBox="0 0 408.96 192.24" xmlns="http://www.w3.org/2000/svg" version="1.1">
 <metadata>
  <rdf:RDF xmlns:dc="http://purl.org/dc/elements/1.1/" xmlns:cc="http://creativecommons.org/ns#" xmlns:rdf="http://www.w3.org/1999/02/22-rdf-syntax-ns#">
   <cc:Work>
    <dc:type rdf:resource="http://purl.org/dc/dcmitype/StillImage"/>
    <dc:date>2024-07-30T01:50:40.989064</dc:date>
    <dc:format>image/svg+xml</dc:format>
    <dc:creator>
     <cc:Agent>
      <dc:title>Matplotlib v3.6.2, https://matplotlib.org/</dc:title>
     </cc:Agent>
    </dc:creator>
   </cc:Work>
  </rdf:RDF>
 </metadata>
 <defs>
  <style type="text/css">*{stroke-linejoin: round; stroke-linecap: butt}</style>
 </defs>
 <g id="figure_1">
  <g id="patch_1">
   <path d="M 0 192.24 
L 408.96 192.24 
L 408.96 0 
L 0 0 
z
" style="fill: #ffffff"/>
  </g>
  <g id="axes_1">
   <g id="patch_2">
    <path d="M 51.12 171.0936 
L 195.185455 171.0936 
L 195.185455 23.0688 
L 51.12 23.0688 
z
" style="fill: #ffffff"/>
   </g>
   <g id="matplotlib.axis_1">
    <g id="xtick_1">
     <g id="line2d_1">
      <defs>
       <path id="m8c31a62fb8" d="M 0 0 
L 0 3.5 
" style="stroke: #000000; stroke-width: 0.8"/>
      </defs>
      <g>
       <use xlink:href="#m8c31a62fb8" x="56.37499" y="171.0936" style="stroke: #000000; stroke-width: 0.8"/>
      </g>
     </g>
    </g>
    <g id="xtick_2">
     <g id="line2d_2">
      <g>
       <use xlink:href="#m8c31a62fb8" x="123.15157" y="171.0936" style="stroke: #000000; stroke-width: 0.8"/>
      </g>
     </g>
    </g>
    <g id="xtick_3">
     <g id="line2d_3">
      <g>
       <use xlink:href="#m8c31a62fb8" x="189.92815" y="171.0936" style="stroke: #000000; stroke-width: 0.8"/>
      </g>
     </g>
    </g>
    <g id="text_1">
     <!-- $e_x$ -->
     <g transform="translate(116.642727 185.956725) scale(0.14 -0.14)">
      <defs>
       <path id="Cmmi10-65" d="M 1288 -72 
Q 981 -72 751 87 
Q 522 247 401 517 
Q 281 788 281 1088 
Q 281 1544 511 1945 
Q 741 2347 1134 2587 
Q 1528 2828 1978 2828 
Q 2253 2828 2458 2686 
Q 2663 2544 2663 2278 
Q 2663 1909 2369 1729 
Q 2075 1550 1706 1508 
Q 1338 1466 891 1466 
L 872 1466 
Q 769 1084 769 813 
Q 769 528 900 312 
Q 1031 97 1300 97 
Q 1681 97 2032 272 
Q 2384 447 2606 756 
Q 2625 775 2656 775 
Q 2688 775 2720 739 
Q 2753 703 2753 672 
Q 2753 647 2741 634 
Q 2506 306 2109 117 
Q 1713 -72 1288 -72 
z
M 909 1631 
Q 1281 1631 1597 1665 
Q 1913 1700 2169 1839 
Q 2425 1978 2425 2272 
Q 2425 2391 2359 2480 
Q 2294 2569 2189 2616 
Q 2084 2663 1972 2663 
Q 1700 2663 1483 2516 
Q 1266 2369 1125 2133 
Q 984 1897 909 1631 
z
" transform="scale(0.015625)"/>
       <path id="Cmmi10-78" d="M 500 184 
Q 613 97 819 97 
Q 1019 97 1172 289 
Q 1325 481 1381 709 
L 1672 1844 
Q 1741 2153 1741 2266 
Q 1741 2425 1652 2544 
Q 1563 2663 1403 2663 
Q 1200 2663 1022 2536 
Q 844 2409 722 2214 
Q 600 2019 550 1819 
Q 538 1778 500 1778 
L 422 1778 
Q 372 1778 372 1838 
L 372 1856 
Q 434 2094 584 2320 
Q 734 2547 951 2687 
Q 1169 2828 1416 2828 
Q 1650 2828 1839 2703 
Q 2028 2578 2106 2363 
Q 2216 2559 2386 2693 
Q 2556 2828 2759 2828 
Q 2897 2828 3040 2779 
Q 3184 2731 3275 2631 
Q 3366 2531 3366 2381 
Q 3366 2219 3261 2101 
Q 3156 1984 2994 1984 
Q 2891 1984 2822 2050 
Q 2753 2116 2753 2216 
Q 2753 2350 2845 2451 
Q 2938 2553 3066 2572 
Q 2950 2663 2747 2663 
Q 2541 2663 2389 2472 
Q 2238 2281 2175 2047 
L 1894 916 
Q 1825 659 1825 494 
Q 1825 331 1917 214 
Q 2009 97 2163 97 
Q 2463 97 2698 361 
Q 2934 625 3009 941 
Q 3022 978 3059 978 
L 3138 978 
Q 3163 978 3178 961 
Q 3194 944 3194 922 
Q 3194 916 3188 903 
Q 3097 522 2806 225 
Q 2516 -72 2150 -72 
Q 1916 -72 1727 54 
Q 1538 181 1459 397 
Q 1359 209 1182 68 
Q 1006 -72 806 -72 
Q 669 -72 523 -23 
Q 378 25 287 125 
Q 197 225 197 378 
Q 197 528 301 651 
Q 406 775 563 775 
Q 669 775 741 711 
Q 813 647 813 544 
Q 813 409 723 309 
Q 634 209 500 184 
z
" transform="scale(0.015625)"/>
      </defs>
      <use xlink:href="#Cmmi10-65" transform="translate(0 0.8125)"/>
      <use xlink:href="#Cmmi10-78" transform="translate(46.484375 -16.19375) scale(0.7)"/>
     </g>
    </g>
   </g>
   <g id="matplotlib.axis_2">
    <g id="ytick_1">
     <g id="line2d_4">
      <defs>
       <path id="ma4f9f184de" d="M 0 0 
L -3.5 0 
" style="stroke: #000000; stroke-width: 0.8"/>
      </defs>
      <g>
       <use xlink:href="#ma4f9f184de" x="51.12" y="149.659652" style="stroke: #000000; stroke-width: 0.8"/>
      </g>
     </g>
    </g>
    <g id="ytick_2">
     <g id="line2d_5">
      <g>
       <use xlink:href="#ma4f9f184de" x="51.12" y="123.371245" style="stroke: #000000; stroke-width: 0.8"/>
      </g>
     </g>
    </g>
    <g id="ytick_3">
     <g id="line2d_6">
      <g>
       <use xlink:href="#ma4f9f184de" x="51.12" y="97.082837" style="stroke: #000000; stroke-width: 0.8"/>
      </g>
     </g>
    </g>
    <g id="ytick_4">
     <g id="line2d_7">
      <g>
       <use xlink:href="#ma4f9f184de" x="51.12" y="70.794429" style="stroke: #000000; stroke-width: 0.8"/>
      </g>
     </g>
    </g>
    <g id="ytick_5">
     <g id="line2d_8">
      <g>
       <use xlink:href="#ma4f9f184de" x="51.12" y="44.506021" style="stroke: #000000; stroke-width: 0.8"/>
      </g>
     </g>
    </g>
    <g id="text_2">
     <!-- $f_{int}$ -->
     <g transform="translate(43.954687 107.3712) rotate(-90) scale(0.14 -0.14)">
      <defs>
       <path id="Cmmi10-66" d="M 622 -1056 
Q 741 -1147 909 -1147 
Q 1138 -1147 1281 -641 
Q 1341 -397 1606 966 
L 1900 2534 
L 1350 2534 
Q 1288 2534 1288 2619 
Q 1313 2759 1369 2759 
L 1941 2759 
L 2016 3175 
Q 2053 3369 2084 3508 
Q 2116 3647 2152 3765 
Q 2188 3884 2259 4031 
Q 2369 4241 2555 4377 
Q 2741 4513 2956 4513 
Q 3097 4513 3230 4461 
Q 3363 4409 3447 4306 
Q 3531 4203 3531 4063 
Q 3531 3900 3423 3779 
Q 3316 3659 3163 3659 
Q 3059 3659 2986 3723 
Q 2913 3788 2913 3891 
Q 2913 4031 3008 4136 
Q 3103 4241 3244 4256 
Q 3125 4347 2950 4347 
Q 2853 4347 2767 4256 
Q 2681 4166 2656 4063 
Q 2616 3900 2478 3181 
L 2400 2759 
L 3059 2759 
Q 3122 2759 3122 2675 
Q 3119 2659 3109 2620 
Q 3100 2581 3083 2557 
Q 3066 2534 3041 2534 
L 2356 2534 
L 2059 972 
Q 2003 631 1929 279 
Q 1856 -72 1723 -442 
Q 1591 -813 1384 -1063 
Q 1178 -1313 897 -1313 
Q 681 -1313 511 -1189 
Q 341 -1066 341 -863 
Q 341 -700 445 -579 
Q 550 -459 709 -459 
Q 816 -459 887 -523 
Q 959 -588 959 -691 
Q 959 -828 857 -942 
Q 756 -1056 622 -1056 
z
" transform="scale(0.015625)"/>
       <path id="Cmmi10-69" d="M 500 459 
Q 500 578 550 709 
L 1069 2088 
Q 1153 2322 1153 2472 
Q 1153 2663 1013 2663 
Q 759 2663 595 2402 
Q 431 2141 353 1819 
Q 341 1778 300 1778 
L 225 1778 
Q 172 1778 172 1838 
L 172 1856 
Q 275 2238 487 2533 
Q 700 2828 1025 2828 
Q 1253 2828 1411 2678 
Q 1569 2528 1569 2297 
Q 1569 2178 1516 2047 
L 997 672 
Q 909 459 909 288 
Q 909 97 1056 97 
Q 1306 97 1473 364 
Q 1641 631 1709 941 
Q 1722 978 1759 978 
L 1838 978 
Q 1863 978 1878 961 
Q 1894 944 1894 922 
Q 1894 916 1888 903 
Q 1800 541 1583 234 
Q 1366 -72 1044 -72 
Q 819 -72 659 83 
Q 500 238 500 459 
z
M 1222 3878 
Q 1222 4013 1334 4122 
Q 1447 4231 1581 4231 
Q 1691 4231 1761 4164 
Q 1831 4097 1831 3994 
Q 1831 3850 1717 3742 
Q 1603 3634 1466 3634 
Q 1363 3634 1292 3704 
Q 1222 3775 1222 3878 
z
" transform="scale(0.015625)"/>
       <path id="Cmmi10-6e" d="M 494 109 
Q 494 147 500 166 
L 978 2075 
Q 1025 2253 1025 2388 
Q 1025 2663 838 2663 
Q 638 2663 541 2423 
Q 444 2184 353 1819 
Q 353 1800 334 1789 
Q 316 1778 300 1778 
L 225 1778 
Q 203 1778 187 1801 
Q 172 1825 172 1844 
Q 241 2122 305 2315 
Q 369 2509 505 2668 
Q 641 2828 844 2828 
Q 1084 2828 1268 2676 
Q 1453 2525 1453 2291 
Q 1644 2541 1900 2684 
Q 2156 2828 2444 2828 
Q 2672 2828 2837 2750 
Q 3003 2672 3095 2514 
Q 3188 2356 3188 2138 
Q 3188 1875 3070 1503 
Q 2953 1131 2778 672 
Q 2688 463 2688 288 
Q 2688 97 2834 97 
Q 3084 97 3251 365 
Q 3419 634 3488 941 
Q 3500 978 3541 978 
L 3616 978 
Q 3641 978 3658 962 
Q 3675 947 3675 922 
Q 3675 916 3669 903 
Q 3581 541 3364 234 
Q 3147 -72 2822 -72 
Q 2597 -72 2437 83 
Q 2278 238 2278 459 
Q 2278 578 2328 709 
Q 2409 919 2514 1209 
Q 2619 1500 2686 1765 
Q 2753 2031 2753 2234 
Q 2753 2413 2679 2538 
Q 2606 2663 2431 2663 
Q 2197 2663 2000 2559 
Q 1803 2456 1656 2286 
Q 1509 2116 1388 1881 
L 953 141 
Q 931 53 854 -9 
Q 778 -72 684 -72 
Q 606 -72 550 -22 
Q 494 28 494 109 
z
" transform="scale(0.015625)"/>
       <path id="Cmmi10-74" d="M 397 519 
Q 397 613 416 697 
L 878 2534 
L 206 2534 
Q 141 2534 141 2619 
Q 166 2759 225 2759 
L 934 2759 
L 1191 3803 
Q 1216 3888 1291 3947 
Q 1366 4006 1459 4006 
Q 1541 4006 1595 3957 
Q 1650 3909 1650 3828 
Q 1650 3809 1648 3798 
Q 1647 3788 1644 3775 
L 1388 2759 
L 2047 2759 
Q 2113 2759 2113 2675 
Q 2109 2659 2100 2621 
Q 2091 2584 2075 2559 
Q 2059 2534 2028 2534 
L 1331 2534 
L 872 684 
Q 825 503 825 372 
Q 825 97 1013 97 
Q 1294 97 1511 361 
Q 1728 625 1844 941 
Q 1869 978 1894 978 
L 1972 978 
Q 1997 978 2012 961 
Q 2028 944 2028 922 
Q 2028 909 2022 903 
Q 1881 516 1612 222 
Q 1344 -72 997 -72 
Q 744 -72 570 93 
Q 397 259 397 519 
z
" transform="scale(0.015625)"/>
      </defs>
      <use xlink:href="#Cmmi10-66" transform="translate(0 0.484375)"/>
      <use xlink:href="#Cmmi10-69" transform="translate(48.876953 -16.521875) scale(0.7)"/>
      <use xlink:href="#Cmmi10-6e" transform="translate(72.973633 -16.521875) scale(0.7)"/>
      <use xlink:href="#Cmmi10-74" transform="translate(114.980469 -16.521875) scale(0.7)"/>
     </g>
    </g>
   </g>
   <g id="line2d_9">
    <path d="M 188.637025 32.632533 
L 57.66843 161.530863 
L 188.631332 32.638136 
" clip-path="url(#pba712b4d77)" style="fill: none; stroke: #1f77b4; stroke-width: 1.5; stroke-linecap: square"/>
   </g>
   <g id="line2d_10">
    <path d="M 188.637025 32.632533 
L 188.519186 31.589099 
L 188.166095 30.781372 
L 187.579022 30.212259 
L 186.760079 29.883808 
L 185.712214 29.7972 
L 184.439199 29.952748 
L 182.945615 30.349892 
L 181.236836 30.987202 
L 178.283838 32.388229 
L 174.884571 34.312928 
L 171.066548 36.74572 
L 166.860677 39.666913 
L 162.301 43.052861 
L 155.735236 48.242525 
L 148.700831 54.134646 
L 141.298957 60.644479 
L 133.636074 67.678395 
L 125.822395 75.135227 
L 117.970303 82.907726 
L 110.192731 90.884102 
L 102.601543 98.949632 
L 95.30592 106.988312 
L 88.410794 114.884525 
L 82.015335 122.524701 
L 76.211527 129.798954 
L 71.082845 136.602659 
L 66.703053 142.837962 
L 63.947995 147.087132 
L 61.672162 150.93154 
L 59.893976 154.340068 
L 58.62783 157.285125 
L 57.883975 159.742873 
L 57.681381 161.100653 
L 57.714409 162.228037 
L 57.98294 163.120969 
L 58.486008 163.776235 
L 59.221803 164.191477 
L 60.187675 164.3652 
L 61.380149 164.296779 
L 62.794934 163.986461 
L 64.426937 163.435362 
L 67.269171 162.161823 
L 70.563746 160.3615 
L 74.283996 158.048966 
L 78.399805 155.24294 
L 82.87786 151.966134 
L 89.349054 146.911104 
L 96.306421 141.139408 
L 103.649894 134.734058 
L 111.273855 127.78718 
L 119.068649 120.398691 
L 126.922167 112.674856 
L 134.721454 104.726765 
L 142.354334 96.668733 
L 149.711026 88.616658 
L 156.68572 80.686349 
L 163.178102 72.991866 
L 169.094794 65.643878 
L 174.350696 58.748067 
L 178.870215 52.403615 
L 181.737074 48.062334 
L 184.129711 44.117851 
L 186.028758 40.602094 
L 187.418843 37.543524 
L 188.288715 34.966896 
L 188.57597 33.527355 
L 188.631332 32.893067 
L 188.631332 32.893067 
" clip-path="url(#pba712b4d77)" style="fill: none; stroke: #ff7f0e; stroke-width: 1.5; stroke-linecap: square"/>
   </g>
   <g id="patch_3">
    <path d="M 51.12 171.0936 
L 51.12 23.0688 
" style="fill: none; stroke: #000000; stroke-width: 0.8; stroke-linejoin: miter; stroke-linecap: square"/>
   </g>
   <g id="patch_4">
    <path d="M 195.185455 171.0936 
L 195.185455 23.0688 
" style="fill: none; stroke: #000000; stroke-width: 0.8; stroke-linejoin: miter; stroke-linecap: square"/>
   </g>
   <g id="patch_5">
    <path d="M 51.12 171.0936 
L 195.185455 171.0936 
" style="fill: none; stroke: #000000; stroke-width: 0.8; stroke-linejoin: miter; stroke-linecap: square"/>
   </g>
   <g id="patch_6">
    <path d="M 51.12 23.0688 
L 195.185455 23.0688 
" style="fill: none; stroke: #000000; stroke-width: 0.8; stroke-linejoin: miter; stroke-linecap: square"/>
   </g>
   <g id="legend_1">
    <g id="patch_7">
     <path d="M 104.5507 18.27571 
L 314.6333 18.27571 
Q 316.2993 18.27571 316.2993 16.60971 
L 316.2993 5.215832 
Q 316.2993 3.549832 314.6333 3.549832 
L 104.5507 3.549832 
Q 102.8847 3.549832 102.8847 5.215832 
L 102.8847 16.60971 
Q 102.8847 18.27571 104.5507 18.27571 
z
" style="fill: #ffffff; opacity: 0.8; stroke: #cccccc; stroke-linejoin: miter"/>
    </g>
    <g id="line2d_11">
     <path d="M 106.2167 10.29583 
L 114.5467 10.29583 
L 122.8767 10.29583 
" style="fill: none; stroke: #1f77b4; stroke-width: 1.5; stroke-linecap: square"/>
    </g>
    <g id="text_3">
     <!-- $k_d$ = 100, $d_d$ = 0 -->
     <g transform="translate(129.5407 13.21133) scale(0.0833 -0.0833)">
      <defs>
       <path id="DejaVuSans-Oblique-6b" d="M 1172 4863 
L 1747 4863 
L 1197 2028 
L 3169 3500 
L 3916 3500 
L 1716 1825 
L 3322 0 
L 2625 0 
L 1131 1709 
L 800 0 
L 225 0 
L 1172 4863 
z
" transform="scale(0.015625)"/>
       <path id="DejaVuSans-Oblique-64" d="M 2675 525 
Q 2444 222 2128 65 
Q 1813 -91 1428 -91 
Q 903 -91 598 267 
Q 294 625 294 1247 
Q 294 1766 478 2236 
Q 663 2706 1013 3078 
Q 1244 3325 1534 3454 
Q 1825 3584 2144 3584 
Q 2481 3584 2739 3421 
Q 2997 3259 3138 2956 
L 3513 4863 
L 4091 4863 
L 3144 0 
L 2566 0 
L 2675 525 
z
M 891 1350 
Q 891 897 1095 644 
Q 1300 391 1663 391 
Q 1931 391 2161 520 
Q 2391 650 2566 903 
Q 2750 1166 2856 1509 
Q 2963 1853 2963 2188 
Q 2963 2622 2758 2865 
Q 2553 3109 2194 3109 
Q 1922 3109 1687 2981 
Q 1453 2853 1288 2613 
Q 1106 2353 998 2009 
Q 891 1666 891 1350 
z
" transform="scale(0.015625)"/>
       <path id="DejaVuSans-20" transform="scale(0.015625)"/>
       <path id="DejaVuSans-3d" d="M 678 2906 
L 4684 2906 
L 4684 2381 
L 678 2381 
L 678 2906 
z
M 678 1631 
L 4684 1631 
L 4684 1100 
L 678 1100 
L 678 1631 
z
" transform="scale(0.015625)"/>
       <path id="DejaVuSans-31" d="M 794 531 
L 1825 531 
L 1825 4091 
L 703 3866 
L 703 4441 
L 1819 4666 
L 2450 4666 
L 2450 531 
L 3481 531 
L 3481 0 
L 794 0 
L 794 531 
z
" transform="scale(0.015625)"/>
       <path id="DejaVuSans-30" d="M 2034 4250 
Q 1547 4250 1301 3770 
Q 1056 3291 1056 2328 
Q 1056 1369 1301 889 
Q 1547 409 2034 409 
Q 2525 409 2770 889 
Q 3016 1369 3016 2328 
Q 3016 3291 2770 3770 
Q 2525 4250 2034 4250 
z
M 2034 4750 
Q 2819 4750 3233 4129 
Q 3647 3509 3647 2328 
Q 3647 1150 3233 529 
Q 2819 -91 2034 -91 
Q 1250 -91 836 529 
Q 422 1150 422 2328 
Q 422 3509 836 4129 
Q 1250 4750 2034 4750 
z
" transform="scale(0.015625)"/>
       <path id="DejaVuSans-2c" d="M 750 794 
L 1409 794 
L 1409 256 
L 897 -744 
L 494 -744 
L 750 256 
L 750 794 
z
" transform="scale(0.015625)"/>
      </defs>
      <use xlink:href="#DejaVuSans-Oblique-6b" transform="translate(0 0.015625)"/>
      <use xlink:href="#DejaVuSans-Oblique-64" transform="translate(57.910156 -16.390625) scale(0.7)"/>
      <use xlink:href="#DejaVuSans-20" transform="translate(105.078125 0.015625)"/>
      <use xlink:href="#DejaVuSans-3d" transform="translate(136.865234 0.015625)"/>
      <use xlink:href="#DejaVuSans-20" transform="translate(220.654297 0.015625)"/>
      <use xlink:href="#DejaVuSans-31" transform="translate(252.441406 0.015625)"/>
      <use xlink:href="#DejaVuSans-30" transform="translate(316.064453 0.015625)"/>
      <use xlink:href="#DejaVuSans-30" transform="translate(379.6875 0.015625)"/>
      <use xlink:href="#DejaVuSans-2c" transform="translate(443.310547 0.015625)"/>
      <use xlink:href="#DejaVuSans-20" transform="translate(475.097656 0.015625)"/>
      <use xlink:href="#DejaVuSans-Oblique-64" transform="translate(506.884766 0.015625)"/>
      <use xlink:href="#DejaVuSans-Oblique-64" transform="translate(570.361328 -16.390625) scale(0.7)"/>
      <use xlink:href="#DejaVuSans-20" transform="translate(617.529297 0.015625)"/>
      <use xlink:href="#DejaVuSans-3d" transform="translate(649.316406 0.015625)"/>
      <use xlink:href="#DejaVuSans-20" transform="translate(733.105469 0.015625)"/>
      <use xlink:href="#DejaVuSans-30" transform="translate(764.892578 0.015625)"/>
     </g>
    </g>
    <g id="line2d_12">
     <path d="M 215.2564 10.29583 
L 223.5864 10.29583 
L 231.9164 10.29583 
" style="fill: none; stroke: #ff7f0e; stroke-width: 1.5; stroke-linecap: square"/>
    </g>
    <g id="text_4">
     <!-- $k_d$ = 100, $d_d$ = 10 -->
     <g transform="translate(238.5804 13.21133) scale(0.0833 -0.0833)">
      <use xlink:href="#DejaVuSans-Oblique-6b" transform="translate(0 0.015625)"/>
      <use xlink:href="#DejaVuSans-Oblique-64" transform="translate(57.910156 -16.390625) scale(0.7)"/>
      <use xlink:href="#DejaVuSans-20" transform="translate(105.078125 0.015625)"/>
      <use xlink:href="#DejaVuSans-3d" transform="translate(136.865234 0.015625)"/>
      <use xlink:href="#DejaVuSans-20" transform="translate(220.654297 0.015625)"/>
      <use xlink:href="#DejaVuSans-31" transform="translate(252.441406 0.015625)"/>
      <use xlink:href="#DejaVuSans-30" transform="translate(316.064453 0.015625)"/>
      <use xlink:href="#DejaVuSans-30" transform="translate(379.6875 0.015625)"/>
      <use xlink:href="#DejaVuSans-2c" transform="translate(443.310547 0.015625)"/>
      <use xlink:href="#DejaVuSans-20" transform="translate(475.097656 0.015625)"/>
      <use xlink:href="#DejaVuSans-Oblique-64" transform="translate(506.884766 0.015625)"/>
      <use xlink:href="#DejaVuSans-Oblique-64" transform="translate(570.361328 -16.390625) scale(0.7)"/>
      <use xlink:href="#DejaVuSans-20" transform="translate(617.529297 0.015625)"/>
      <use xlink:href="#DejaVuSans-3d" transform="translate(649.316406 0.015625)"/>
      <use xlink:href="#DejaVuSans-20" transform="translate(733.105469 0.015625)"/>
      <use xlink:href="#DejaVuSans-31" transform="translate(764.892578 0.015625)"/>
      <use xlink:href="#DejaVuSans-30" transform="translate(828.515625 0.015625)"/>
     </g>
    </g>
   </g>
  </g>
  <g id="axes_2">
   <g id="patch_8">
    <path d="M 223.998545 171.0936 
L 368.064 171.0936 
L 368.064 23.0688 
L 223.998545 23.0688 
z
" style="fill: #ffffff"/>
   </g>
   <g id="matplotlib.axis_3">
    <g id="xtick_4">
     <g id="line2d_13">
      <g>
       <use xlink:href="#m8c31a62fb8" x="251.514794" y="171.0936" style="stroke: #000000; stroke-width: 0.8"/>
      </g>
     </g>
    </g>
    <g id="xtick_5">
     <g id="line2d_14">
      <g>
       <use xlink:href="#m8c31a62fb8" x="296.033088" y="171.0936" style="stroke: #000000; stroke-width: 0.8"/>
      </g>
     </g>
    </g>
    <g id="xtick_6">
     <g id="line2d_15">
      <g>
       <use xlink:href="#m8c31a62fb8" x="340.551382" y="171.0936" style="stroke: #000000; stroke-width: 0.8"/>
      </g>
     </g>
    </g>
    <g id="text_5">
     <!-- $\dot{e}_x$ -->
     <g transform="translate(289.171273 185.956725) scale(0.14 -0.14)">
      <defs>
       <path id="Cmr10-5f" d="M 538 3928 
Q 538 4069 644 4175 
Q 750 4281 891 4281 
Q 978 4281 1062 4234 
Q 1147 4188 1194 4103 
Q 1241 4019 1241 3928 
Q 1241 3791 1137 3684 
Q 1034 3578 891 3578 
Q 750 3578 644 3684 
Q 538 3791 538 3928 
z
" transform="scale(0.015625)"/>
      </defs>
      <use xlink:href="#Cmr10-5f" transform="translate(15.214844 1.109375)"/>
      <use xlink:href="#Cmmi10-65" transform="translate(0 0.328125)"/>
      <use xlink:href="#Cmmi10-78" transform="translate(50.948516 -16.678125) scale(0.7)"/>
     </g>
    </g>
   </g>
   <g id="matplotlib.axis_4">
    <g id="ytick_6">
     <g id="line2d_16">
      <g>
       <use xlink:href="#ma4f9f184de" x="223.998545" y="149.659652" style="stroke: #000000; stroke-width: 0.8"/>
      </g>
     </g>
    </g>
    <g id="ytick_7">
     <g id="line2d_17">
      <g>
       <use xlink:href="#ma4f9f184de" x="223.998545" y="123.371245" style="stroke: #000000; stroke-width: 0.8"/>
      </g>
     </g>
    </g>
    <g id="ytick_8">
     <g id="line2d_18">
      <g>
       <use xlink:href="#ma4f9f184de" x="223.998545" y="97.082837" style="stroke: #000000; stroke-width: 0.8"/>
      </g>
     </g>
    </g>
    <g id="ytick_9">
     <g id="line2d_19">
      <g>
       <use xlink:href="#ma4f9f184de" x="223.998545" y="70.794429" style="stroke: #000000; stroke-width: 0.8"/>
      </g>
     </g>
    </g>
    <g id="ytick_10">
     <g id="line2d_20">
      <g>
       <use xlink:href="#ma4f9f184de" x="223.998545" y="44.506021" style="stroke: #000000; stroke-width: 0.8"/>
      </g>
     </g>
    </g>
    <g id="text_6">
     <!-- $f_{int}$ -->
     <g transform="translate(216.833233 107.3712) rotate(-90) scale(0.14 -0.14)">
      <use xlink:href="#Cmmi10-66" transform="translate(0 0.484375)"/>
      <use xlink:href="#Cmmi10-69" transform="translate(48.876953 -16.521875) scale(0.7)"/>
      <use xlink:href="#Cmmi10-6e" transform="translate(72.973633 -16.521875) scale(0.7)"/>
      <use xlink:href="#Cmmi10-74" transform="translate(114.980469 -16.521875) scale(0.7)"/>
     </g>
    </g>
   </g>
   <g id="line2d_21">
    <path d="M 296.033088 32.632533 
L 299.959908 32.748509 
L 303.872597 33.096019 
L 307.757072 33.673812 
L 311.599353 34.479809 
L 315.385612 35.51111 
L 319.102223 36.764002 
L 322.735811 38.233977 
L 326.273297 39.915745 
L 329.701951 41.803252 
L 333.009434 43.889706 
L 336.183841 46.167598 
L 339.213749 48.628729 
L 342.088254 51.264243 
L 344.79701 54.064655 
L 347.330268 57.019886 
L 349.678912 60.1193 
L 351.834488 63.351742 
L 353.78924 66.705581 
L 355.536133 70.168744 
L 357.068878 73.72877 
L 358.381961 77.372844 
L 359.470654 81.087854 
L 360.331042 84.860428 
L 360.960026 88.676989 
L 361.355343 92.523803 
L 361.51557 96.387024 
L 361.440132 100.252749 
L 361.129298 104.107066 
L 360.584189 107.936103 
L 359.806765 111.726081 
L 358.799825 115.463358 
L 357.566992 119.134486 
L 356.112704 122.726251 
L 354.442194 126.225728 
L 352.561474 129.620321 
L 350.477314 132.897815 
L 348.197212 136.046414 
L 345.729377 139.054786 
L 343.082688 141.912104 
L 340.266672 144.608086 
L 337.291462 147.133027 
L 334.167767 149.477842 
L 330.906828 151.634092 
L 327.520381 153.594016 
L 324.020614 155.350561 
L 320.420122 156.897405 
L 316.731864 158.228981 
L 312.969112 159.340497 
L 309.145408 160.227952 
L 305.274515 160.888154 
L 301.370362 161.318725 
L 297.447001 161.518116 
L 293.518551 161.48561 
L 289.599151 161.221323 
L 285.702906 160.726208 
L 281.843838 160.002044 
L 278.035837 159.05144 
L 274.292606 157.877815 
L 270.627618 156.485395 
L 267.054061 154.879189 
L 263.584798 153.064979 
L 260.232314 151.049293 
L 257.008674 148.839387 
L 253.92548 146.443212 
L 250.993827 143.869394 
L 248.224267 141.127195 
L 245.626768 138.226483 
L 243.210676 135.177699 
L 240.984689 131.991815 
L 238.956816 128.680296 
L 237.134356 125.25506 
L 235.523868 121.728434 
L 234.131147 118.113111 
L 232.961207 114.422102 
L 232.018258 110.66869 
L 231.305693 106.866384 
L 230.826076 103.028867 
L 230.581134 99.169951 
L 230.571749 95.303524 
L 230.797954 91.443501 
L 231.258935 87.603773 
L 231.953033 83.798159 
L 232.877749 80.040356 
L 234.029757 76.343887 
L 235.40491 72.722057 
L 236.998259 69.187898 
L 238.80407 65.754132 
L 240.815843 62.433115 
L 243.026338 59.236799 
L 245.427601 56.176688 
L 248.010989 53.263796 
L 250.767204 50.508604 
L 253.686328 47.92103 
L 256.757855 45.510384 
L 259.970729 43.285344 
L 263.31339 41.253917 
L 266.773806 39.423414 
L 270.339523 37.800422 
L 273.99771 36.390783 
L 277.735201 35.19957 
L 281.538544 34.23107 
L 285.394051 33.488769 
L 289.287848 32.975337 
L 293.205921 32.692623 
L 295.169656 32.638136 
L 295.169656 32.638136 
" clip-path="url(#p398806b8ac)" style="fill: none; stroke: #1f77b4; stroke-width: 1.5; stroke-linecap: square"/>
   </g>
   <g id="line2d_22">
    <path d="M 296.033088 32.632533 
L 299.959908 31.589099 
L 303.872597 30.781372 
L 307.757072 30.212259 
L 311.599353 29.883808 
L 315.385612 29.7972 
L 319.102223 29.952748 
L 322.735811 30.349892 
L 326.273297 30.987202 
L 329.701951 31.862386 
L 333.009434 32.972292 
L 336.183841 34.312928 
L 339.213749 35.879467 
L 342.088254 37.666272 
L 344.79701 39.666913 
L 347.330268 41.874189 
L 349.678912 44.280156 
L 351.834488 46.876156 
L 353.78924 49.652846 
L 355.536133 52.600233 
L 357.068878 55.707709 
L 358.381961 58.964091 
L 359.470654 62.357659 
L 360.331042 65.8762 
L 360.960026 69.507052 
L 361.355343 73.237146 
L 361.51557 77.05306 
L 361.440132 80.941058 
L 361.129298 84.88715 
L 360.584189 88.877133 
L 359.806765 92.896648 
L 358.799825 96.931229 
L 357.566992 100.966355 
L 356.112704 104.987505 
L 354.442194 108.980206 
L 352.561474 112.93009 
L 350.477314 116.82294 
L 348.197212 120.644748 
L 345.729377 124.381758 
L 343.082688 128.020522 
L 340.266672 131.547943 
L 337.291462 134.951328 
L 334.167767 138.218426 
L 330.906828 141.337481 
L 327.520381 144.297267 
L 324.020614 147.087132 
L 320.420122 149.697035 
L 316.731864 152.117584 
L 312.969112 154.340068 
L 309.145408 156.356487 
L 305.274515 158.159585 
L 301.370362 159.742873 
L 297.447001 161.100653 
L 293.518551 162.228037 
L 289.599151 163.120969 
L 285.702906 163.776235 
L 281.843838 164.191477 
L 278.035837 164.3652 
L 274.292606 164.296779 
L 270.627618 163.986461 
L 267.054061 163.435362 
L 263.584798 162.645465 
L 260.232314 161.619614 
L 257.008674 160.3615 
L 253.92548 158.875652 
L 250.993827 157.167415 
L 248.224267 155.24294 
L 245.626768 153.10915 
L 243.210676 150.773727 
L 240.984689 148.245074 
L 238.956816 145.532292 
L 237.134356 142.645145 
L 235.523868 139.594023 
L 234.131147 136.389906 
L 232.961207 133.044326 
L 232.018258 129.569324 
L 231.305693 125.977405 
L 230.826076 122.281497 
L 230.581134 118.494902 
L 230.571749 114.631246 
L 230.797954 110.704434 
L 231.258935 106.7286 
L 231.953033 102.718051 
L 232.877749 98.687221 
L 234.029757 94.650618 
L 235.40491 90.622768 
L 236.998259 86.618167 
L 238.80407 82.651227 
L 240.815843 78.736226 
L 243.026338 74.887253 
L 245.427601 71.11816 
L 248.010989 67.442512 
L 250.767204 63.873537 
L 253.686328 60.424079 
L 256.757855 57.106554 
L 259.970729 53.9329 
L 263.31339 50.914539 
L 266.773806 48.062334 
L 270.339523 45.38655 
L 273.99771 42.896817 
L 277.735201 40.602094 
L 281.538544 38.510642 
L 285.394051 36.629986 
L 289.287848 34.966896 
L 293.205921 33.527355 
L 295.169656 32.893067 
L 295.169656 32.893067 
" clip-path="url(#p398806b8ac)" style="fill: none; stroke: #ff7f0e; stroke-width: 1.5; stroke-linecap: square"/>
   </g>
   <g id="patch_9">
    <path d="M 223.998545 171.0936 
L 223.998545 23.0688 
" style="fill: none; stroke: #000000; stroke-width: 0.8; stroke-linejoin: miter; stroke-linecap: square"/>
   </g>
   <g id="patch_10">
    <path d="M 368.064 171.0936 
L 368.064 23.0688 
" style="fill: none; stroke: #000000; stroke-width: 0.8; stroke-linejoin: miter; stroke-linecap: square"/>
   </g>
   <g id="patch_11">
    <path d="M 223.998545 171.0936 
L 368.064 171.0936 
" style="fill: none; stroke: #000000; stroke-width: 0.8; stroke-linejoin: miter; stroke-linecap: square"/>
   </g>
   <g id="patch_12">
    <path d="M 223.998545 23.0688 
L 368.064 23.0688 
" style="fill: none; stroke: #000000; stroke-width: 0.8; stroke-linejoin: miter; stroke-linecap: square"/>
   </g>
  </g>
 </g>
 <defs>
  <clipPath id="pba712b4d77">
   <rect x="51.12" y="23.0688" width="144.065455" height="148.0248"/>
  </clipPath>
  <clipPath id="p398806b8ac">
   <rect x="223.998545" y="23.0688" width="144.065455" height="148.0248"/>
  </clipPath>
 </defs>
</svg>
