<?xml version="1.0" encoding="UTF-8" standalone="no"?>
<svg
   width="234.14333pt"
   height="192.87372pt"
   viewBox="0 0 234.14333 192.87373"
   version="1.1"
   id="svg696"
   sodipodi:docname="systems_1st_x_2nd.svg"
   inkscape:version="1.2.1 (9c6d41e410, 2022-07-14)"
   xmlns:inkscape="http://www.inkscape.org/namespaces/inkscape"
   xmlns:sodipodi="http://sodipodi.sourceforge.net/DTD/sodipodi-0.dtd"
   xmlns:xlink="http://www.w3.org/1999/xlink"
   xmlns="http://www.w3.org/2000/svg"
   xmlns:svg="http://www.w3.org/2000/svg"
   xmlns:rdf="http://www.w3.org/1999/02/22-rdf-syntax-ns#"
   xmlns:cc="http://creativecommons.org/ns#"
   xmlns:dc="http://purl.org/dc/elements/1.1/">
  <sodipodi:namedview
     id="namedview698"
     pagecolor="#f3f3f3"
     bordercolor="#ffffff"
     borderopacity="1"
     inkscape:showpageshadow="0"
     inkscape:pageopacity="0"
     inkscape:pagecheckerboard="1"
     inkscape:deskcolor="#505050"
     inkscape:document-units="pt"
     showgrid="false"
     inkscape:zoom="2.3014348"
     inkscape:cx="117.10086"
     inkscape:cy="117.10086"
     inkscape:window-width="1920"
     inkscape:window-height="1001"
     inkscape:window-x="-9"
     inkscape:window-y="-9"
     inkscape:window-maximized="1"
     inkscape:current-layer="svg696" />
  <metadata
     id="metadata441">
    <rdf:RDF>
      <cc:Work>
        <dc:type
           rdf:resource="http://purl.org/dc/dcmitype/StillImage" />
        <dc:date>2024-03-09T21:02:34.610399</dc:date>
        <dc:format>image/svg+xml</dc:format>
        <dc:creator>
          <cc:Agent>
            <dc:title>Matplotlib v3.7.2, https://matplotlib.org/</dc:title>
          </cc:Agent>
        </dc:creator>
      </cc:Work>
    </rdf:RDF>
  </metadata>
  <defs
     id="defs445">
    <style
       type="text/css"
       id="style443">*{stroke-linejoin: round; stroke-linecap: butt}</style>
  </defs>
  <g
     id="figure_1"
     transform="translate(-41.302616,-43.149929)">
    <g
       id="pane3d_1">
      <g
         id="patch_3">
        <path
           d="M 274.93731,198.27039 157.89565,173.70872 V 66.508432 l 117.04166,24.561673"
           style="opacity:0;fill:none"
           id="path453" />
      </g>
    </g>
    <g
       id="pane3d_2">
      <g
         id="patch_4">
        <path
           d="M 66.643147,205.21184 157.89565,173.70872 V 66.508432 L 66.643147,98.011556"
           style="opacity:0;fill:none"
           id="path457" />
      </g>
    </g>
    <g
       id="pane3d_3">
      <g
         id="patch_5">
        <path
           d="M 183.6848,229.77351 274.93731,198.27039 157.89565,173.70872 66.643147,205.21184"
           style="opacity:0;fill:none"
           id="path461" />
      </g>
    </g>
    <g
       id="axis3d_1">
      <g
         id="line2d_1">
        <path
           d="M 274.93731,198.27039 183.6848,229.77351"
           style="fill:none;stroke:#000000;stroke-width:0.8;stroke-linecap:square"
           id="path465" />
      </g>
      <g
         id="text_1"
         transform="translate(-6.5789821,-22.773399)">
        <!-- $e_x$ -->
        <g
           transform="matrix(0.13,0,0,-0.13,247.62537,245.03212)"
           id="g476">
          <defs
             id="defs470">
            <path
               id="Cmmi10-65"
               d="M 1288,-72 Q 981,-72 751,87 522,247 401,517 281,788 281,1088 q 0,456 230,857 230,402 623,642 394,241 844,241 275,0 480,-142 205,-142 205,-408 0,-369 -294,-549 -294,-179 -663,-221 -368,-42 -815,-42 H 872 Q 769,1084 769,813 769,528 900,312 1031,97 1300,97 q 381,0 732,175 352,175 574,484 19,19 50,19 32,0 64,-36 33,-36 33,-67 0,-25 -12,-38 Q 2506,306 2109,117 1713,-72 1288,-72 Z M 909,1631 q 372,0 688,34 316,35 572,174 256,139 256,433 0,119 -66,208 -65,89 -170,136 -105,47 -217,47 -272,0 -489,-147 -217,-147 -358,-383 -141,-236 -216,-502 z"
               transform="scale(0.015625)" />
            <path
               id="Cmmi10-78"
               d="m 500,184 q 113,-87 319,-87 200,0 353,192 153,192 209,420 l 291,1135 q 69,309 69,422 0,159 -89,278 -89,119 -249,119 -203,0 -381,-127 -178,-127 -300,-322 -122,-195 -172,-395 -12,-41 -50,-41 h -78 q -50,0 -50,60 v 18 q 62,238 212,464 150,227 367,367 218,141 465,141 234,0 423,-125 189,-125 267,-340 110,196 280,330 170,135 373,135 138,0 281,-49 144,-48 235,-148 91,-100 91,-250 0,-162 -105,-280 -105,-117 -267,-117 -103,0 -172,66 -69,66 -69,166 0,134 92,235 93,102 221,121 -116,91 -319,91 -206,0 -358,-191 -151,-191 -214,-425 L 1894,916 q -69,-257 -69,-422 0,-163 92,-280 92,-117 246,-117 300,0 535,264 236,264 311,580 13,37 50,37 h 79 q 25,0 40,-17 16,-17 16,-39 0,-6 -6,-19 Q 3097,522 2806,225 2516,-72 2150,-72 1916,-72 1727,54 1538,181 1459,397 1359,209 1182,68 1006,-72 806,-72 669,-72 523,-23 378,25 287,125 q -90,100 -90,253 0,150 104,273 105,124 262,124 106,0 178,-64 72,-64 72,-167 Q 813,409 723,309 634,209 500,184 Z"
               transform="scale(0.015625)" />
          </defs>
          <use
             xlink:href="#Cmmi10-65"
             transform="translate(0,0.8125)"
             id="use472" />
          <use
             xlink:href="#Cmmi10-78"
             transform="matrix(0.7,0,0,0.7,46.484375,-16.19375)"
             id="use474" />
        </g>
      </g>
      <g
         id="Line3DCollection_1">
        <path
           d="M 196.03414,225.51015 78.992487,200.94847 V 93.74819"
           style="fill:none;stroke:#b0b0b0;stroke-width:0.8"
           id="path479" />
        <path
           d="M 210.46748,220.52732 93.425824,195.96565 V 88.765366"
           style="fill:none;stroke:#b0b0b0;stroke-width:0.8"
           id="path481" />
        <path
           d="M 224.90082,215.5445 107.85916,190.98283 V 83.782541"
           style="fill:none;stroke:#b0b0b0;stroke-width:0.8"
           id="path483" />
        <path
           d="M 239.33415,210.56167 122.2925,186 V 78.799717"
           style="fill:none;stroke:#b0b0b0;stroke-width:0.8"
           id="path485" />
        <path
           d="M 253.76749,205.57885 136.72584,181.01718 V 73.816892"
           style="fill:none;stroke:#b0b0b0;stroke-width:0.8"
           id="path487" />
        <path
           d="M 268.20083,200.59603 151.15917,176.03435 V 68.834068"
           style="fill:none;stroke:#b0b0b0;stroke-width:0.8"
           id="path489" />
      </g>
      <g
         id="xtick_1">
        <g
           id="line2d_2">
          <path
             d="m 195.09781,225.31365 2.809,0.58948"
             style="fill:none;stroke:#000000;stroke-width:0.8;stroke-linecap:square"
             id="path492" />
        </g>
      </g>
      <g
         id="xtick_2">
        <g
           id="line2d_3">
          <path
             d="m 209.53115,220.33083 2.809,0.58948"
             style="fill:none;stroke:#000000;stroke-width:0.8;stroke-linecap:square"
             id="path496" />
        </g>
      </g>
      <g
         id="xtick_3">
        <g
           id="line2d_4">
          <path
             d="m 223.96448,215.34801 2.809,0.58948"
             style="fill:none;stroke:#000000;stroke-width:0.8;stroke-linecap:square"
             id="path500" />
        </g>
      </g>
      <g
         id="xtick_4">
        <g
           id="line2d_5">
          <path
             d="m 238.39782,210.36518 2.809,0.58948"
             style="fill:none;stroke:#000000;stroke-width:0.8;stroke-linecap:square"
             id="path504" />
        </g>
      </g>
      <g
         id="xtick_5">
        <g
           id="line2d_6">
          <path
             d="m 252.83116,205.38236 2.809,0.58948"
             style="fill:none;stroke:#000000;stroke-width:0.8;stroke-linecap:square"
             id="path508" />
        </g>
      </g>
      <g
         id="xtick_6">
        <g
           id="line2d_7">
          <path
             d="m 267.2645,200.39953 2.809,0.58948"
             style="fill:none;stroke:#000000;stroke-width:0.8;stroke-linecap:square"
             id="path512" />
        </g>
      </g>
    </g>
    <g
       id="axis3d_2">
      <g
         id="line2d_8">
        <path
           d="M 66.643147,205.21184 183.6848,229.77351"
           style="fill:none;stroke:#000000;stroke-width:0.8;stroke-linecap:square"
           id="path517" />
      </g>
      <g
         id="text_2"
         transform="translate(10.121511,-16.194417)">
        <!-- $\dot{e}_x$ -->
        <g
           transform="matrix(0.13,0,0,-0.13,99.802029,249.94754)"
           id="g529">
          <defs
             id="defs521">
            <path
               id="Cmr10-5f"
               d="m 538,3928 q 0,141 106,247 106,106 247,106 87,0 171,-47 85,-46 132,-131 47,-84 47,-175 0,-137 -104,-244 -103,-106 -246,-106 -141,0 -247,106 -106,107 -106,244 z"
               transform="scale(0.015625)" />
          </defs>
          <use
             xlink:href="#Cmr10-5f"
             transform="translate(15.214844,1.109375)"
             id="use523" />
          <use
             xlink:href="#Cmmi10-65"
             transform="translate(0,0.328125)"
             id="use525" />
          <use
             xlink:href="#Cmmi10-78"
             transform="matrix(0.7,0,0,0.7,50.948516,-16.678125)"
             id="use527" />
        </g>
      </g>
      <g
         id="Line3DCollection_2">
        <path
           d="M 252.94079,86.454046 V 193.65433 l -91.2525,31.50312"
           style="fill:none;stroke:#b0b0b0;stroke-width:0.8"
           id="path532" />
        <path
           d="M 222.08315,79.978443 V 187.17873 l -91.2525,31.50312"
           style="fill:none;stroke:#b0b0b0;stroke-width:0.8"
           id="path534" />
        <path
           d="M 191.22551,73.50284 V 180.70312 L 99.973004,212.20625"
           style="fill:none;stroke:#b0b0b0;stroke-width:0.8"
           id="path536" />
        <path
           d="M 160.36786,67.027236 V 174.22752 l -91.252499,31.50312"
           style="fill:none;stroke:#b0b0b0;stroke-width:0.8"
           id="path538" />
      </g>
      <g
         id="xtick_7">
        <g
           id="line2d_9">
          <path
             d="m 162.41831,224.90543 -2.19006,0.75607"
             style="fill:none;stroke:#000000;stroke-width:0.8;stroke-linecap:square"
             id="path541" />
        </g>
      </g>
      <g
         id="xtick_8">
        <g
           id="line2d_10">
          <path
             d="m 131.56067,218.42983 -2.19006,0.75607"
             style="fill:none;stroke:#000000;stroke-width:0.8;stroke-linecap:square"
             id="path545" />
        </g>
      </g>
      <g
         id="xtick_9">
        <g
           id="line2d_11">
          <path
             d="m 100.70302,211.95422 -2.190056,0.75608"
             style="fill:none;stroke:#000000;stroke-width:0.8;stroke-linecap:square"
             id="path549" />
        </g>
      </g>
      <g
         id="xtick_10">
        <g
           id="line2d_12">
          <path
             d="m 69.845381,205.47862 -2.19006,0.75607"
             style="fill:none;stroke:#000000;stroke-width:0.8;stroke-linecap:square"
             id="path553" />
        </g>
      </g>
    </g>
    <g
       id="axis3d_3">
      <g
         id="line2d_13">
        <path
           d="M 66.643147,205.21184 V 98.011556"
           style="fill:none;stroke:#000000;stroke-width:0.8;stroke-linecap:square"
           id="path558" />
      </g>
      <g
         id="text_3"
         transform="translate(27.328079,-0.50607554)">
        <!-- $f_{ext}$ -->
        <g
           transform="matrix(0.13,0,0,-0.13,13.281881,156.61717)"
           id="g573">
          <defs
             id="defs563">
            <path
               id="Cmmi10-66"
               d="m 622,-1056 q 119,-91 287,-91 229,0 372,506 60,244 325,1607 l 294,1568 h -550 q -62,0 -62,85 25,140 81,140 h 572 l 75,416 q 37,194 68,333 32,139 68,257 36,119 107,266 110,210 296,346 186,136 401,136 141,0 274,-52 133,-52 217,-155 84,-103 84,-243 0,-163 -108,-284 -107,-120 -260,-120 -104,0 -177,64 -73,65 -73,168 0,140 95,245 95,105 236,120 -119,91 -294,91 -97,0 -183,-91 -86,-90 -111,-193 -40,-163 -178,-882 l -78,-422 h 659 q 63,0 63,-84 -3,-16 -13,-55 -9,-39 -26,-63 -17,-23 -42,-23 H 2356 L 2059,972 q -56,-341 -130,-693 -73,-351 -206,-721 -132,-371 -339,-621 -206,-250 -487,-250 -216,0 -386,124 -170,123 -170,326 0,163 104,284 105,120 264,120 107,0 178,-64 72,-65 72,-168 0,-137 -102,-251 -101,-114 -235,-114 z"
               transform="scale(0.015625)" />
            <path
               id="Cmmi10-74"
               d="m 397,519 q 0,94 19,178 L 878,2534 H 206 q -65,0 -65,85 25,140 84,140 h 709 l 257,1044 q 25,85 100,144 75,59 168,59 82,0 136,-49 55,-48 55,-129 0,-19 -2,-30 -1,-10 -4,-23 L 1388,2759 h 659 q 66,0 66,-84 -4,-16 -13,-54 -9,-37 -25,-62 -16,-25 -47,-25 H 1331 L 872,684 Q 825,503 825,372 825,97 1013,97 q 281,0 498,264 217,264 333,580 25,37 50,37 h 78 q 25,0 40,-17 16,-17 16,-39 0,-13 -6,-19 Q 1881,516 1612,222 1344,-72 997,-72 744,-72 570,93 397,259 397,519 Z"
               transform="scale(0.015625)" />
          </defs>
          <use
             xlink:href="#Cmmi10-66"
             transform="translate(0,0.484375)"
             id="use565" />
          <use
             xlink:href="#Cmmi10-65"
             transform="matrix(0.7,0,0,0.7,48.876953,-16.521875)"
             id="use567" />
          <use
             xlink:href="#Cmmi10-78"
             transform="matrix(0.7,0,0,0.7,81.416016,-16.521875)"
             id="use569" />
          <use
             xlink:href="#Cmmi10-74"
             transform="matrix(0.7,0,0,0.7,121.37207,-16.521875)"
             id="use571" />
        </g>
      </g>
      <g
         id="Line3DCollection_3">
        <path
           d="m 66.643147,193.57737 91.252503,-31.50312 117.04166,24.56167"
           style="fill:none;stroke:#b0b0b0;stroke-width:0.8"
           id="path576" />
        <path
           d="m 66.643147,172.59387 91.252503,-31.50313 117.04166,24.56168"
           style="fill:none;stroke:#b0b0b0;stroke-width:0.8"
           id="path578" />
        <path
           d="m 66.643147,151.61036 91.252503,-31.50312 117.04166,24.56167"
           style="fill:none;stroke:#b0b0b0;stroke-width:0.8"
           id="path580" />
        <path
           d="M 66.643147,130.62686 157.89565,99.123735 274.93731,123.68541"
           style="fill:none;stroke:#b0b0b0;stroke-width:0.8"
           id="path582" />
        <path
           d="M 66.643147,109.64336 157.89565,78.140231 274.93731,102.7019"
           style="fill:none;stroke:#b0b0b0;stroke-width:0.8"
           id="path584" />
      </g>
      <g
         id="xtick_11">
        <g
           id="line2d_14">
          <path
             d="m 67.373167,193.32535 -2.19006,0.75607"
             style="fill:none;stroke:#000000;stroke-width:0.8;stroke-linecap:square"
             id="path587" />
        </g>
      </g>
      <g
         id="xtick_12">
        <g
           id="line2d_15">
          <path
             d="m 67.373167,172.34184 -2.19006,0.75608"
             style="fill:none;stroke:#000000;stroke-width:0.8;stroke-linecap:square"
             id="path591" />
        </g>
      </g>
      <g
         id="xtick_13">
        <g
           id="line2d_16">
          <path
             d="m 67.373167,151.35834 -2.19006,0.75607"
             style="fill:none;stroke:#000000;stroke-width:0.8;stroke-linecap:square"
             id="path595" />
        </g>
      </g>
      <g
         id="xtick_14">
        <g
           id="line2d_17">
          <path
             d="m 67.373167,130.37483 -2.19006,0.75608"
             style="fill:none;stroke:#000000;stroke-width:0.8;stroke-linecap:square"
             id="path599" />
        </g>
      </g>
      <g
         id="xtick_15">
        <g
           id="line2d_18">
          <path
             d="m 67.373167,109.39133 -2.19006,0.75608"
             style="fill:none;stroke:#000000;stroke-width:0.8;stroke-linecap:square"
             id="path603" />
        </g>
      </g>
    </g>
    <g
       id="axes_1">
      <g
         id="line2d_19">
        <path
           d="m 126.65515,140.0911 2.20354,-3.79799 2.35898,-3.74559 2.50592,-3.67972 2.64383,-3.6006 2.77225,-3.50853 2.89068,-3.40382 2.9987,-3.28687 3.09593,-3.15809 3.18203,-3.01795 3.25667,-2.86693 3.31959,-2.70561 3.37056,-2.53454 3.4094,-2.35436 3.43598,-2.165699 3.45018,-1.969248 3.45197,-1.765707 3.44134,-1.555813 3.41832,-1.34032 3.383,-1.120001 3.3355,-0.895654 3.276,-0.668082 3.20471,-0.438106 3.12189,-0.206554 3.02783,0.02574 2.92287,0.257946 2.8074,0.489221 2.68181,0.718736 2.54659,0.945663 2.40219,1.169188 2.24915,1.388504 2.08801,1.602824 1.91937,1.811375 1.7438,2.013406 1.56198,2.208193 1.37451,2.395038 1.18212,2.57325 0.98546,2.74221 0.78526,2.9013 0.58222,3.04994 0.37711,3.18762 0.17062,3.31382 -0.0365,3.42809 -0.24344,3.53002 -0.44953,3.61926 -0.65399,3.69546 -0.85611,3.75837 -1.05515,3.80775 -1.25039,3.84343 -1.44112,3.86527 -1.62667,3.87321 -1.80638,3.86719 -1.97956,3.84728 -2.14564,3.8135 -2.304,3.76602 -2.45404,3.70496 -2.59528,3.63058 -2.72716,3.54314 -2.84923,3.44293 -2.96105,3.33035 -3.06221,3.20577 -3.15235,3.06965 -3.23114,2.9225 -3.29831,2.76482 -3.35361,2.59719 -3.39683,2.42021 -3.42783,2.23453 -3.4465,2.0408 -3.45276,1.83972 -3.4466,1.63204 -3.42802,1.41847 -3.39712,1.19979 -3.35399,0.97681 -3.29878,0.7503 -3.23171,0.52109 -3.15301,0.29001 -3.06295,0.0579 -2.96187,-0.17444 -2.85014,-0.40615 -2.72815,-0.6364 -2.59633,-0.86434 -2.45518,-1.08919 -2.30519,-1.31011 -2.1469,-1.52632 -1.98088,-1.73704 -1.80775,-1.94149 -1.62809,-2.13898 -1.44258,-2.32875 -1.25188,-2.51015 -1.05668,-2.68251 -0.85767,-2.84522 -0.65557,-2.99768 -0.45112,-3.13937 -0.24504,-3.26975 -0.0381,-3.38837 0.16901,-3.49479 0.37551,-3.58863 0.58065,-3.66955 0.78369,-3.73728 0.98392,-3.79155 1.1806,-3.83218 1.37304,-3.85901 1.56054,-3.87195 1.74242,-3.87097 1.91803,-3.85604 1.02273,-1.91809 v 0"
           clip-path="url(#pf5fef9e0cc)"
           style="fill:none;stroke:#008000;stroke-width:1.5;stroke-linecap:square"
           id="path608" />
      </g>
      <g
         id="line2d_20">
        <path
           d="m 115.30727,137.7097 20.84728,-37.26833 11.73409,-20.594317 2.77486,-4.56075 0.0274,-0.01223 -0.004,0.04507 -0.49881,1.081594 -2.8531,5.449961 -8.91895,16.455699 -17.06611,30.984333 -21.701056,38.93199 -14.648165,25.88293 -4.813932,8.17394 -0.264591,0.32823 0.05861,-0.17948 0.935522,-1.90258 3.997469,-7.53329 10.907596,-20.02168 19.019817,-34.42162 v 0"
           clip-path="url(#pf5fef9e0cc)"
           style="fill:none;stroke:#008000;stroke-width:1.5;stroke-dasharray:5.55, 2.4;stroke-dashoffset:0;stroke-opacity:0.7"
           id="path611" />
      </g>
      <g
         id="line2d_21">
        <path
           d="m 170.88466,124.82173 0.0817,-3.06545 0.24474,-3.0157 0.40694,-2.95509 0.56765,-2.88383 0.72633,-2.80222 0.8824,-2.7105 1.03528,-2.60904 1.18445,-2.49819 1.32935,-2.378341 1.46946,-2.249936 1.60429,-2.113435 1.73334,-1.969326 1.85616,-1.818132 1.97229,-1.660392 2.08133,-1.496679 2.18288,-1.327577 2.27657,-1.153699 2.36206,-0.975668 2.43906,-0.794126 2.50728,-0.609726 2.56648,-0.423132 2.61643,-0.235015 2.65698,-0.04605 2.68795,0.143078 2.70926,0.33169 2.72082,0.519111 2.72258,0.704663 2.71455,0.887679 2.69674,1.067499 2.66923,1.243479 2.63212,1.414984 2.58552,1.581394 2.52964,1.742115 2.46463,1.896566 2.39077,2.044191 2.3083,2.184459 2.21752,2.316866 2.11875,2.44093 2.01238,2.55622 1.89874,2.6623 1.77828,2.7588 1.65143,2.84538 1.51862,2.92171 1.38034,2.98753 1.23712,3.0426 1.08942,3.08671 0.93781,3.11972 0.78283,3.1415 0.62502,3.15198 0.46497,3.1511 0.30325,3.1389 0.14043,3.11538 -0.0229,3.08067 -0.18613,3.03487 -0.3487,2.97813 -0.51002,2.91069 -0.6695,2.83277 -0.82657,2.74465 -0.98066,2.64665 -1.13123,2.53914 -1.27773,2.42248 -1.41962,2.2971 -1.55641,2.16347 -1.68759,2.02203 -1.81271,1.87332 -1.9313,1.71788 -2.04293,1.55625 -2.14722,1.38901 -2.24378,1.21679 -2.33226,1.04017 -2.41235,0.85983 -2.48375,0.67637 -2.54623,0.4905 -2.59953,0.30284 -2.64348,0.11411 -2.67791,-0.075 -2.70272,-0.26391 -2.71778,-0.45184 -2.72307,-0.63815 -2.71857,-0.82215 -2.70427,-1.00319 -2.68024,-1.18063 -2.64658,-1.35382 -2.60337,-1.52213 -2.55081,-1.68497 -2.48906,-1.84174 -2.41836,-1.99188 -2.33895,-2.13486 -2.25112,-2.27016 -2.1552,-2.39727 -2.05151,-2.51577 -1.94045,-2.62521 -1.82239,-2.7252 -1.69779,-2.81538 -1.56707,-2.89544 -1.4307,-2.96507 -1.2892,-3.02403 -1.14306,-3.07211 -0.99279,-3.10913 -0.83895,-3.13496 -0.6821,-3.14951 -0.5228,-3.15273 -0.3616,-3.14459 -0.19911,-3.12514 -0.0384,-1.55176 v 0"
           clip-path="url(#pf5fef9e0cc)"
           style="fill:none;stroke:#008000;stroke-width:1.5;stroke-dasharray:5.55, 2.4;stroke-dashoffset:0;stroke-opacity:0.7"
           id="path614" />
      </g>
      <g
         id="line2d_22">
        <path
           d="m 126.65515,140.0911 2.20354,-2.5764 3.59412,-3.77176 3.91461,-3.63326 4.20343,-3.46537 4.4582,-3.26943 4.6769,-3.04702 4.85773,-2.79995 4.99925,-2.53021 5.1003,-2.23998 5.16007,-1.93164 5.17806,-1.60766 5.15415,-1.27065 5.08851,-0.92337 3.3355,-0.41883 3.276,-0.2596 3.20471,-0.0994 3.12189,0.0611 3.02783,0.22141 2.92287,0.38092 2.8074,0.53907 2.68181,0.69527 2.54659,0.84896 2.40219,0.99961 2.24915,1.14666 2.08801,1.28958 1.91937,1.42785 1.7438,1.561 1.56198,1.68851 1.37451,1.80997 1.18212,1.92489 0.98546,2.0329 0.78526,2.13358 0.58222,2.22659 0.37711,2.31159 0.17062,2.38827 -0.0365,2.45634 -0.24344,2.51559 -0.44953,2.56577 -0.65399,2.60673 -0.85611,2.6383 -1.05515,2.66038 -1.25039,2.67288 -1.44112,2.67576 -1.62667,2.66901 -1.80638,2.65267 -1.97956,2.62676 -2.14564,2.59141 -2.304,2.54673 -3.7346,3.71633 -4.04188,3.56514 -4.31644,3.3851 -4.55605,3.17765 -4.75879,2.94449 -4.92301,2.68748 -5.04738,2.40873 -5.13089,2.11048 -5.17288,1.79514 -5.17298,1.46528 -5.13121,1.12354 -5.04792,0.77273 -3.29878,0.31704 -3.23171,0.15714 -3.15301,-0.003 -3.06295,-0.16378 -2.96187,-0.32365 -2.85014,-0.48235 -2.72815,-0.63931 -2.59633,-0.79398 -2.45518,-0.94578 -2.30519,-1.09419 -2.1469,-1.23865 -1.98088,-1.37866 -1.80775,-1.5137 -1.62809,-1.6433 -1.44258,-1.76699 -1.25188,-1.8843 -1.05668,-1.99486 -0.85767,-2.09821 -0.65557,-2.19403 -0.45112,-2.28194 -0.24504,-2.36165 -0.0381,-2.43285 0.16901,-2.4953 0.37551,-2.54877 0.58065,-2.59306 0.78369,-2.62802 0.98392,-2.65354 1.1806,-2.66948 1.37304,-2.67584 1.56054,-2.67255 1.74242,-2.65965 1.91803,-2.63718 1.02273,-1.30719 v 0"
           clip-path="url(#pf5fef9e0cc)"
           style="fill:none;stroke:#9400d3;stroke-width:1.5;stroke-linecap:square"
           id="path617" />
      </g>
      <g
         id="line2d_23">
        <path
           d="m 115.30727,137.7097 18.19304,-22.08058 11.95937,-14.21756 4.77679,-5.395116 0.45441,-0.371551 -0.004,0.0425 -0.33576,0.558365 -1.7934,2.445052 -5.71734,7.34739 -11.45673,14.33978 -17.43465,21.46233 -17.986293,21.80341 -11.496264,13.6353 -4.134302,4.63977 -0.409975,0.31706 0.01339,-0.0534 0.371322,-0.60175 2.240288,-3.02572 6.101758,-7.80974 12.775236,-15.95222 13.41702,-16.51245 v 0"
           clip-path="url(#pf5fef9e0cc)"
           style="fill:none;stroke:#9400d3;stroke-width:1.5;stroke-dasharray:5.55, 2.4;stroke-dashoffset:0;stroke-opacity:0.7"
           id="path620" />
      </g>
      <g
         id="line2d_24">
        <path
           d="m 170.88466,124.82173 0.0817,-1.84387 0.24474,-1.7985 0.40694,-1.74667 0.56765,-1.68855 0.72633,-1.62436 0.8824,-1.55431 1.03528,-1.47867 1.18445,-1.39772 1.32935,-1.31173 1.46946,-1.22101 1.60429,-1.12592 1.73334,-1.02676 2.82822,-1.34623 3.08156,-1.10402 3.30996,-0.85285 3.51155,-0.59478 3.68474,-0.33191 3.82808,-0.0663 3.94045,0.19977 4.02091,0.46425 4.06884,0.72498 4.08382,0.97984 4.06575,1.22677 4.01477,1.46377 3.93129,1.68892 3.81599,1.90039 3.6698,2.09649 3.4939,2.27562 3.28972,2.43633 3.05893,2.57731 2.80335,2.69743 2.5251,2.79573 2.2264,2.87138 1.90968,2.92379 1.5775,2.95255 1.23256,2.9574 0.87763,2.9383 0.38428,1.93651 0.22194,1.91048 0.0588,1.87757 -0.10456,1.83791 -0.26754,1.79163 -0.42955,1.7389 -0.59003,1.67991 -0.74837,1.61489 -0.90402,1.54404 -1.05642,1.46765 -1.20502,1.38596 -1.34928,1.2993 -1.48869,1.20795 -1.62273,1.11225 -1.75094,1.01256 -2.85289,1.32404 -3.10398,1.0809 -3.32995,0.829 -3.52896,0.5704 -3.6994,0.30718 -3.83991,0.0415 -3.94933,-0.22457 -4.02678,-0.4888 -4.07163,-0.74907 -4.08353,-1.00327 -4.06238,-1.24936 -4.00834,-1.48533 -3.92185,-1.70928 -3.80363,-1.91939 -3.6546,-2.11397 -3.476,-2.29144 -3.26927,-2.45034 -3.03606,-2.58944 -2.77829,-2.70755 -2.49803,-2.80376 -2.19753,-2.87727 -1.87927,-2.92749 -1.54578,-2.95401 -1.19978,-2.95663 -0.84407,-2.9353 -0.3616,-1.93328 -0.19911,-1.90628 -0.0384,-0.94087 v 0"
           clip-path="url(#pf5fef9e0cc)"
           style="fill:none;stroke:#9400d3;stroke-width:1.5;stroke-dasharray:5.55, 2.4;stroke-dashoffset:0;stroke-opacity:0.7"
           id="path623" />
      </g>
      <g
         id="line2d_25">
        <path
           d="m 225.29833,100.40941 1.14029,2.2478 0.96109,2.38391 0.82274,2.65733 0.62992,2.7949 0.45986,3.08199 0.25634,3.21594 0.0544,3.50931 -0.16258,3.63211 -0.40135,3.92141 -0.6369,4.02364 -0.87171,4.10814 -1.16084,4.36549 -1.4129,4.41687 -1.66025,4.44696 -1.90134,4.45564 -2.13475,4.44287 -2.35924,4.40871 -2.57369,4.3533 -2.77693,4.27689 -3.10091,4.35914 -3.29308,4.2308 -3.46824,4.08046 -3.62501,3.90902 -3.76228,3.71741 -3.71543,3.36505 -3.80422,3.15567 -3.87414,2.93143 -3.92502,2.69335 -3.9568,2.44256 -3.797,2.09098 -3.79221,1.8418 -3.77111,1.58458 -3.56524,1.2662 -3.51757,1.02038 -3.45633,0.77044 -3.22259,0.49851 -3.14363,0.26711 -3.05358,0.0347 -2.8076,-0.18248 -2.70747,-0.3918 -2.5985,-0.59987 -2.48099,-0.80595 -2.23455,-0.95125 -2.11499,-1.13103 -1.98904,-1.30747 -1.85708,-1.48006 -1.71948,-1.64827 -1.57669,-1.81164 -1.42914,-1.9697 -1.27735,-2.12197 -1.17948,-2.39821 -1.00235,-2.55318 -0.82203,-2.69986 -0.63918,-2.8378 -0.47317,-3.12605 -0.26694,-3.2575 -0.0599,-3.37725 0.15991,-3.66173 0.3874,-3.76591 0.61325,-3.85516 0.88198,-4.11781 1.12327,-4.18107 1.35972,-4.22611 1.66799,-4.44639 1.9122,-4.4543 2.14741,-4.44101 2.37251,-4.40656 2.58638,-4.35112 2.9136,-4.45879 3.11803,-4.35276 3.30631,-4.22418 3.4774,-4.07372 3.63042,-3.90217 3.76457,-3.71041 3.71548,-3.35808 3.80301,-3.14836 3.87241,-2.92364 3.92339,-2.685025 3.95573,-2.433621 3.79666,-2.081867 3.79256,-1.832166 3.772,-1.574477 3.56629,-1.256204 3.51851,-1.010153 3.45677,-0.760087 3.22222,-0.48863 3.14221,-0.257305 3.05087,-0.02505 2.8037,0.191414 2.70223,0.400483 2.59194,0.608249 2.47322,0.814035 2.22624,0.958623 2.10594,1.138147 1.97948,1.314348 1.84724,1.486714 1.70961,1.654742 1.56697,1.817944 1.41977,1.975842 1.33438,2.250534 1.16142,2.41274 0.98469,2.56709 0.80477,2.71311 0.64991,3.00396 0.44535,3.14518 0.2392,3.27508 0.0284,3.56574 -0.19991,3.68181 -0.42739,3.78328 -0.68986,4.05591 -0.9346,4.13314 -1.17527,4.19238 -1.41079,4.23338 -1.72004,4.44962 -1.96252,4.45311 -2.19564,4.43541 -2.4183,4.39661 -2.74835,4.52379 -2.96397,4.43532 -3.16424,4.3239 -3.34808,4.19006 -3.5146,4.03453 -3.66289,3.85809 -3.79222,3.66166 -3.73742,3.30719 -3.82042,3.09362 -3.88528,2.86531 -3.93169,2.62336 -3.95945,2.3689 -3.79596,2.01738 -3.78772,1.76544 -3.76305,1.50577 -3.554,1.18906 -3.5026,0.94173 -3.43737,0.69064 -3.20057,0.42179 -3.11756,0.19002 -3.02332,-0.0425 -2.77493,-0.25552 -2.671,-0.46436 -2.55832,-0.67169 -2.43727,-0.87681 -2.19007,-1.01729 -2.06779,-1.19585 -1.93938,-1.37089 -1.80525,-1.54192 -1.66578,-1.70844 -1.5214,-1.86995 -1.37254,-2.026 -1.28285,-2.30131 -1.10835,-2.46109 -0.93027,-2.61289 -0.74921,-2.75619 -0.59044,-3.04624 -0.38517,-3.18416 -0.17859,-3.31065 0.0354,-3.59929 0.0851,-1.5777 v 0"
           clip-path="url(#pf5fef9e0cc)"
           style="fill:none;stroke:#000000;stroke-width:1.5;stroke-linecap:square;stroke-opacity:0"
           id="path626" />
      </g>
      <g
         id="legend_1"
         transform="translate(-1.0121511,3.5425288)">
        <g
           id="patch_6">
          <path
             d="M 88.400634,54.833278 H 246.94657 q 1.666,0 1.666,-1.666 V 41.7734 q 0,-1.666 -1.666,-1.666 H 88.400634 q -1.666,0 -1.666,1.666 v 11.393878 q 0,1.666 1.666,1.666 z"
             style="opacity:0.8;fill:#ffffff;stroke:#cccccc;stroke-linejoin:miter"
             id="path629" />
        </g>
        <g
           id="line2d_26">
          <path
             d="m 90.066634,46.853398 h 8.33 8.329996"
             style="fill:none;stroke:#008000;stroke-width:1.5;stroke-linecap:square"
             id="path632" />
        </g>
        <g
           id="text_4">
          <!-- Md=0.000 -->
          <g
             transform="matrix(0.0833,0,0,-0.0833,113.39063,49.768898)"
             id="g658">
            <defs
               id="defs640">
              <path
                 id="DejaVuSans-4d"
                 d="m 628,4666 h 941 L 2759,1491 3956,4666 h 941 V 0 H 4281 V 4097 L 3078,897 H 2444 L 1241,4097 V 0 H 628 Z"
                 transform="scale(0.015625)" />
              <path
                 id="DejaVuSans-64"
                 d="m 2906,2969 v 1894 h 575 V 0 H 2906 V 525 Q 2725,213 2448,61 2172,-91 1784,-91 1150,-91 751,415 353,922 353,1747 q 0,825 398,1331 399,506 1033,506 388,0 664,-152 277,-151 458,-463 z M 947,1747 q 0,-634 261,-995 261,-361 717,-361 456,0 718,361 263,361 263,995 0,634 -263,995 -262,361 -718,361 -456,0 -717,-361 -261,-361 -261,-995 z"
                 transform="scale(0.015625)" />
              <path
                 id="DejaVuSans-3d"
                 d="M 678,2906 H 4684 V 2381 H 678 Z m 0,-1275 H 4684 V 1100 H 678 Z"
                 transform="scale(0.015625)" />
              <path
                 id="DejaVuSans-30"
                 d="m 2034,4250 q -487,0 -733,-480 -245,-479 -245,-1442 0,-959 245,-1439 246,-480 733,-480 491,0 736,480 246,480 246,1439 0,963 -246,1442 -245,480 -736,480 z m 0,500 q 785,0 1199,-621 414,-620 414,-1801 0,-1178 -414,-1799 -414,-620 -1199,-620 -784,0 -1198,620 -414,621 -414,1799 0,1181 414,1801 414,621 1198,621 z"
                 transform="scale(0.015625)" />
              <path
                 id="DejaVuSans-2e"
                 d="m 684,794 h 660 V 0 H 684 Z"
                 transform="scale(0.015625)" />
            </defs>
            <use
               xlink:href="#DejaVuSans-4d"
               id="use642" />
            <use
               xlink:href="#DejaVuSans-64"
               x="86.279297"
               id="use644" />
            <use
               xlink:href="#DejaVuSans-3d"
               x="149.75586"
               id="use646" />
            <use
               xlink:href="#DejaVuSans-30"
               x="233.54492"
               id="use648" />
            <use
               xlink:href="#DejaVuSans-2e"
               x="297.16797"
               id="use650" />
            <use
               xlink:href="#DejaVuSans-30"
               x="328.95508"
               id="use652" />
            <use
               xlink:href="#DejaVuSans-30"
               x="392.57812"
               id="use654" />
            <use
               xlink:href="#DejaVuSans-30"
               x="456.20117"
               id="use656" />
          </g>
        </g>
        <g
           id="line2d_27">
          <path
             d="m 173.35362,46.853398 h 8.33 8.33"
             style="fill:none;stroke:#9400d3;stroke-width:1.5;stroke-linecap:square"
             id="path661" />
        </g>
        <g
           id="text_5">
          <!-- Md=44.000 -->
          <g
             transform="matrix(0.0833,0,0,-0.0833,196.67762,49.768898)"
             id="g685">
            <defs
               id="defs665">
              <path
                 id="DejaVuSans-34"
                 d="M 2419,4116 825,1625 h 1594 z m -166,550 h 794 V 1625 h 666 V 1100 H 3047 V 0 H 2419 V 1100 H 313 v 609 z"
                 transform="scale(0.015625)" />
            </defs>
            <use
               xlink:href="#DejaVuSans-4d"
               id="use667" />
            <use
               xlink:href="#DejaVuSans-64"
               x="86.279297"
               id="use669" />
            <use
               xlink:href="#DejaVuSans-3d"
               x="149.75586"
               id="use671" />
            <use
               xlink:href="#DejaVuSans-34"
               x="233.54492"
               id="use673" />
            <use
               xlink:href="#DejaVuSans-34"
               x="297.16797"
               id="use675" />
            <use
               xlink:href="#DejaVuSans-2e"
               x="360.79102"
               id="use677" />
            <use
               xlink:href="#DejaVuSans-30"
               x="392.57812"
               id="use679" />
            <use
               xlink:href="#DejaVuSans-30"
               x="456.20117"
               id="use681" />
            <use
               xlink:href="#DejaVuSans-30"
               x="519.82422"
               id="use683" />
          </g>
        </g>
      </g>
    </g>
  </g>
  <defs
     id="defs694">
    <clipPath
       id="pf5fef9e0cc">
      <rect
         x="52.358398"
         y="35.942402"
         width="230.6304"
         height="230.6304"
         id="rect691" />
    </clipPath>
  </defs>
</svg>
