<?xml version="1.0" encoding="UTF-8" standalone="no"?>
<svg
   width="257.34552pt"
   height="219.47508pt"
   viewBox="0 0 257.34551 219.47509"
   version="1.1"
   id="svg664"
   sodipodi:docname="systems_K_x_KD.svg"
   inkscape:version="1.2.1 (9c6d41e410, 2022-07-14)"
   xmlns:inkscape="http://www.inkscape.org/namespaces/inkscape"
   xmlns:sodipodi="http://sodipodi.sourceforge.net/DTD/sodipodi-0.dtd"
   xmlns:xlink="http://www.w3.org/1999/xlink"
   xmlns="http://www.w3.org/2000/svg"
   xmlns:svg="http://www.w3.org/2000/svg"
   xmlns:rdf="http://www.w3.org/1999/02/22-rdf-syntax-ns#"
   xmlns:cc="http://creativecommons.org/ns#"
   xmlns:dc="http://purl.org/dc/elements/1.1/">
  <sodipodi:namedview
     id="namedview666"
     pagecolor="#505050"
     bordercolor="#ffffff"
     borderopacity="1"
     inkscape:showpageshadow="0"
     inkscape:pageopacity="0"
     inkscape:pagecheckerboard="1"
     inkscape:deskcolor="#505050"
     inkscape:document-units="pt"
     showgrid="false"
     inkscape:zoom="0.95076239"
     inkscape:cx="367.59973"
     inkscape:cy="239.28166"
     inkscape:window-width="1920"
     inkscape:window-height="1001"
     inkscape:window-x="-9"
     inkscape:window-y="-9"
     inkscape:window-maximized="1"
     inkscape:current-layer="axes_1" />
  <metadata
     id="metadata393">
    <rdf:RDF>
      <cc:Work>
        <dc:type
           rdf:resource="http://purl.org/dc/dcmitype/StillImage" />
        <dc:date>2024-03-11T23:40:24.488213</dc:date>
        <dc:format>image/svg+xml</dc:format>
        <dc:creator>
          <cc:Agent>
            <dc:title>Matplotlib v3.7.2, https://matplotlib.org/</dc:title>
          </cc:Agent>
        </dc:creator>
      </cc:Work>
    </rdf:RDF>
  </metadata>
  <defs
     id="defs397">
    <style
       type="text/css"
       id="style395">*{stroke-linejoin: round; stroke-linecap: butt}</style>
  </defs>
  <g
     id="figure_1"
     transform="translate(-34.265405,-47.14724)">
    <g
       id="pane3d_1">
      <g
         id="patch_3">
        <path
           d="M 291.09332,224.58397 164.14497,189.58325 V 71.905476 L 291.09332,106.9062"
           style="opacity:0;fill:none"
           id="path405" />
      </g>
    </g>
    <g
       id="pane3d_2">
      <g
         id="patch_4">
        <path
           d="m 57.13137,231.10399 107.0136,-41.52074 V 71.905476 L 57.13137,113.42621"
           style="opacity:0;fill:none"
           id="path409" />
      </g>
    </g>
    <g
       id="pane3d_3">
      <g
         id="patch_5">
        <path
           d="M 184.07972,266.10471 291.09332,224.58397 164.14497,189.58325 57.13137,231.10399"
           style="opacity:0;fill:none"
           id="path413" />
      </g>
    </g>
    <g
       id="axis3d_1">
      <g
         id="line2d_1">
        <path
           d="m 291.09332,224.58397 -107.0136,41.52074"
           style="fill:none;stroke:#000000;stroke-width:0.8;stroke-linecap:square"
           id="path417" />
      </g>
      <g
         id="text_1"
         transform="translate(-12.62145,-24.45406)">
        <!-- $e_x$ -->
        <g
           transform="matrix(0.13,0,0,-0.13,255.15806,277.33472)"
           id="g428">
          <defs
             id="defs422">
            <path
               id="Cmmi10-65"
               d="M 1288,-72 Q 981,-72 751,87 522,247 401,517 281,788 281,1088 q 0,456 230,857 230,402 623,642 394,241 844,241 275,0 480,-142 205,-142 205,-408 0,-369 -294,-549 -294,-179 -663,-221 -368,-42 -815,-42 H 872 Q 769,1084 769,813 769,528 900,312 1031,97 1300,97 q 381,0 732,175 352,175 574,484 19,19 50,19 32,0 64,-36 33,-36 33,-67 0,-25 -12,-38 Q 2506,306 2109,117 1713,-72 1288,-72 Z M 909,1631 q 372,0 688,34 316,35 572,174 256,139 256,433 0,119 -66,208 -65,89 -170,136 -105,47 -217,47 -272,0 -489,-147 -217,-147 -358,-383 -141,-236 -216,-502 z"
               transform="scale(0.015625)" />
            <path
               id="Cmmi10-78"
               d="m 500,184 q 113,-87 319,-87 200,0 353,192 153,192 209,420 l 291,1135 q 69,309 69,422 0,159 -89,278 -89,119 -249,119 -203,0 -381,-127 -178,-127 -300,-322 -122,-195 -172,-395 -12,-41 -50,-41 h -78 q -50,0 -50,60 v 18 q 62,238 212,464 150,227 367,367 218,141 465,141 234,0 423,-125 189,-125 267,-340 110,196 280,330 170,135 373,135 138,0 281,-49 144,-48 235,-148 91,-100 91,-250 0,-162 -105,-280 -105,-117 -267,-117 -103,0 -172,66 -69,66 -69,166 0,134 92,235 93,102 221,121 -116,91 -319,91 -206,0 -358,-191 -151,-191 -214,-425 L 1894,916 q -69,-257 -69,-422 0,-163 92,-280 92,-117 246,-117 300,0 535,264 236,264 311,580 13,37 50,37 h 79 q 25,0 40,-17 16,-17 16,-39 0,-6 -6,-19 Q 3097,522 2806,225 2516,-72 2150,-72 1916,-72 1727,54 1538,181 1459,397 1359,209 1182,68 1006,-72 806,-72 669,-72 523,-23 378,25 287,125 q -90,100 -90,253 0,150 104,273 105,124 262,124 106,0 178,-64 72,-64 72,-167 Q 813,409 723,309 634,209 500,184 Z"
               transform="scale(0.015625)" />
          </defs>
          <use
             xlink:href="#Cmmi10-65"
             transform="translate(0,0.8125)"
             id="use424" />
          <use
             xlink:href="#Cmmi10-78"
             transform="matrix(0.7,0,0,0.7,46.484375,-16.19375)"
             id="use426" />
        </g>
      </g>
      <g
         id="Line3DCollection_1">
        <path
           d="M 197.93566,260.72868 70.98731,225.72796 V 108.05018"
           style="fill:none;stroke:#b0b0b0;stroke-width:0.8"
           id="path431" />
        <path
           d="M 213.48005,254.69753 86.531701,219.69681 V 102.01903"
           style="fill:none;stroke:#b0b0b0;stroke-width:0.8"
           id="path433" />
        <path
           d="M 229.02444,248.66639 102.07609,213.66567 V 95.987888"
           style="fill:none;stroke:#b0b0b0;stroke-width:0.8"
           id="path435" />
        <path
           d="M 244.56883,242.63524 117.62048,207.63452 V 89.956743"
           style="fill:none;stroke:#b0b0b0;stroke-width:0.8"
           id="path437" />
        <path
           d="M 260.11323,236.60409 133.16487,201.60337 V 83.925597"
           style="fill:none;stroke:#b0b0b0;stroke-width:0.8"
           id="path439" />
        <path
           d="M 275.65762,230.57295 148.70927,195.57223 V 77.894451"
           style="fill:none;stroke:#b0b0b0;stroke-width:0.8"
           id="path441" />
      </g>
      <g
         id="xtick_1">
        <g
           id="line2d_2">
          <path
             d="m 196.92007,260.44867 3.04676,0.84002"
             style="fill:none;stroke:#000000;stroke-width:0.8;stroke-linecap:square"
             id="path444" />
        </g>
      </g>
      <g
         id="xtick_2">
        <g
           id="line2d_3">
          <path
             d="m 212.46447,254.41753 3.04676,0.84001"
             style="fill:none;stroke:#000000;stroke-width:0.8;stroke-linecap:square"
             id="path448" />
        </g>
      </g>
      <g
         id="xtick_3">
        <g
           id="line2d_4">
          <path
             d="m 228.00886,248.38638 3.04676,0.84002"
             style="fill:none;stroke:#000000;stroke-width:0.8;stroke-linecap:square"
             id="path452" />
        </g>
      </g>
      <g
         id="xtick_4">
        <g
           id="line2d_5">
          <path
             d="m 243.55325,242.35523 3.04676,0.84002"
             style="fill:none;stroke:#000000;stroke-width:0.8;stroke-linecap:square"
             id="path456" />
        </g>
      </g>
      <g
         id="xtick_5">
        <g
           id="line2d_6">
          <path
             d="m 259.09764,236.32409 3.04676,0.84002"
             style="fill:none;stroke:#000000;stroke-width:0.8;stroke-linecap:square"
             id="path460" />
        </g>
      </g>
      <g
         id="xtick_6">
        <g
           id="line2d_7">
          <path
             d="m 274.64203,230.29294 3.04676,0.84002"
             style="fill:none;stroke:#000000;stroke-width:0.8;stroke-linecap:square"
             id="path464" />
        </g>
      </g>
    </g>
    <g
       id="axis3d_2">
      <g
         id="line2d_8">
        <path
           d="m 57.13137,231.10399 126.94835,35.00072"
           style="fill:none;stroke:#000000;stroke-width:0.8;stroke-linecap:square"
           id="path469" />
      </g>
      <g
         id="text_2"
         transform="translate(15.776813,-20.904277)">
        <!-- $\dot{e}_x$ -->
        <g
           transform="matrix(0.13,0,0,-0.13,94.327521,281.80766)"
           id="g481">
          <defs
             id="defs473">
            <path
               id="Cmr10-5f"
               d="m 538,3928 q 0,141 106,247 106,106 247,106 87,0 171,-47 85,-46 132,-131 47,-84 47,-175 0,-137 -104,-244 -103,-106 -246,-106 -141,0 -247,106 -106,107 -106,244 z"
               transform="scale(0.015625)" />
          </defs>
          <use
             xlink:href="#Cmr10-5f"
             transform="translate(15.214844,1.109375)"
             id="use475" />
          <use
             xlink:href="#Cmmi10-65"
             transform="translate(0,0.328125)"
             id="use477" />
          <use
             xlink:href="#Cmmi10-78"
             transform="matrix(0.7,0,0,0.7,50.948516,-16.678125)"
             id="use479" />
        </g>
      </g>
      <g
         id="Line3DCollection_2">
        <path
           d="m 283.89181,104.92068 v 117.67778 l -107.0136,41.52073"
           style="fill:none;stroke:#b0b0b0;stroke-width:0.8"
           id="path484" />
        <path
           d="M 268.52245,100.68322 V 218.361 l -107.0136,41.52073"
           style="fill:none;stroke:#b0b0b0;stroke-width:0.8"
           id="path486" />
        <path
           d="M 253.15309,96.445757 V 214.12353 l -107.0136,41.52074"
           style="fill:none;stroke:#b0b0b0;stroke-width:0.8"
           id="path488" />
        <path
           d="M 237.78373,92.208295 V 209.88607 l -107.0136,41.52074"
           style="fill:none;stroke:#b0b0b0;stroke-width:0.8"
           id="path490" />
        <path
           d="M 222.41436,87.970834 V 205.64861 l -107.01359,41.52074"
           style="fill:none;stroke:#b0b0b0;stroke-width:0.8"
           id="path492" />
        <path
           d="M 207.045,83.733373 V 201.41115 l -107.01359,41.52074"
           style="fill:none;stroke:#b0b0b0;stroke-width:0.8"
           id="path494" />
        <path
           d="M 191.67564,79.495912 V 197.17369 L 84.662043,238.69443"
           style="fill:none;stroke:#b0b0b0;stroke-width:0.8"
           id="path496" />
        <path
           d="M 176.30628,75.258451 V 192.93623 L 69.292682,234.45697"
           style="fill:none;stroke:#b0b0b0;stroke-width:0.8"
           id="path498" />
      </g>
      <g
         id="xtick_7">
        <g
           id="line2d_9">
          <path
             d="m 177.73432,263.78703 -2.56833,0.9965"
             style="fill:none;stroke:#000000;stroke-width:0.8;stroke-linecap:square"
             id="path501" />
        </g>
      </g>
      <g
         id="xtick_8">
        <g
           id="line2d_10">
          <path
             d="m 162.36496,259.54957 -2.56833,0.9965"
             style="fill:none;stroke:#000000;stroke-width:0.8;stroke-linecap:square"
             id="path505" />
        </g>
      </g>
      <g
         id="xtick_9">
        <g
           id="line2d_11">
          <path
             d="m 146.9956,255.31211 -2.56833,0.99649"
             style="fill:none;stroke:#000000;stroke-width:0.8;stroke-linecap:square"
             id="path509" />
        </g>
      </g>
      <g
         id="xtick_10">
        <g
           id="line2d_12">
          <path
             d="m 131.62623,251.07465 -2.56832,0.99649"
             style="fill:none;stroke:#000000;stroke-width:0.8;stroke-linecap:square"
             id="path513" />
        </g>
      </g>
      <g
         id="xtick_11">
        <g
           id="line2d_13">
          <path
             d="m 116.25687,246.83718 -2.56832,0.9965"
             style="fill:none;stroke:#000000;stroke-width:0.8;stroke-linecap:square"
             id="path517" />
        </g>
      </g>
      <g
         id="xtick_12">
        <g
           id="line2d_14">
          <path
             d="m 100.88751,242.59972 -2.568323,0.9965"
             style="fill:none;stroke:#000000;stroke-width:0.8;stroke-linecap:square"
             id="path521" />
        </g>
      </g>
      <g
         id="xtick_13">
        <g
           id="line2d_15">
          <path
             d="m 85.518152,238.36226 -2.568326,0.9965"
             style="fill:none;stroke:#000000;stroke-width:0.8;stroke-linecap:square"
             id="path525" />
        </g>
      </g>
      <g
         id="xtick_14">
        <g
           id="line2d_16">
          <path
             d="m 70.148791,234.1248 -2.568326,0.9965"
             style="fill:none;stroke:#000000;stroke-width:0.8;stroke-linecap:square"
             id="path529" />
        </g>
      </g>
    </g>
    <g
       id="axis3d_3">
      <g
         id="line2d_17">
        <path
           d="M 57.13137,231.10399 V 113.42621"
           style="fill:none;stroke:#000000;stroke-width:0.8;stroke-linecap:square"
           id="path534" />
      </g>
      <g
         id="text_3"
         transform="translate(29.975944,1.9721016)">
        <!-- $f_{ext}$ -->
        <g
           transform="matrix(0.13,0,0,-0.13,3.596805,177.03882)"
           id="g549">
          <defs
             id="defs539">
            <path
               id="Cmmi10-66"
               d="m 622,-1056 q 119,-91 287,-91 229,0 372,506 60,244 325,1607 l 294,1568 h -550 q -62,0 -62,85 25,140 81,140 h 572 l 75,416 q 37,194 68,333 32,139 68,257 36,119 107,266 110,210 296,346 186,136 401,136 141,0 274,-52 133,-52 217,-155 84,-103 84,-243 0,-163 -108,-284 -107,-120 -260,-120 -104,0 -177,64 -73,65 -73,168 0,140 95,245 95,105 236,120 -119,91 -294,91 -97,0 -183,-91 -86,-90 -111,-193 -40,-163 -178,-882 l -78,-422 h 659 q 63,0 63,-84 -3,-16 -13,-55 -9,-39 -26,-63 -17,-23 -42,-23 H 2356 L 2059,972 q -56,-341 -130,-693 -73,-351 -206,-721 -132,-371 -339,-621 -206,-250 -487,-250 -216,0 -386,124 -170,123 -170,326 0,163 104,284 105,120 264,120 107,0 178,-64 72,-65 72,-168 0,-137 -102,-251 -101,-114 -235,-114 z"
               transform="scale(0.015625)" />
            <path
               id="Cmmi10-74"
               d="m 397,519 q 0,94 19,178 L 878,2534 H 206 q -65,0 -65,85 25,140 84,140 h 709 l 257,1044 q 25,85 100,144 75,59 168,59 82,0 136,-49 55,-48 55,-129 0,-19 -2,-30 -1,-10 -4,-23 L 1388,2759 h 659 q 66,0 66,-84 -4,-16 -13,-54 -9,-37 -25,-62 -16,-25 -47,-25 H 1331 L 872,684 Q 825,503 825,372 825,97 1013,97 q 281,0 498,264 217,264 333,580 25,37 50,37 h 78 q 25,0 40,-17 16,-17 16,-39 0,-13 -6,-19 Q 1881,516 1612,222 1344,-72 997,-72 744,-72 570,93 397,259 397,519 Z"
               transform="scale(0.015625)" />
          </defs>
          <use
             xlink:href="#Cmmi10-66"
             transform="translate(0,0.484375)"
             id="use541" />
          <use
             xlink:href="#Cmmi10-65"
             transform="matrix(0.7,0,0,0.7,48.876953,-16.521875)"
             id="use543" />
          <use
             xlink:href="#Cmmi10-78"
             transform="matrix(0.7,0,0,0.7,81.416016,-16.521875)"
             id="use545" />
          <use
             xlink:href="#Cmmi10-74"
             transform="matrix(0.7,0,0,0.7,121.37207,-16.521875)"
             id="use547" />
        </g>
      </g>
      <g
         id="Line3DCollection_3">
        <path
           d="m 57.13137,216.40504 107.0136,-41.52074 126.94835,35.00072"
           style="fill:none;stroke:#b0b0b0;stroke-width:0.8"
           id="path552" />
        <path
           d="m 57.13137,194.33576 107.0136,-41.52074 126.94835,35.00072"
           style="fill:none;stroke:#b0b0b0;stroke-width:0.8"
           id="path554" />
        <path
           d="m 57.13137,172.26648 107.0136,-41.52074 126.94835,35.00072"
           style="fill:none;stroke:#b0b0b0;stroke-width:0.8"
           id="path556" />
        <path
           d="m 57.13137,150.1972 107.0136,-41.52074 126.94835,35.00072"
           style="fill:none;stroke:#b0b0b0;stroke-width:0.8"
           id="path558" />
        <path
           d="M 57.13137,128.12792 164.14497,86.607177 291.09332,121.6079"
           style="fill:none;stroke:#b0b0b0;stroke-width:0.8"
           id="path560" />
      </g>
      <g
         id="xtick_15">
        <g
           id="line2d_18">
          <path
             d="m 57.987479,216.07287 -2.568326,0.9965"
             style="fill:none;stroke:#000000;stroke-width:0.8;stroke-linecap:square"
             id="path563" />
        </g>
      </g>
      <g
         id="xtick_16">
        <g
           id="line2d_19">
          <path
             d="m 57.987479,194.00359 -2.568326,0.9965"
             style="fill:none;stroke:#000000;stroke-width:0.8;stroke-linecap:square"
             id="path567" />
        </g>
      </g>
      <g
         id="xtick_17">
        <g
           id="line2d_20">
          <path
             d="m 57.987479,171.93431 -2.568326,0.9965"
             style="fill:none;stroke:#000000;stroke-width:0.8;stroke-linecap:square"
             id="path571" />
        </g>
      </g>
      <g
         id="xtick_18">
        <g
           id="line2d_21">
          <path
             d="m 57.987479,149.86503 -2.568326,0.9965"
             style="fill:none;stroke:#000000;stroke-width:0.8;stroke-linecap:square"
             id="path575" />
        </g>
      </g>
      <g
         id="xtick_19">
        <g
           id="line2d_22">
          <path
             d="m 57.987479,127.79575 -2.568326,0.9965"
             style="fill:none;stroke:#000000;stroke-width:0.8;stroke-linecap:square"
             id="path579" />
        </g>
      </g>
    </g>
    <g
       id="axes_1">
      <g
         id="line2d_23">
        <path
           d="m 213.82445,106.23821 -2.77995,-1.59691 -2.90709,-1.34322 -3.02378,-1.0847 -3.12958,-0.82228 -3.22412,-0.55689 -3.30706,-0.2895 -3.3781,-0.0211 -3.43698,0.24743 -3.48348,0.51505 -3.51745,0.78081 -3.53877,1.04376 -3.54735,1.30296 -3.54315,1.55746 -3.52622,1.80636 -3.49658,2.04876 -3.45437,2.28379 -3.39972,2.5106 -3.33283,2.72837 -3.25396,2.93632 -3.16338,3.13371 -3.06139,3.31981 -2.94841,3.49397 -2.82481,3.65556 -2.69104,3.80399 -2.54758,3.93872 -2.39496,4.05929 -2.23373,4.16524 -2.06444,4.25621 -1.88774,4.33186 -1.70422,4.39191 -1.5146,4.43616 -1.31951,4.46444 -1.11967,4.47667 -0.9158,4.47276 -0.70864,4.45278 -0.49893,4.41677 -0.28743,4.36485 -0.0749,4.29723 0.13793,4.21414 0.35025,4.1159 0.5613,4.00283 0.77034,3.87535 0.9766,3.73395 1.17934,3.57908 1.37785,3.41135 1.5714,3.23133 1.75928,3.03969 1.94084,2.83711 2.11541,2.62432 2.28237,2.40207 2.44112,2.1712 2.59108,1.93249 2.73171,1.68685 2.86252,1.43512 2.98302,1.17824 3.09278,0.9171 3.19142,0.65268 3.27857,0.3859 3.35393,0.11774 3.41719,-0.15086 3.46819,-0.4189 3.50668,-0.68544 3.53256,-0.94951 3.54573,-1.21017 3.54613,-1.46647 3.53378,-1.71749 3.5087,-1.96233 3.471,-2.20011 3.42081,-2.42998 3.3583,-2.65108 3.28371,-2.86267 3.1973,-3.06393 3.09939,-3.25418 2.99031,-3.43272 2.87049,-3.59889 2.74032,-3.75212 2.60029,-3.89184 2.45091,-4.01757 2.29271,-4.12882 2.12625,-4.22522 1.95214,-4.30641 1.77101,-4.37211 1.58351,-4.42207 1.3903,-4.45611 1.19209,-4.47412 0.98958,-4.47603 0.78353,-4.46182 0.57465,-4.43156 0.3637,-4.38536 0.15144,-4.32336 -0.0614,-4.24581 -0.27395,-4.15298 -0.48554,-4.0452 -0.69539,-3.92286 -0.90273,-3.78641 -1.10683,-3.63633 -1.30695,-3.47316 -1.50236,-3.29749 -1.69236,-3.10995 -1.87627,-2.91123 -2.05343,-2.70202 -2.22321,-2.4831 -2.38497,-2.25523 -2.53816,-2.01924 -1.32369,-0.91882 v 0"
           clip-path="url(#p4008b93e68)"
           style="fill:none;stroke:#008000;stroke-width:1.5;stroke-linecap:square"
           id="path584" />
      </g>
      <g
         id="line2d_24">
        <path
           d="m 148.26422,88.162709 -0.15424,-1.180075 -0.27369,-0.472003 -0.4093,-0.218118 -0.54344,0.03655 -0.67563,0.291091 -1.25584,0.911356 -1.53751,1.47412 -1.80674,2.024951 -2.80219,3.527829 -3.21427,4.426706 -4.5264,6.699284 -4.99599,7.85296 -5.35339,8.83028 -5.59057,9.6093 -6.84477,12.25466 -6.78421,12.66902 -6.504422,12.67404 -6.014467,12.2695 -4.496952,9.62886 -3.920359,8.85591 -3.255724,7.88408 -2.517973,6.7352 -1.444606,4.45835 -0.915133,3.56158 -0.330673,2.05134 -0.0226,1.50122 0.156273,0.68899 0.292763,0.4365 0.4282,0.18246 0.562094,-0.0722 0.693967,-0.3267 1.282619,-0.96431 1.563221,-1.52615 1.83117,-2.07564 2.83245,-3.59261 3.241478,-4.48744 4.555509,-6.76818 5.019078,-7.91263 5.36993,-8.87937 5.600177,-9.64672 6.84688,-12.28298 6.77598,-12.67843 6.48612,-12.6642 5.98668,-12.24077 4.4672,-9.59111 3.8853,-8.80652 3.21616,-7.82415 2.47479,-6.666067 1.4081,-4.397469 0.87745,-3.496671 0.30197,-2.000593 0.0322,-0.544989 v 0"
           clip-path="url(#p4008b93e68)"
           style="fill:none;stroke:#008000;stroke-width:1.5;stroke-dasharray:5.55, 2.4;stroke-dashoffset:0;stroke-opacity:0.7"
           id="path587" />
      </g>
      <g
         id="line2d_25">
        <path
           d="m 230.97377,99.58436 -2.71137,-1.623516 -2.70161,-1.422948 -2.68213,-1.21726 -2.65299,-1.00719 -2.61431,-0.793495 -2.56623,-0.576946 -2.5089,-0.358319 -2.44254,-0.138403 -2.36739,0.08201 -2.28373,0.302129 -2.19185,0.521162 -2.09207,0.738317 -1.98477,0.952816 -1.87033,1.163886 -1.74915,1.370767 -1.62167,1.572715 -1.48837,1.769005 -1.34971,1.95892 -1.20618,2.1418 -1.05832,2.31695 -0.90665,2.48378 -0.75172,2.64167 -0.59407,2.79005 -0.4343,2.92838 -0.27296,3.05618 -0.11063,3.17298 0.0521,3.27836 0.21462,3.37194 0.37639,3.45339 0.53679,3.52241 1.10156,5.38523 1.44909,5.46835 1.78487,5.50722 2.10622,5.50151 2.41051,5.45126 2.69529,5.35689 2.95825,5.21915 3.19727,5.03918 3.4104,4.81841 3.59594,4.55863 3.75236,4.26196 3.87842,3.93079 3.97307,3.56781 2.68544,2.16248 2.70356,1.98047 2.71196,1.79134 2.71058,1.59575 2.69947,1.39441 2.67862,1.18807 2.64815,0.97745 2.60814,0.76331 2.55874,0.54642 2.50014,0.32756 2.43254,0.10753 2.35618,-0.11289 2.27134,-0.33291 2.17833,-0.55172 2.07749,-0.76855 1.96915,-0.98261 1.85374,-1.19315 1.73166,-1.39938 1.60334,-1.60057 1.46925,-1.79602 1.32987,-1.98498 1.18572,-2.16682 1.03728,-2.34085 0.88513,-2.50646 0.72977,-2.66304 0.5718,-2.81005 0.41177,-2.94693 0.25026,-3.07322 0.0878,-3.18845 -0.0749,-3.29219 -0.23735,-3.38409 -0.39896,-3.46382 -0.55912,-3.53106 -1.13446,-5.39486 -1.48099,-5.47387 -1.81554,-5.50857 -2.13541,-5.4987 -2.43797,-5.4443 -2.72081,-5.34585 -2.98163,-5.20411 -3.2183,-5.02025 -3.42893,-4.79576 -3.6118,-4.53245 -3.76545,-4.23245 -3.88859,-3.89819 -3.98028,-3.53237 -2.68857,-2.13743 -2.70532,-1.95439 -1.35591,-0.90632 v 0"
           clip-path="url(#p4008b93e68)"
           style="fill:none;stroke:#008000;stroke-width:1.5;stroke-dasharray:5.55, 2.4;stroke-dashoffset:0;stroke-opacity:0.7"
           id="path590" />
      </g>
      <g
         id="line2d_26">
        <path
           d="m 213.82445,106.23821 -2.77995,-0.62358 -2.90709,-0.37339 -3.02378,-0.12187 -3.12958,0.13011 -3.22412,0.38159 -3.30706,0.63173 -3.3781,0.87957 -3.43698,1.12426 -3.48348,1.3649 -3.51745,1.60063 -3.53877,1.83059 -3.54735,2.05397 -3.54315,2.26996 -3.52622,2.47777 -3.49658,2.67668 -3.45437,2.86594 -3.39972,3.04489 -3.33283,3.21289 -3.25396,3.36932 -3.16338,3.51363 -3.06139,3.64528 -2.94841,3.76382 -2.82481,3.86883 -2.69104,3.95989 -2.54758,4.03671 -2.39496,4.099 -2.23373,4.14655 -2.06444,4.17916 -1.88774,4.19674 -1.70422,4.19921 -1.5146,4.18657 -1.31951,4.15887 -1.11967,4.11619 -0.9158,4.05871 -0.70864,3.98661 -0.49893,3.90016 -0.28743,3.79969 -0.0749,3.68554 0.13793,3.55811 0.35025,3.4179 0.5613,3.26537 0.77034,3.10109 0.9766,2.92566 1.17934,2.7397 1.37785,2.54387 1.5714,2.33889 1.75928,2.12549 1.94084,1.90444 2.11541,1.67654 2.28237,1.44261 2.44112,1.20348 2.59108,0.96003 2.73171,0.71311 2.86252,0.46363 2.98302,0.21248 3.09278,-0.0394 3.19142,-0.2912 3.27857,-0.54193 3.35393,-0.79069 3.41719,-1.03663 3.46819,-1.27881 3.50668,-1.51642 3.53256,-1.74855 3.54573,-1.97439 3.54613,-2.19313 3.53378,-2.40398 3.5087,-2.60616 3.471,-2.79899 3.42081,-2.98172 3.3583,-3.15373 3.28371,-3.31439 3.1973,-3.46312 3.09939,-3.59939 2.99031,-3.72271 2.87049,-3.83262 2.74032,-3.92874 2.60029,-4.01073 2.45091,-4.07827 2.29271,-4.13115 2.12625,-4.16915 1.95214,-4.19215 1.77101,-4.20007 1.58351,-4.19286 1.3903,-4.17056 1.19209,-4.13327 0.98958,-4.08109 0.78353,-4.01422 0.57465,-3.93291 0.3637,-3.83744 0.15144,-3.72817 -0.0614,-3.60547 -0.27395,-3.4698 -0.48554,-3.32164 -0.69539,-3.16154 -0.90273,-2.99004 -1.10683,-2.80779 -1.30695,-2.61543 -1.50236,-2.41367 -1.69236,-2.20321 -1.87627,-1.98482 -2.05343,-1.7593 -2.22321,-1.52744 -2.38497,-1.29008 -2.53816,-1.04808 -1.32369,-0.43208 v 0"
           clip-path="url(#p4008b93e68)"
           style="fill:none;stroke:#9400d3;stroke-width:1.5;stroke-linecap:square"
           id="path593" />
      </g>
      <g
         id="line2d_27">
        <path
           d="M 148.26422,88.162709 72.046369,225.9458 148.26091,88.168697"
           clip-path="url(#p4008b93e68)"
           style="fill:none;stroke:#9400d3;stroke-width:1.5;stroke-dasharray:5.55, 2.4;stroke-dashoffset:0;stroke-opacity:0.7"
           id="path596" />
      </g>
      <g
         id="line2d_28">
        <path
           d="m 230.97377,99.58436 -2.71137,-0.650185 -2.70161,-0.453119 -2.68213,-0.254425 -2.65299,-0.05481 -2.61431,0.144996 -2.56623,0.344281 -2.5089,0.542329 -2.44254,0.738425 -2.36739,0.931858 -2.28373,1.12195 -2.19185,1.30799 -2.09207,1.48934 -1.98477,1.66531 -1.87033,1.8353 -1.74915,1.99868 -1.62167,2.15487 -1.48837,2.30329 -1.34971,2.44345 -1.20618,2.57479 -1.05832,2.69687 -0.90665,2.80926 -0.75172,2.91152 -0.59407,3.0033 -0.4343,3.08429 -0.27296,3.15417 -0.11063,3.21269 0.0521,3.25967 0.21462,3.29489 0.37639,3.31827 0.53679,3.32971 0.69526,3.32916 0.85124,3.31663 1.00415,3.29216 1.15344,3.25585 1.29859,3.20781 1.43906,3.14824 1.57435,3.07733 1.70398,2.99534 1.82747,2.90259 1.94438,2.79937 2.05431,2.6861 2.15683,2.56314 2.25159,2.43097 2.33825,2.29004 2.4165,2.14088 2.48605,1.98401 2.54664,1.82 2.59809,1.64944 2.64016,1.47294 2.67275,1.29114 2.69572,1.1047 2.70898,0.91428 2.71249,0.72056 2.70625,0.52427 2.69025,0.32607 2.66459,0.12671 2.62932,-0.0731 2.58461,-0.27267 2.53057,-0.47124 2.46745,-0.66813 2.39544,-0.8626 2.3148,-1.05397 2.22584,-1.24154 2.12887,-1.42466 2.02423,-1.60264 1.9123,-1.77485 1.79351,-1.94069 1.66825,-2.09952 1.53698,-2.25081 1.4002,-2.39399 1.25836,-2.52857 1.112,-2.65404 0.96164,-2.76995 0.80781,-2.87591 0.65108,-2.9715 0.49201,-3.05641 0.33116,-3.13031 0.16913,-3.19296 0.006,-3.2441 -0.15619,-3.28358 -0.31829,-3.31123 -0.47926,-3.32697 -0.63849,-3.33074 -0.79544,-3.32251 -0.9495,-3.30234 -1.10017,-3.27027 -1.24686,-3.22644 -1.38908,-3.17099 -1.52629,-3.10414 -1.65801,-3.02611 -1.78376,-2.93719 -1.9031,-2.8377 -2.01558,-2.72799 -2.12081,-2.60848 -2.2184,-2.47957 -2.30802,-2.34174 -2.38933,-2.19547 -2.46203,-2.04132 -2.52589,-1.8798 -2.58064,-1.71154 -2.62611,-1.5371 -2.66212,-1.35714 -2.68857,-1.17229 -2.70532,-0.98322 -1.35591,-0.419573 v 0"
           clip-path="url(#p4008b93e68)"
           style="fill:none;stroke:#9400d3;stroke-width:1.5;stroke-dasharray:5.55, 2.4;stroke-dashoffset:0;stroke-opacity:0.7"
           id="path599" />
      </g>
      <g
         id="line2d_29">
        <path
           d="m 231.26739,121.58081 1.05697,2.53175 0.8714,2.67474 0.68847,2.81114 0.5325,3.10779 0.35042,3.41809 0.14028,3.55818 -0.074,3.87427 -0.29717,4.00164 -0.54828,4.31196 -0.78921,4.41603 -1.02873,4.50058 -1.26617,4.56516 -1.574,4.81969 -1.82451,4.84481 -2.06799,4.84653 -2.30303,4.82488 -2.52835,4.77992 -2.74282,4.71187 -2.94529,4.62104 -3.13454,4.50793 -3.30935,4.37317 -3.46847,4.2175 -3.61081,4.04177 -3.73535,3.84693 -3.84135,3.63393 -3.92822,3.40386 -3.82073,3.02581 -3.86514,2.78764 -3.89232,2.53744 -3.90231,2.27627 -3.7186,1.92006 -3.69756,1.66545 -3.66206,1.40415 -3.44169,1.08919 -3.38454,0.84306 -3.31556,0.59381 -3.0753,0.33123 -2.99279,0.10311 -2.90073,-0.12537 -2.65471,-0.32921 -2.55602,-0.53301 -2.44984,-0.73525 -2.33644,-0.93533 -2.21607,-1.13265 -2.08905,-1.32661 -1.95574,-1.51665 -1.81649,-1.7022 -1.67174,-1.88274 -1.52193,-2.05771 -1.36753,-2.22666 -1.20905,-2.38906 -1.047,-2.54449 -0.92601,-2.84625 -0.73915,-3.00193 -0.55,-3.14786 -0.37281,-3.45999 -0.16029,-3.59801 0.0526,-3.72313 0.284,-4.02932 0.51707,-4.13661 0.74796,-4.22749 1.02794,-4.50804 1.27355,-4.56979 1.51365,-4.61164 1.74724,-4.63337 2.06824,-4.84532 2.3056,-4.82391 2.53207,-4.77954 2.74657,-4.71238 2.94807,-4.6228 3.13553,-4.5112 3.30809,-4.37813 3.46485,-4.22424 3.60508,-4.05027 3.7281,-3.85703 3.83333,-3.64546 3.92026,-3.41655 3.98854,-3.1714 3.86148,-2.79018 3.88978,-2.53991 3.90115,-2.27859 3.71887,-1.92209 3.69907,-1.66728 3.66464,-1.40584 3.44484,-1.09072 3.38808,-0.84458 3.31912,-0.59539 3.07843,-0.33285 2.99543,-0.10493 2.90269,0.12333 2.65582,0.32704 2.55634,0.5306 2.44941,0.7326 2.3353,0.93246 2.21439,1.1296 2.08698,1.32344 1.95347,1.51342 1.81426,1.69898 1.66975,1.87958 1.52035,2.0547 1.36652,2.22383 1.20871,2.38647 1.04736,2.54215 0.92715,2.84409 0.74099,3.00004 0.55244,3.14626 0.37584,3.45857 0.16361,3.59682 -0.0492,3.72212 -0.28047,4.02842 -0.51375,4.13581 -0.74496,4.22681 -1.02517,4.50741 -1.27118,4.56925 -1.51162,4.61119 -1.74548,4.63308 -2.06658,4.84518 -2.30398,4.82399 -2.53041,4.77986 -2.74478,4.71299 -2.94608,4.62371 -3.13333,4.51241 -3.30569,4.37966 -3.46229,4.22607 -3.60244,4.05236 -3.72543,3.85939 -3.83072,3.64803 -3.91779,3.41932 -3.98627,3.17433 -3.85956,2.79311 -3.88812,2.54294 -3.89981,2.28168 -3.7179,1.9251 -3.69844,1.67032 -3.66435,1.40887 -3.44493,1.09359 -3.38852,0.84739 -3.31997,0.59814 -3.07961,0.33537 -2.99699,0.10735 -2.90464,-0.12103 -2.65801,-0.32498 -2.55886,-0.52866 -2.45222,-0.73079 -2.33836,-0.93078 -2.21762,-1.12803 -2.09034,-1.32197 -1.95689,-1.51204 -1.81765,-1.69768 -1.67304,-1.87832 -1.52349,-2.05349 -1.36944,-2.22262 -1.21138,-2.38528 -1.04978,-2.54096 -0.92941,-2.84283 -0.74297,-2.9988 -0.55418,-3.14503 -0.37749,-3.45731 -0.16512,-3.59563 0.0478,-3.721 0.27896,-4.02736 v 0"
           clip-path="url(#p4008b93e68)"
           style="fill:none;stroke:#000000;stroke-width:1.5;stroke-dasharray:1.5, 2.475;stroke-dashoffset:0;stroke-opacity:0"
           id="path602" />
      </g>
      <g
         id="legend_1">
        <g
           id="patch_6">
          <path
             d="m 100.07571,62.373118 h 141.09978 q 1.666,0 1.666,-1.666 V 49.31324 q 0,-1.666 -1.666,-1.666 H 100.07571 q -1.666004,0 -1.666004,1.666 v 11.393878 q 0,1.666 1.666004,1.666 z"
             style="opacity:0.8;fill:#ffffff;stroke:#cccccc;stroke-linejoin:miter"
             id="path605" />
        </g>
        <g
           id="line2d_30">
          <path
             d="m 101.74171,54.393238 h 8.33 8.33"
             style="fill:none;stroke:#008000;stroke-width:1.5;stroke-linecap:square"
             id="path608" />
        </g>
        <g
           id="text_4">
          <!-- Dd=100.0 -->
          <g
             transform="matrix(0.0833,0,0,-0.0833,125.06571,57.308738)"
             id="g635">
            <defs
               id="defs617">
              <path
                 id="DejaVuSans-44"
                 d="M 1259,4147 V 519 h 763 q 966,0 1414,437 448,438 448,1382 0,937 -448,1373 -448,436 -1414,436 z m -631,519 h 1297 q 1356,0 1990,-564 635,-564 635,-1764 Q 4550,1131 3912,565 3275,0 1925,0 H 628 Z"
                 transform="scale(0.015625)" />
              <path
                 id="DejaVuSans-64"
                 d="m 2906,2969 v 1894 h 575 V 0 H 2906 V 525 Q 2725,213 2448,61 2172,-91 1784,-91 1150,-91 751,415 353,922 353,1747 q 0,825 398,1331 399,506 1033,506 388,0 664,-152 277,-151 458,-463 z M 947,1747 q 0,-634 261,-995 261,-361 717,-361 456,0 718,361 263,361 263,995 0,634 -263,995 -262,361 -718,361 -456,0 -717,-361 -261,-361 -261,-995 z"
                 transform="scale(0.015625)" />
              <path
                 id="DejaVuSans-3d"
                 d="M 678,2906 H 4684 V 2381 H 678 Z m 0,-1275 H 4684 V 1100 H 678 Z"
                 transform="scale(0.015625)" />
              <path
                 id="DejaVuSans-31"
                 d="M 794,531 H 1825 V 4091 L 703,3866 v 575 l 1116,225 h 631 V 531 H 3481 V 0 H 794 Z"
                 transform="scale(0.015625)" />
              <path
                 id="DejaVuSans-30"
                 d="m 2034,4250 q -487,0 -733,-480 -245,-479 -245,-1442 0,-959 245,-1439 246,-480 733,-480 491,0 736,480 246,480 246,1439 0,963 -246,1442 -245,480 -736,480 z m 0,500 q 785,0 1199,-621 414,-620 414,-1801 0,-1178 -414,-1799 -414,-620 -1199,-620 -784,0 -1198,620 -414,621 -414,1799 0,1181 414,1801 414,621 1198,621 z"
                 transform="scale(0.015625)" />
              <path
                 id="DejaVuSans-2e"
                 d="m 684,794 h 660 V 0 H 684 Z"
                 transform="scale(0.015625)" />
            </defs>
            <use
               xlink:href="#DejaVuSans-44"
               id="use619" />
            <use
               xlink:href="#DejaVuSans-64"
               x="77.001953"
               id="use621" />
            <use
               xlink:href="#DejaVuSans-3d"
               x="140.47852"
               id="use623" />
            <use
               xlink:href="#DejaVuSans-31"
               x="224.26758"
               id="use625" />
            <use
               xlink:href="#DejaVuSans-30"
               x="287.89062"
               id="use627" />
            <use
               xlink:href="#DejaVuSans-30"
               x="351.51367"
               id="use629" />
            <use
               xlink:href="#DejaVuSans-2e"
               x="415.13672"
               id="use631" />
            <use
               xlink:href="#DejaVuSans-30"
               x="446.92383"
               id="use633" />
          </g>
        </g>
        <g
           id="line2d_31">
          <path
             d="m 184.25556,54.393238 h 8.33 8.33"
             style="fill:none;stroke:#9400d3;stroke-width:1.5;stroke-linecap:square"
             id="path638" />
        </g>
        <g
           id="text_5">
          <!-- Dd=0.0 -->
          <g
             transform="matrix(0.0833,0,0,-0.0833,207.57956,57.308738)"
             id="g653">
            <use
               xlink:href="#DejaVuSans-44"
               id="use641" />
            <use
               xlink:href="#DejaVuSans-64"
               x="77.001953"
               id="use643" />
            <use
               xlink:href="#DejaVuSans-3d"
               x="140.47852"
               id="use645" />
            <use
               xlink:href="#DejaVuSans-30"
               x="224.26758"
               id="use647" />
            <use
               xlink:href="#DejaVuSans-2e"
               x="287.89062"
               id="use649" />
            <use
               xlink:href="#DejaVuSans-30"
               x="319.67773"
               id="use651" />
          </g>
        </g>
      </g>
    </g>
  </g>
  <defs
     id="defs662">
    <clipPath
       id="p4008b93e68">
      <rect
         x="41.616001"
         y="43.482239"
         width="258.0192"
         height="258.0192"
         id="rect659" />
    </clipPath>
  </defs>
</svg>
