<?xml version="1.0" encoding="utf-8" standalone="no"?>
<!DOCTYPE svg PUBLIC "-//W3C//DTD SVG 1.1//EN"
  "http://www.w3.org/Graphics/SVG/1.1/DTD/svg11.dtd">
<svg xmlns:xlink="http://www.w3.org/1999/xlink" width="327.168pt" height="299.52pt" viewBox="0 0 327.168 299.52" xmlns="http://www.w3.org/2000/svg" version="1.1">
 <metadata>
  <rdf:RDF xmlns:dc="http://purl.org/dc/elements/1.1/" xmlns:cc="http://creativecommons.org/ns#" xmlns:rdf="http://www.w3.org/1999/02/22-rdf-syntax-ns#">
   <cc:Work>
    <dc:type rdf:resource="http://purl.org/dc/dcmitype/StillImage"/>
    <dc:date>2024-03-09T21:02:34.610399</dc:date>
    <dc:format>image/svg+xml</dc:format>
    <dc:creator>
     <cc:Agent>
      <dc:title>Matplotlib v3.7.2, https://matplotlib.org/</dc:title>
     </cc:Agent>
    </dc:creator>
   </cc:Work>
  </rdf:RDF>
 </metadata>
 <defs>
  <style type="text/css">*{stroke-linejoin: round; stroke-linecap: butt}</style>
 </defs>
 <g id="figure_1">
  <g id="patch_1">
   <path d="M 0 299.52 
L 327.168 299.52 
L 327.168 0 
L 0 0 
z
" style="fill: #ffffff"/>
  </g>
  <g id="patch_2">
   <path d="M 52.3584 266.5728 
L 282.9888 266.5728 
L 282.9888 35.9424 
L 52.3584 35.9424 
z
" style="fill: #ffffff"/>
  </g>
  <g id="pane3d_1">
   <g id="patch_3">
    <path d="M 274.937307 198.27039 
L 157.895651 173.708716 
L 157.895651 66.508432 
L 274.937307 91.070105 
" style="fill: none; opacity: 0"/>
   </g>
  </g>
  <g id="pane3d_2">
   <g id="patch_4">
    <path d="M 66.643147 205.211841 
L 157.895651 173.708716 
L 157.895651 66.508432 
L 66.643147 98.011556 
" style="fill: none; opacity: 0"/>
   </g>
  </g>
  <g id="pane3d_3">
   <g id="patch_5">
    <path d="M 183.684804 229.773514 
L 274.937307 198.27039 
L 157.895651 173.708716 
L 66.643147 205.211841 
" style="fill: none; opacity: 0"/>
   </g>
  </g>
  <g id="axis3d_1">
   <g id="line2d_1">
    <path d="M 274.937307 198.27039 
L 183.684804 229.773514 
" style="fill: none; stroke: #000000; stroke-width: 0.8; stroke-linecap: square"/>
   </g>
   <g id="text_1">
    <!-- $e_x$ -->
    <g transform="translate(247.625375 245.032124) scale(0.13 -0.13)">
     <defs>
      <path id="Cmmi10-65" d="M 1288 -72 
Q 981 -72 751 87 
Q 522 247 401 517 
Q 281 788 281 1088 
Q 281 1544 511 1945 
Q 741 2347 1134 2587 
Q 1528 2828 1978 2828 
Q 2253 2828 2458 2686 
Q 2663 2544 2663 2278 
Q 2663 1909 2369 1729 
Q 2075 1550 1706 1508 
Q 1338 1466 891 1466 
L 872 1466 
Q 769 1084 769 813 
Q 769 528 900 312 
Q 1031 97 1300 97 
Q 1681 97 2032 272 
Q 2384 447 2606 756 
Q 2625 775 2656 775 
Q 2688 775 2720 739 
Q 2753 703 2753 672 
Q 2753 647 2741 634 
Q 2506 306 2109 117 
Q 1713 -72 1288 -72 
z
M 909 1631 
Q 1281 1631 1597 1665 
Q 1913 1700 2169 1839 
Q 2425 1978 2425 2272 
Q 2425 2391 2359 2480 
Q 2294 2569 2189 2616 
Q 2084 2663 1972 2663 
Q 1700 2663 1483 2516 
Q 1266 2369 1125 2133 
Q 984 1897 909 1631 
z
" transform="scale(0.015625)"/>
      <path id="Cmmi10-78" d="M 500 184 
Q 613 97 819 97 
Q 1019 97 1172 289 
Q 1325 481 1381 709 
L 1672 1844 
Q 1741 2153 1741 2266 
Q 1741 2425 1652 2544 
Q 1563 2663 1403 2663 
Q 1200 2663 1022 2536 
Q 844 2409 722 2214 
Q 600 2019 550 1819 
Q 538 1778 500 1778 
L 422 1778 
Q 372 1778 372 1838 
L 372 1856 
Q 434 2094 584 2320 
Q 734 2547 951 2687 
Q 1169 2828 1416 2828 
Q 1650 2828 1839 2703 
Q 2028 2578 2106 2363 
Q 2216 2559 2386 2693 
Q 2556 2828 2759 2828 
Q 2897 2828 3040 2779 
Q 3184 2731 3275 2631 
Q 3366 2531 3366 2381 
Q 3366 2219 3261 2101 
Q 3156 1984 2994 1984 
Q 2891 1984 2822 2050 
Q 2753 2116 2753 2216 
Q 2753 2350 2845 2451 
Q 2938 2553 3066 2572 
Q 2950 2663 2747 2663 
Q 2541 2663 2389 2472 
Q 2238 2281 2175 2047 
L 1894 916 
Q 1825 659 1825 494 
Q 1825 331 1917 214 
Q 2009 97 2163 97 
Q 2463 97 2698 361 
Q 2934 625 3009 941 
Q 3022 978 3059 978 
L 3138 978 
Q 3163 978 3178 961 
Q 3194 944 3194 922 
Q 3194 916 3188 903 
Q 3097 522 2806 225 
Q 2516 -72 2150 -72 
Q 1916 -72 1727 54 
Q 1538 181 1459 397 
Q 1359 209 1182 68 
Q 1006 -72 806 -72 
Q 669 -72 523 -23 
Q 378 25 287 125 
Q 197 225 197 378 
Q 197 528 301 651 
Q 406 775 563 775 
Q 669 775 741 711 
Q 813 647 813 544 
Q 813 409 723 309 
Q 634 209 500 184 
z
" transform="scale(0.015625)"/>
     </defs>
     <use xlink:href="#Cmmi10-65" transform="translate(0 0.8125)"/>
     <use xlink:href="#Cmmi10-78" transform="translate(46.484375 -16.19375) scale(0.7)"/>
    </g>
   </g>
   <g id="Line3DCollection_1">
    <path d="M 196.034144 225.510148 
L 78.992487 200.948475 
L 78.992487 93.74819 
" style="fill: none; stroke: #b0b0b0; stroke-width: 0.8"/>
    <path d="M 210.467481 220.527324 
L 93.425824 195.96565 
L 93.425824 88.765366 
" style="fill: none; stroke: #b0b0b0; stroke-width: 0.8"/>
    <path d="M 224.900818 215.544499 
L 107.859161 190.982826 
L 107.859161 83.782541 
" style="fill: none; stroke: #b0b0b0; stroke-width: 0.8"/>
    <path d="M 239.334155 210.561675 
L 122.292499 186.000001 
L 122.292499 78.799717 
" style="fill: none; stroke: #b0b0b0; stroke-width: 0.8"/>
    <path d="M 253.767493 205.57885 
L 136.725836 181.017177 
L 136.725836 73.816892 
" style="fill: none; stroke: #b0b0b0; stroke-width: 0.8"/>
    <path d="M 268.20083 200.596026 
L 151.159173 176.034352 
L 151.159173 68.834068 
" style="fill: none; stroke: #b0b0b0; stroke-width: 0.8"/>
   </g>
   <g id="xtick_1">
    <g id="line2d_2">
     <path d="M 195.097811 225.313655 
L 197.90681 225.903135 
" style="fill: none; stroke: #000000; stroke-width: 0.8; stroke-linecap: square"/>
    </g>
   </g>
   <g id="xtick_2">
    <g id="line2d_3">
     <path d="M 209.531148 220.33083 
L 212.340148 220.920311 
" style="fill: none; stroke: #000000; stroke-width: 0.8; stroke-linecap: square"/>
    </g>
   </g>
   <g id="xtick_3">
    <g id="line2d_4">
     <path d="M 223.964485 215.348006 
L 226.773485 215.937486 
" style="fill: none; stroke: #000000; stroke-width: 0.8; stroke-linecap: square"/>
    </g>
   </g>
   <g id="xtick_4">
    <g id="line2d_5">
     <path d="M 238.397822 210.365181 
L 241.206822 210.954662 
" style="fill: none; stroke: #000000; stroke-width: 0.8; stroke-linecap: square"/>
    </g>
   </g>
   <g id="xtick_5">
    <g id="line2d_6">
     <path d="M 252.831159 205.382357 
L 255.640159 205.971837 
" style="fill: none; stroke: #000000; stroke-width: 0.8; stroke-linecap: square"/>
    </g>
   </g>
   <g id="xtick_6">
    <g id="line2d_7">
     <path d="M 267.264497 200.399532 
L 270.073496 200.989012 
" style="fill: none; stroke: #000000; stroke-width: 0.8; stroke-linecap: square"/>
    </g>
   </g>
  </g>
  <g id="axis3d_2">
   <g id="line2d_8">
    <path d="M 66.643147 205.211841 
L 183.684804 229.773514 
" style="fill: none; stroke: #000000; stroke-width: 0.8; stroke-linecap: square"/>
   </g>
   <g id="text_2">
    <!-- $\dot{e}_x$ -->
    <g transform="translate(99.802029 249.947541) scale(0.13 -0.13)">
     <defs>
      <path id="Cmr10-5f" d="M 538 3928 
Q 538 4069 644 4175 
Q 750 4281 891 4281 
Q 978 4281 1062 4234 
Q 1147 4188 1194 4103 
Q 1241 4019 1241 3928 
Q 1241 3791 1137 3684 
Q 1034 3578 891 3578 
Q 750 3578 644 3684 
Q 538 3791 538 3928 
z
" transform="scale(0.015625)"/>
     </defs>
     <use xlink:href="#Cmr10-5f" transform="translate(15.214844 1.109375)"/>
     <use xlink:href="#Cmmi10-65" transform="translate(0 0.328125)"/>
     <use xlink:href="#Cmmi10-78" transform="translate(50.948516 -16.678125) scale(0.7)"/>
    </g>
   </g>
   <g id="Line3DCollection_2">
    <path d="M 252.940793 86.454046 
L 252.940793 193.654331 
L 161.688289 225.157455 
" style="fill: none; stroke: #b0b0b0; stroke-width: 0.8"/>
    <path d="M 222.08315 79.978443 
L 222.08315 187.178727 
L 130.830646 218.681852 
" style="fill: none; stroke: #b0b0b0; stroke-width: 0.8"/>
    <path d="M 191.225507 73.50284 
L 191.225507 180.703124 
L 99.973004 212.206248 
" style="fill: none; stroke: #b0b0b0; stroke-width: 0.8"/>
    <path d="M 160.367865 67.027236 
L 160.367865 174.227521 
L 69.115361 205.730645 
" style="fill: none; stroke: #b0b0b0; stroke-width: 0.8"/>
   </g>
   <g id="xtick_7">
    <g id="line2d_9">
     <path d="M 162.418309 224.90543 
L 160.228249 225.661505 
" style="fill: none; stroke: #000000; stroke-width: 0.8; stroke-linecap: square"/>
    </g>
   </g>
   <g id="xtick_8">
    <g id="line2d_10">
     <path d="M 131.560666 218.429827 
L 129.370606 219.185902 
" style="fill: none; stroke: #000000; stroke-width: 0.8; stroke-linecap: square"/>
    </g>
   </g>
   <g id="xtick_9">
    <g id="line2d_11">
     <path d="M 100.703024 211.954223 
L 98.512964 212.710298 
" style="fill: none; stroke: #000000; stroke-width: 0.8; stroke-linecap: square"/>
    </g>
   </g>
   <g id="xtick_10">
    <g id="line2d_12">
     <path d="M 69.845381 205.47862 
L 67.655321 206.234695 
" style="fill: none; stroke: #000000; stroke-width: 0.8; stroke-linecap: square"/>
    </g>
   </g>
  </g>
  <g id="axis3d_3">
   <g id="line2d_13">
    <path d="M 66.643147 205.211841 
L 66.643147 98.011556 
" style="fill: none; stroke: #000000; stroke-width: 0.8; stroke-linecap: square"/>
   </g>
   <g id="text_3">
    <!-- $f_{ext}$ -->
    <g transform="translate(13.281881 156.61717) scale(0.13 -0.13)">
     <defs>
      <path id="Cmmi10-66" d="M 622 -1056 
Q 741 -1147 909 -1147 
Q 1138 -1147 1281 -641 
Q 1341 -397 1606 966 
L 1900 2534 
L 1350 2534 
Q 1288 2534 1288 2619 
Q 1313 2759 1369 2759 
L 1941 2759 
L 2016 3175 
Q 2053 3369 2084 3508 
Q 2116 3647 2152 3765 
Q 2188 3884 2259 4031 
Q 2369 4241 2555 4377 
Q 2741 4513 2956 4513 
Q 3097 4513 3230 4461 
Q 3363 4409 3447 4306 
Q 3531 4203 3531 4063 
Q 3531 3900 3423 3779 
Q 3316 3659 3163 3659 
Q 3059 3659 2986 3723 
Q 2913 3788 2913 3891 
Q 2913 4031 3008 4136 
Q 3103 4241 3244 4256 
Q 3125 4347 2950 4347 
Q 2853 4347 2767 4256 
Q 2681 4166 2656 4063 
Q 2616 3900 2478 3181 
L 2400 2759 
L 3059 2759 
Q 3122 2759 3122 2675 
Q 3119 2659 3109 2620 
Q 3100 2581 3083 2557 
Q 3066 2534 3041 2534 
L 2356 2534 
L 2059 972 
Q 2003 631 1929 279 
Q 1856 -72 1723 -442 
Q 1591 -813 1384 -1063 
Q 1178 -1313 897 -1313 
Q 681 -1313 511 -1189 
Q 341 -1066 341 -863 
Q 341 -700 445 -579 
Q 550 -459 709 -459 
Q 816 -459 887 -523 
Q 959 -588 959 -691 
Q 959 -828 857 -942 
Q 756 -1056 622 -1056 
z
" transform="scale(0.015625)"/>
      <path id="Cmmi10-74" d="M 397 519 
Q 397 613 416 697 
L 878 2534 
L 206 2534 
Q 141 2534 141 2619 
Q 166 2759 225 2759 
L 934 2759 
L 1191 3803 
Q 1216 3888 1291 3947 
Q 1366 4006 1459 4006 
Q 1541 4006 1595 3957 
Q 1650 3909 1650 3828 
Q 1650 3809 1648 3798 
Q 1647 3788 1644 3775 
L 1388 2759 
L 2047 2759 
Q 2113 2759 2113 2675 
Q 2109 2659 2100 2621 
Q 2091 2584 2075 2559 
Q 2059 2534 2028 2534 
L 1331 2534 
L 872 684 
Q 825 503 825 372 
Q 825 97 1013 97 
Q 1294 97 1511 361 
Q 1728 625 1844 941 
Q 1869 978 1894 978 
L 1972 978 
Q 1997 978 2012 961 
Q 2028 944 2028 922 
Q 2028 909 2022 903 
Q 1881 516 1612 222 
Q 1344 -72 997 -72 
Q 744 -72 570 93 
Q 397 259 397 519 
z
" transform="scale(0.015625)"/>
     </defs>
     <use xlink:href="#Cmmi10-66" transform="translate(0 0.484375)"/>
     <use xlink:href="#Cmmi10-65" transform="translate(48.876953 -16.521875) scale(0.7)"/>
     <use xlink:href="#Cmmi10-78" transform="translate(81.416016 -16.521875) scale(0.7)"/>
     <use xlink:href="#Cmmi10-74" transform="translate(121.37207 -16.521875) scale(0.7)"/>
    </g>
   </g>
   <g id="Line3DCollection_3">
    <path d="M 66.643147 193.577372 
L 157.895651 162.074248 
L 274.937307 186.635921 
" style="fill: none; stroke: #b0b0b0; stroke-width: 0.8"/>
    <path d="M 66.643147 172.593868 
L 157.895651 141.090743 
L 274.937307 165.652417 
" style="fill: none; stroke: #b0b0b0; stroke-width: 0.8"/>
    <path d="M 66.643147 151.610363 
L 157.895651 120.107239 
L 274.937307 144.668913 
" style="fill: none; stroke: #b0b0b0; stroke-width: 0.8"/>
    <path d="M 66.643147 130.626859 
L 157.895651 99.123735 
L 274.937307 123.685409 
" style="fill: none; stroke: #b0b0b0; stroke-width: 0.8"/>
    <path d="M 66.643147 109.643355 
L 157.895651 78.140231 
L 274.937307 102.701904 
" style="fill: none; stroke: #b0b0b0; stroke-width: 0.8"/>
   </g>
   <g id="xtick_11">
    <g id="line2d_14">
     <path d="M 67.373167 193.325347 
L 65.183107 194.081422 
" style="fill: none; stroke: #000000; stroke-width: 0.8; stroke-linecap: square"/>
    </g>
   </g>
   <g id="xtick_12">
    <g id="line2d_15">
     <path d="M 67.373167 172.341843 
L 65.183107 173.097918 
" style="fill: none; stroke: #000000; stroke-width: 0.8; stroke-linecap: square"/>
    </g>
   </g>
   <g id="xtick_13">
    <g id="line2d_16">
     <path d="M 67.373167 151.358338 
L 65.183107 152.114413 
" style="fill: none; stroke: #000000; stroke-width: 0.8; stroke-linecap: square"/>
    </g>
   </g>
   <g id="xtick_14">
    <g id="line2d_17">
     <path d="M 67.373167 130.374834 
L 65.183107 131.130909 
" style="fill: none; stroke: #000000; stroke-width: 0.8; stroke-linecap: square"/>
    </g>
   </g>
   <g id="xtick_15">
    <g id="line2d_18">
     <path d="M 67.373167 109.39133 
L 65.183107 110.147405 
" style="fill: none; stroke: #000000; stroke-width: 0.8; stroke-linecap: square"/>
    </g>
   </g>
  </g>
  <g id="axes_1">
   <g id="line2d_19">
    <path d="M 126.655146 140.091096 
L 128.858693 136.29311 
L 131.217669 132.547517 
L 133.723587 128.867799 
L 136.367425 125.267197 
L 139.139671 121.758672 
L 142.030346 118.354848 
L 145.029048 115.067977 
L 148.124984 111.909887 
L 151.307012 108.891944 
L 154.56368 106.02501 
L 157.883268 103.319403 
L 161.253829 100.784859 
L 164.663233 98.4305 
L 168.099209 96.264801 
L 171.549391 94.295553 
L 175.001364 92.529846 
L 178.442702 90.974033 
L 181.861022 89.633713 
L 185.24402 88.513712 
L 188.579522 87.618058 
L 191.855524 86.949976 
L 195.060235 86.51187 
L 198.182123 86.305316 
L 201.209951 86.331059 
L 204.132822 86.589005 
L 206.940218 87.078226 
L 209.622035 87.796962 
L 212.168621 88.742625 
L 214.570811 89.911813 
L 216.819961 91.300317 
L 218.907974 92.903141 
L 220.827338 94.714516 
L 222.571144 96.727922 
L 224.133116 98.936115 
L 225.507634 101.331146 
L 226.689749 103.904397 
L 227.675209 106.646606 
L 228.460466 109.547905 
L 229.042693 112.597851 
L 229.419797 115.785469 
L 229.59042 119.099286 
L 229.553947 122.527376 
L 229.31051 126.057402 
L 228.860985 129.676659 
L 228.206989 133.372123 
L 227.350878 137.130493 
L 226.29573 140.938243 
L 225.045345 144.78167 
L 223.604222 148.646941 
L 221.977547 152.520145 
L 220.171175 156.387344 
L 218.191606 160.234619 
L 216.045966 164.048124 
L 213.741975 167.814136 
L 211.287927 171.5191 
L 208.692652 175.149682 
L 205.965491 178.692816 
L 203.116259 182.135752 
L 200.155211 185.466097 
L 197.093001 188.671866 
L 193.940652 191.741523 
L 190.709508 194.664019 
L 187.411198 197.428837 
L 184.057593 200.026026 
L 180.660761 202.44624 
L 177.232927 204.680768 
L 173.786429 206.721568 
L 170.333669 208.561295 
L 166.887074 210.19333 
L 163.459049 211.611797 
L 160.061929 212.811592 
L 156.707941 213.788397 
L 153.409156 214.538697 
L 150.177446 215.059791 
L 147.024442 215.349804 
L 143.961491 215.407693 
L 140.999616 215.233248 
L 138.149476 214.827098 
L 135.42133 214.190705 
L 132.824996 213.326358 
L 130.369817 212.237169 
L 128.06463 210.927057 
L 125.917731 209.400738 
L 123.936846 207.663704 
L 122.129104 205.722206 
L 120.501012 203.583234 
L 119.058428 201.254483 
L 117.806545 198.744335 
L 116.749868 196.061825 
L 115.892199 193.216605 
L 115.236626 190.218917 
L 114.785508 187.079548 
L 114.540468 183.809796 
L 114.502388 180.42143 
L 114.671405 176.926643 
L 115.046911 173.338013 
L 115.627555 169.668456 
L 116.411247 165.931178 
L 117.395166 162.139628 
L 118.575772 158.307453 
L 119.948815 154.448444 
L 121.509354 150.57649 
L 123.251772 146.705524 
L 125.1698 142.84948 
L 126.192534 140.931393 
L 126.192534 140.931393 
" clip-path="url(#pf5fef9e0cc)" style="fill: none; stroke: #008000; stroke-width: 1.5; stroke-linecap: square"/>
   </g>
   <g id="line2d_20">
    <path d="M 115.307267 137.709697 
L 136.15455 100.441367 
L 147.888645 79.847053 
L 150.663496 75.286303 
L 150.690876 75.27407 
L 150.686414 75.319137 
L 150.187602 76.400731 
L 147.334504 81.850692 
L 138.415552 98.306391 
L 121.349435 129.290723 
L 99.648384 168.222712 
L 85.000219 194.105645 
L 80.186287 202.279577 
L 79.921696 202.607806 
L 79.980302 202.428331 
L 80.915824 200.525751 
L 84.913293 192.992458 
L 95.820889 172.970785 
L 114.840709 138.549165 
L 114.840709 138.549165 
" clip-path="url(#pf5fef9e0cc)" style="fill: none; stroke-dasharray: 5.55,2.4; stroke-dashoffset: 0; stroke: #008000; stroke-opacity: 0.7; stroke-width: 1.5"/>
   </g>
   <g id="line2d_21">
    <path d="M 170.884657 124.821731 
L 170.966337 121.756277 
L 171.211084 118.740581 
L 171.618017 115.785495 
L 172.18567 112.901656 
L 172.912002 110.099442 
L 173.794398 107.388937 
L 174.829682 104.779896 
L 176.014129 102.28171 
L 177.343476 99.903369 
L 178.812938 97.653433 
L 180.417228 95.539998 
L 182.150571 93.570672 
L 184.00673 91.75254 
L 185.979023 90.092148 
L 188.060354 88.595469 
L 190.243231 87.267892 
L 192.519799 86.114193 
L 194.881864 85.138525 
L 197.320925 84.344399 
L 199.828205 83.734673 
L 202.39468 83.311541 
L 205.011113 83.076526 
L 207.668088 83.030474 
L 210.356043 83.173552 
L 213.065304 83.505242 
L 215.78612 84.024353 
L 218.508701 84.729016 
L 221.223246 85.616695 
L 223.919988 86.684194 
L 226.58922 87.927673 
L 229.221336 89.342657 
L 231.806864 90.924051 
L 234.336498 92.666166 
L 236.801134 94.562732 
L 239.191902 96.606923 
L 241.500199 98.791382 
L 243.717716 101.108248 
L 245.836474 103.549181 
L 247.848846 106.105399 
L 249.747591 108.7677 
L 251.525874 111.526504 
L 253.177297 114.371881 
L 254.695916 117.293592 
L 256.076265 120.281121 
L 257.313377 123.323718 
L 258.402799 126.41043 
L 259.340611 129.530151 
L 260.123437 132.671651 
L 260.748461 135.823626 
L 261.213432 138.974731 
L 261.516678 142.113626 
L 261.657106 145.229014 
L 261.634213 148.309683 
L 261.448079 151.344546 
L 261.099376 154.322681 
L 260.589357 157.23337 
L 259.919858 160.066137 
L 259.09329 162.810788 
L 258.112626 165.457444 
L 256.981396 167.996581 
L 255.703671 170.419061 
L 254.28405 172.716165 
L 252.727641 174.879626 
L 251.040047 176.901658 
L 249.22734 178.774983 
L 247.296044 180.492861 
L 245.253111 182.049108 
L 243.105891 183.438123 
L 240.862114 184.654908 
L 238.529854 185.695084 
L 236.117505 186.554907 
L 233.633748 187.231282 
L 231.087523 187.721776 
L 228.487993 188.024622 
L 225.844513 188.138732 
L 223.166598 188.063694 
L 220.463885 187.799779 
L 217.7461 187.347936 
L 215.023026 186.709792 
L 212.304461 185.887643 
L 209.60019 184.884448 
L 206.919946 183.703817 
L 204.273374 182.35 
L 201.669999 180.827868 
L 199.11919 179.1429 
L 196.630128 177.30116 
L 194.211771 175.309276 
L 191.872821 173.174417 
L 189.621698 170.904265 
L 187.466501 168.506992 
L 185.414988 165.991224 
L 183.474543 163.366015 
L 181.652147 160.640814 
L 179.954361 157.825429 
L 178.387294 154.929991 
L 176.956587 151.964921 
L 175.667387 148.940891 
L 174.524335 145.868782 
L 173.531544 142.759653 
L 172.692588 139.624691 
L 172.010486 136.475181 
L 171.487693 133.322455 
L 171.126089 130.177862 
L 170.926978 127.052718 
L 170.888603 125.500958 
L 170.888603 125.500958 
" clip-path="url(#pf5fef9e0cc)" style="fill: none; stroke-dasharray: 5.55,2.4; stroke-dashoffset: 0; stroke: #008000; stroke-opacity: 0.7; stroke-width: 1.5"/>
   </g>
   <g id="line2d_22">
    <path d="M 126.655146 140.091096 
L 128.858693 137.514697 
L 132.452812 133.742945 
L 136.367425 130.109678 
L 140.570846 126.644305 
L 145.029048 123.374877 
L 149.705945 120.327858 
L 154.56368 117.527912 
L 159.562931 114.997705 
L 164.663233 112.757716 
L 169.8233 110.826077 
L 175.001364 109.218425 
L 180.15551 107.947771 
L 185.24402 107.024402 
L 188.579522 106.605568 
L 191.855524 106.34597 
L 195.060235 106.246544 
L 198.182123 106.307647 
L 201.209951 106.529059 
L 204.132822 106.909983 
L 206.940218 107.449049 
L 209.622035 108.144317 
L 212.168621 108.993284 
L 214.570811 109.992894 
L 216.819961 111.139551 
L 218.907974 112.429128 
L 220.827338 113.856983 
L 222.571144 115.417978 
L 224.133116 117.106495 
L 225.507634 118.916457 
L 226.689749 120.84135 
L 227.675209 122.874246 
L 228.460466 125.00783 
L 229.042693 127.234423 
L 229.419797 129.546012 
L 229.59042 131.934276 
L 229.553947 134.390622 
L 229.31051 136.906209 
L 228.860985 139.471983 
L 228.206989 142.07871 
L 227.350878 144.71701 
L 226.29573 147.377386 
L 225.045345 150.050266 
L 223.604222 152.726028 
L 221.977547 155.395043 
L 220.171175 158.047706 
L 218.191606 160.67447 
L 216.045966 163.265882 
L 213.741975 165.812614 
L 210.00737 169.528943 
L 205.965491 173.094085 
L 201.649055 176.479183 
L 197.093001 179.656835 
L 192.334209 182.601321 
L 187.411198 185.288805 
L 182.363819 187.697535 
L 177.232927 189.808011 
L 172.060055 191.603152 
L 166.887074 193.068426 
L 161.755858 194.191973 
L 156.707941 194.964697 
L 153.409156 195.281738 
L 150.177446 195.438878 
L 147.024442 195.435551 
L 143.961491 195.271769 
L 140.999616 194.948121 
L 138.149476 194.465773 
L 135.42133 193.82646 
L 132.824996 193.032483 
L 130.369817 192.086699 
L 128.06463 190.992513 
L 125.917731 189.753862 
L 123.936846 188.375204 
L 122.129104 186.8615 
L 120.501012 185.218199 
L 119.058428 183.451215 
L 117.806545 181.566906 
L 116.749868 179.572054 
L 115.892199 177.473839 
L 115.236626 175.279812 
L 114.785508 172.997869 
L 114.540468 170.636222 
L 114.502388 168.203371 
L 114.671405 165.708071 
L 115.046911 163.159304 
L 115.627555 160.566241 
L 116.411247 157.938215 
L 117.395166 155.284684 
L 118.575772 152.615198 
L 119.948815 149.939364 
L 121.509354 147.266812 
L 123.251772 144.60716 
L 125.1698 141.969981 
L 126.192534 140.662789 
L 126.192534 140.662789 
" clip-path="url(#pf5fef9e0cc)" style="fill: none; stroke: #9400d3; stroke-width: 1.5; stroke-linecap: square"/>
   </g>
   <g id="line2d_23">
    <path d="M 115.307267 137.709697 
L 133.500314 115.629119 
L 145.459681 101.411563 
L 150.236467 96.016444 
L 150.690876 95.644893 
L 150.686414 95.687391 
L 150.350646 96.245756 
L 148.557253 98.690808 
L 142.839909 106.0382 
L 131.383178 120.377977 
L 113.948531 141.840315 
L 95.962237 163.643719 
L 84.465973 177.279024 
L 80.331671 181.918789 
L 79.921696 182.235854 
L 79.935083 182.182442 
L 80.306405 181.580686 
L 82.546693 178.554968 
L 88.648451 170.745227 
L 101.423691 154.793015 
L 114.840709 138.280562 
L 114.840709 138.280562 
" clip-path="url(#pf5fef9e0cc)" style="fill: none; stroke-dasharray: 5.55,2.4; stroke-dashoffset: 0; stroke: #9400d3; stroke-opacity: 0.7; stroke-width: 1.5"/>
   </g>
   <g id="line2d_24">
    <path d="M 170.884657 124.821731 
L 170.966337 122.977864 
L 171.211084 121.179359 
L 171.618017 119.432688 
L 172.18567 117.744136 
L 172.912002 116.119782 
L 173.794398 114.565471 
L 174.829682 113.086796 
L 176.014129 111.68908 
L 177.343476 110.377353 
L 178.812938 109.156335 
L 180.417228 108.030421 
L 182.150571 107.003663 
L 184.978794 105.657425 
L 188.060354 104.553413 
L 191.370308 103.700563 
L 194.881864 103.105778 
L 198.566596 102.773873 
L 202.39468 102.707535 
L 206.335127 102.9073 
L 210.356043 103.371551 
L 214.424879 104.096531 
L 218.508701 105.076371 
L 222.574451 106.30314 
L 226.58922 107.766907 
L 230.520509 109.455825 
L 234.336498 111.356222 
L 238.006296 113.452715 
L 241.500199 115.728334 
L 244.789925 118.16466 
L 247.848846 120.741971 
L 250.652201 123.439405 
L 253.177297 126.235127 
L 255.403697 129.106508 
L 257.313377 132.030305 
L 258.89088 134.982851 
L 260.123437 137.940247 
L 261.001071 140.878554 
L 261.385353 142.815063 
L 261.60729 144.725541 
L 261.666084 146.603112 
L 261.561523 148.441018 
L 261.293984 150.232647 
L 260.864429 151.971548 
L 260.274405 153.651465 
L 259.526035 155.266351 
L 258.622012 156.810395 
L 257.56559 158.27804 
L 256.36057 159.664003 
L 255.01129 160.963297 
L 253.522605 162.171246 
L 251.899873 163.283502 
L 250.148935 164.296063 
L 247.296044 165.620104 
L 244.192062 166.701002 
L 240.862114 167.530005 
L 237.333154 168.100404 
L 233.633748 168.407582 
L 229.79384 168.449052 
L 225.844513 168.224478 
L 221.817735 167.735679 
L 217.7461 166.986611 
L 213.662567 165.983337 
L 209.60019 164.733978 
L 205.591852 163.248647 
L 201.669999 161.539368 
L 197.866375 159.619976 
L 194.211771 157.506008 
L 190.735767 155.214575 
L 187.466501 152.764226 
L 184.430436 150.174794 
L 181.652147 147.46724 
L 179.154124 144.663481 
L 176.956587 141.786212 
L 175.077323 138.858722 
L 173.531544 135.904708 
L 172.331764 132.948083 
L 171.487693 130.012778 
L 171.126089 128.079498 
L 170.926978 126.17322 
L 170.888603 125.232354 
L 170.888603 125.232354 
" clip-path="url(#pf5fef9e0cc)" style="fill: none; stroke-dasharray: 5.55,2.4; stroke-dashoffset: 0; stroke: #9400d3; stroke-opacity: 0.7; stroke-width: 1.5"/>
   </g>
   <g id="line2d_25">
    <path d="M 225.298331 100.409407 
L 226.438623 102.657209 
L 227.399715 105.041117 
L 228.222448 107.698455 
L 228.852366 110.493347 
L 229.312226 113.575341 
L 229.568575 116.791282 
L 229.623014 120.30059 
L 229.460433 123.932697 
L 229.059083 127.854109 
L 228.422179 131.877751 
L 227.550467 135.985892 
L 226.389627 140.351378 
L 224.976735 144.768248 
L 223.316477 149.215207 
L 221.415136 153.670847 
L 219.280392 158.113724 
L 216.921149 162.522435 
L 214.347458 166.875726 
L 211.570526 171.152617 
L 208.469625 175.511758 
L 205.176539 179.742557 
L 201.708301 183.823021 
L 198.083286 187.732036 
L 194.32101 191.449453 
L 190.605578 194.8145 
L 186.801356 197.970171 
L 182.927216 200.901598 
L 179.002205 203.594953 
L 175.045401 206.037506 
L 171.248404 208.128487 
L 167.456195 209.970294 
L 163.685079 211.554874 
L 160.119839 212.821068 
L 156.60227 213.841449 
L 153.145944 214.611892 
L 149.92335 215.110402 
L 146.779719 215.377506 
L 143.726143 215.412193 
L 140.918539 215.229715 
L 138.211073 214.837907 
L 135.612571 214.238043 
L 133.131582 213.432089 
L 130.897032 212.480841 
L 128.782045 211.34981 
L 126.793002 210.042338 
L 124.935925 208.562283 
L 123.216443 206.914011 
L 121.639755 205.102368 
L 120.210605 203.132675 
L 118.933255 201.010699 
L 117.753776 198.612486 
L 116.751431 196.059308 
L 115.929398 193.359448 
L 115.29022 190.521655 
L 114.817047 187.395597 
L 114.550111 184.138101 
L 114.490182 180.76085 
L 114.650093 177.099117 
L 115.037492 173.333213 
L 115.650741 169.478055 
L 116.532716 165.360243 
L 117.655989 161.179173 
L 119.015714 156.953059 
L 120.683704 152.506675 
L 122.5959 148.052367 
L 124.743312 143.611356 
L 127.115818 139.204796 
L 129.702203 134.853676 
L 132.615796 130.394889 
L 135.733833 126.04213 
L 139.040141 121.817951 
L 142.517544 117.74423 
L 146.147964 113.842062 
L 149.912527 110.13165 
L 153.628014 106.773565 
L 157.43102 103.625212 
L 161.303431 100.701568 
L 165.226823 98.016545 
L 169.182546 95.582924 
L 172.97921 93.501057 
L 176.771775 91.668891 
L 180.543769 90.094414 
L 184.110065 88.83821 
L 187.628567 87.828057 
L 191.085337 87.06797 
L 194.307563 86.57934 
L 197.449768 86.322035 
L 200.500637 86.296981 
L 203.304342 86.488395 
L 206.006567 86.888878 
L 208.598512 87.497127 
L 211.071735 88.311162 
L 213.29797 89.269785 
L 215.403907 90.407932 
L 217.383391 91.72228 
L 219.230634 93.208994 
L 220.940239 94.863736 
L 222.507213 96.68168 
L 223.926982 98.657522 
L 225.261358 100.908062 
L 226.422776 103.320796 
L 227.407468 105.887888 
L 228.212243 108.600999 
L 228.86215 111.604961 
L 229.307498 114.750141 
L 229.5467 118.02522 
L 229.575083 121.590957 
L 229.375172 125.272767 
L 228.947779 129.056046 
L 228.257924 133.111957 
L 227.32332 137.245101 
L 226.148054 141.437484 
L 224.737264 145.670858 
L 223.017219 150.12048 
L 221.054698 154.573591 
L 218.859057 159.009003 
L 216.440761 163.405615 
L 213.692412 167.929396 
L 210.728437 172.364721 
L 207.564204 176.688616 
L 204.216116 180.878681 
L 200.701524 184.913209 
L 197.038632 188.771297 
L 193.246408 192.432956 
L 189.508988 195.740154 
L 185.688568 198.833773 
L 181.803293 201.699084 
L 177.871603 204.32244 
L 173.912153 206.691343 
L 170.116189 208.708725 
L 166.32847 210.474159 
L 162.56542 211.979935 
L 159.011423 213.16899 
L 155.508819 214.110718 
L 152.071455 214.801363 
L 148.870879 215.223155 
L 145.75332 215.413172 
L 142.73 215.370721 
L 139.955066 215.115198 
L 137.284074 214.650836 
L 134.725752 213.979152 
L 132.288481 213.102341 
L 130.098406 212.085048 
L 128.030622 210.889203 
L 126.091239 209.51831 
L 124.28599 207.976388 
L 122.62021 206.267951 
L 121.098812 204.397998 
L 119.726274 202.371997 
L 118.443418 200.070692 
L 117.335068 197.609599 
L 116.4048 194.996714 
L 115.655589 192.24052 
L 115.065146 189.194282 
L 114.679981 186.010117 
L 114.501388 182.699469 
L 114.536784 179.100185 
L 114.62183 177.52248 
L 114.62183 177.52248 
" clip-path="url(#pf5fef9e0cc)" style="fill: none; stroke: #000000; stroke-opacity: 0; stroke-width: 1.5; stroke-linecap: square"/>
   </g>
   <g id="legend_1">
    <g id="patch_6">
     <path d="M 88.400634 54.833278 
L 246.946566 54.833278 
Q 248.612566 54.833278 248.612566 53.167278 
L 248.612566 41.7734 
Q 248.612566 40.1074 246.946566 40.1074 
L 88.400634 40.1074 
Q 86.734634 40.1074 86.734634 41.7734 
L 86.734634 53.167278 
Q 86.734634 54.833278 88.400634 54.833278 
z
" style="fill: #ffffff; opacity: 0.8; stroke: #cccccc; stroke-linejoin: miter"/>
    </g>
    <g id="line2d_26">
     <path d="M 90.066634 46.853398 
L 98.396634 46.853398 
L 106.726634 46.853398 
" style="fill: none; stroke: #008000; stroke-width: 1.5; stroke-linecap: square"/>
    </g>
    <g id="text_4">
     <!-- Md=0.000 -->
     <g transform="translate(113.390634 49.768898) scale(0.0833 -0.0833)">
      <defs>
       <path id="DejaVuSans-4d" d="M 628 4666 
L 1569 4666 
L 2759 1491 
L 3956 4666 
L 4897 4666 
L 4897 0 
L 4281 0 
L 4281 4097 
L 3078 897 
L 2444 897 
L 1241 4097 
L 1241 0 
L 628 0 
L 628 4666 
z
" transform="scale(0.015625)"/>
       <path id="DejaVuSans-64" d="M 2906 2969 
L 2906 4863 
L 3481 4863 
L 3481 0 
L 2906 0 
L 2906 525 
Q 2725 213 2448 61 
Q 2172 -91 1784 -91 
Q 1150 -91 751 415 
Q 353 922 353 1747 
Q 353 2572 751 3078 
Q 1150 3584 1784 3584 
Q 2172 3584 2448 3432 
Q 2725 3281 2906 2969 
z
M 947 1747 
Q 947 1113 1208 752 
Q 1469 391 1925 391 
Q 2381 391 2643 752 
Q 2906 1113 2906 1747 
Q 2906 2381 2643 2742 
Q 2381 3103 1925 3103 
Q 1469 3103 1208 2742 
Q 947 2381 947 1747 
z
" transform="scale(0.015625)"/>
       <path id="DejaVuSans-3d" d="M 678 2906 
L 4684 2906 
L 4684 2381 
L 678 2381 
L 678 2906 
z
M 678 1631 
L 4684 1631 
L 4684 1100 
L 678 1100 
L 678 1631 
z
" transform="scale(0.015625)"/>
       <path id="DejaVuSans-30" d="M 2034 4250 
Q 1547 4250 1301 3770 
Q 1056 3291 1056 2328 
Q 1056 1369 1301 889 
Q 1547 409 2034 409 
Q 2525 409 2770 889 
Q 3016 1369 3016 2328 
Q 3016 3291 2770 3770 
Q 2525 4250 2034 4250 
z
M 2034 4750 
Q 2819 4750 3233 4129 
Q 3647 3509 3647 2328 
Q 3647 1150 3233 529 
Q 2819 -91 2034 -91 
Q 1250 -91 836 529 
Q 422 1150 422 2328 
Q 422 3509 836 4129 
Q 1250 4750 2034 4750 
z
" transform="scale(0.015625)"/>
       <path id="DejaVuSans-2e" d="M 684 794 
L 1344 794 
L 1344 0 
L 684 0 
L 684 794 
z
" transform="scale(0.015625)"/>
      </defs>
      <use xlink:href="#DejaVuSans-4d"/>
      <use xlink:href="#DejaVuSans-64" x="86.279297"/>
      <use xlink:href="#DejaVuSans-3d" x="149.755859"/>
      <use xlink:href="#DejaVuSans-30" x="233.544922"/>
      <use xlink:href="#DejaVuSans-2e" x="297.167969"/>
      <use xlink:href="#DejaVuSans-30" x="328.955078"/>
      <use xlink:href="#DejaVuSans-30" x="392.578125"/>
      <use xlink:href="#DejaVuSans-30" x="456.201172"/>
     </g>
    </g>
    <g id="line2d_27">
     <path d="M 173.353619 46.853398 
L 181.683619 46.853398 
L 190.013619 46.853398 
" style="fill: none; stroke: #9400d3; stroke-width: 1.5; stroke-linecap: square"/>
    </g>
    <g id="text_5">
     <!-- Md=44.000 -->
     <g transform="translate(196.677619 49.768898) scale(0.0833 -0.0833)">
      <defs>
       <path id="DejaVuSans-34" d="M 2419 4116 
L 825 1625 
L 2419 1625 
L 2419 4116 
z
M 2253 4666 
L 3047 4666 
L 3047 1625 
L 3713 1625 
L 3713 1100 
L 3047 1100 
L 3047 0 
L 2419 0 
L 2419 1100 
L 313 1100 
L 313 1709 
L 2253 4666 
z
" transform="scale(0.015625)"/>
      </defs>
      <use xlink:href="#DejaVuSans-4d"/>
      <use xlink:href="#DejaVuSans-64" x="86.279297"/>
      <use xlink:href="#DejaVuSans-3d" x="149.755859"/>
      <use xlink:href="#DejaVuSans-34" x="233.544922"/>
      <use xlink:href="#DejaVuSans-34" x="297.167969"/>
      <use xlink:href="#DejaVuSans-2e" x="360.791016"/>
      <use xlink:href="#DejaVuSans-30" x="392.578125"/>
      <use xlink:href="#DejaVuSans-30" x="456.201172"/>
      <use xlink:href="#DejaVuSans-30" x="519.824219"/>
     </g>
    </g>
   </g>
  </g>
 </g>
 <defs>
  <clipPath id="pf5fef9e0cc">
   <rect x="52.3584" y="35.9424" width="230.6304" height="230.6304"/>
  </clipPath>
 </defs>
</svg>
