<?xml version="1.0" encoding="UTF-8" standalone="no"?>
<!-- Created with Inkscape (http://www.inkscape.org/) -->

<svg
   width="123.96761mm"
   height="88.058098mm"
   viewBox="0 0 123.96761 88.058098"
   version="1.1"
   id="svg1"
   xml:space="preserve"
   inkscape:version="1.3.2 (091e20e, 2023-11-25)"
   sodipodi:docname="task_x_joint.svg"
   xmlns:inkscape="http://www.inkscape.org/namespaces/inkscape"
   xmlns:sodipodi="http://sodipodi.sourceforge.net/DTD/sodipodi-0.dtd"
   xmlns:xlink="http://www.w3.org/1999/xlink"
   xmlns="http://www.w3.org/2000/svg"
   xmlns:svg="http://www.w3.org/2000/svg"><sodipodi:namedview
     id="namedview1"
     pagecolor="#ffffff"
     bordercolor="#000000"
     borderopacity="0.25"
     inkscape:showpageshadow="2"
     inkscape:pageopacity="0.0"
     inkscape:pagecheckerboard="true"
     inkscape:deskcolor="#d1d1d1"
     inkscape:document-units="mm"
     inkscape:zoom="1.3505331"
     inkscape:cx="180.29917"
     inkscape:cy="183.63119"
     inkscape:window-width="1920"
     inkscape:window-height="958"
     inkscape:window-x="0"
     inkscape:window-y="27"
     inkscape:window-maximized="1"
     inkscape:current-layer="patch_12"
     inkscape:export-bgcolor="#ffffff00" /><defs
     id="defs1"><style
       type="text/css"
       id="style1">*{stroke-linejoin: round; stroke-linecap: butt}</style><path
       id="m473d0cfcb8"
       d="M 0,0 V -3.5"
       style="stroke:#000000;stroke-width:0.8" /><path
       id="Cmmi10-65"
       d="M 1288,-72 Q 981,-72 751,87 522,247 401,517 281,788 281,1088 q 0,456 230,857 230,402 623,642 394,241 844,241 275,0 480,-142 205,-142 205,-408 0,-369 -294,-549 -294,-179 -663,-221 -368,-42 -815,-42 H 872 Q 769,1084 769,813 769,528 900,312 1031,97 1300,97 q 381,0 732,175 352,175 574,484 19,19 50,19 32,0 64,-36 33,-36 33,-67 0,-25 -12,-38 Q 2506,306 2109,117 1713,-72 1288,-72 Z M 909,1631 q 372,0 688,34 316,35 572,174 256,139 256,433 0,119 -66,208 -65,89 -170,136 -105,47 -217,47 -272,0 -489,-147 -217,-147 -358,-383 -141,-236 -216,-502 z"
       transform="scale(0.015625)" /><path
       id="Cmmi10-78"
       d="m 500,184 q 113,-87 319,-87 200,0 353,192 153,192 209,420 l 291,1135 q 69,309 69,422 0,159 -89,278 -89,119 -249,119 -203,0 -381,-127 -178,-127 -300,-322 -122,-195 -172,-395 -12,-41 -50,-41 h -78 q -50,0 -50,60 v 18 q 62,238 212,464 150,227 367,367 218,141 465,141 234,0 423,-125 189,-125 267,-340 110,196 280,330 170,135 373,135 138,0 281,-49 144,-48 235,-148 91,-100 91,-250 0,-162 -105,-280 -105,-117 -267,-117 -103,0 -172,66 -69,66 -69,166 0,134 92,235 93,102 221,121 -116,91 -319,91 -206,0 -358,-191 -151,-191 -214,-425 L 1894,916 q -69,-257 -69,-422 0,-163 92,-280 92,-117 246,-117 300,0 535,264 236,264 311,580 13,37 50,37 h 79 q 25,0 40,-17 16,-17 16,-39 0,-6 -6,-19 Q 3097,522 2806,225 2516,-72 2150,-72 1916,-72 1727,54 1538,181 1459,397 1359,209 1182,68 1006,-72 806,-72 669,-72 523,-23 378,25 287,125 q -90,100 -90,253 0,150 104,273 105,124 262,124 106,0 178,-64 72,-64 72,-167 Q 813,409 723,309 634,209 500,184 Z"
       transform="scale(0.015625)" /><path
       id="m455b525f48"
       d="M 0,0 H 3.5"
       style="stroke:#000000;stroke-width:0.8" /><path
       id="Cmmi10-66"
       d="m 622,-1056 q 119,-91 287,-91 229,0 372,506 60,244 325,1607 l 294,1568 h -550 q -62,0 -62,85 25,140 81,140 h 572 l 75,416 q 37,194 68,333 32,139 68,257 36,119 107,266 110,210 296,346 186,136 401,136 141,0 274,-52 133,-52 217,-155 84,-103 84,-243 0,-163 -108,-284 -107,-120 -260,-120 -104,0 -177,64 -73,65 -73,168 0,140 95,245 95,105 236,120 -119,91 -294,91 -97,0 -183,-91 -86,-90 -111,-193 -40,-163 -178,-882 l -78,-422 h 659 q 63,0 63,-84 -3,-16 -13,-55 -9,-39 -26,-63 -17,-23 -42,-23 H 2356 L 2059,972 q -56,-341 -130,-693 -73,-351 -206,-721 -132,-371 -339,-621 -206,-250 -487,-250 -216,0 -386,124 -170,123 -170,326 0,163 104,284 105,120 264,120 107,0 178,-64 72,-65 72,-168 0,-137 -102,-251 -101,-114 -235,-114 z"
       transform="scale(0.015625)" /><path
       id="Cmmi10-69"
       d="m 500,459 q 0,119 50,250 l 519,1379 q 84,234 84,384 0,191 -140,191 -254,0 -418,-261 -164,-261 -242,-583 -12,-41 -53,-41 h -75 q -53,0 -53,60 v 18 q 103,382 315,677 213,295 538,295 228,0 386,-150 158,-150 158,-381 0,-119 -53,-250 L 997,672 Q 909,459 909,288 909,97 1056,97 q 250,0 417,267 168,267 236,577 13,37 50,37 h 79 q 25,0 40,-17 16,-17 16,-39 0,-6 -6,-19 Q 1800,541 1583,234 1366,-72 1044,-72 819,-72 659,83 500,238 500,459 Z m 722,3419 q 0,135 112,244 113,109 247,109 110,0 180,-67 70,-67 70,-170 0,-144 -114,-252 -114,-108 -251,-108 -103,0 -174,70 -70,71 -70,174 z"
       transform="scale(0.015625)" /><path
       id="Cmmi10-6e"
       d="m 494,109 q 0,38 6,57 l 478,1909 q 47,178 47,313 0,275 -187,275 -200,0 -297,-240 -97,-239 -188,-604 0,-19 -19,-30 -18,-11 -34,-11 h -75 q -22,0 -38,23 -15,24 -15,43 69,278 133,471 64,194 200,353 136,160 339,160 240,0 424,-152 185,-151 185,-385 191,250 447,393 256,144 544,144 228,0 393,-78 166,-78 258,-236 93,-158 93,-376 0,-263 -118,-635 -117,-372 -292,-831 -90,-209 -90,-384 0,-191 146,-191 250,0 417,268 168,269 237,576 12,37 53,37 h 75 q 25,0 42,-16 17,-15 17,-40 0,-6 -6,-19 -88,-362 -305,-669 -217,-306 -542,-306 -225,0 -385,155 -159,155 -159,376 0,119 50,250 81,210 186,500 105,291 172,556 67,266 67,469 0,179 -74,304 -73,125 -248,125 -234,0 -431,-104 -197,-103 -344,-273 -147,-170 -268,-405 L 953,141 Q 931,53 854,-9 778,-72 684,-72 q -78,0 -134,50 -56,50 -56,131 z"
       transform="scale(0.015625)" /><path
       id="Cmmi10-74"
       d="m 397,519 q 0,94 19,178 L 878,2534 H 206 q -65,0 -65,85 25,140 84,140 h 709 l 257,1044 q 25,85 100,144 75,59 168,59 82,0 136,-49 55,-48 55,-129 0,-19 -2,-30 -1,-10 -4,-23 L 1388,2759 h 659 q 66,0 66,-84 -4,-16 -13,-54 -9,-37 -25,-62 -16,-25 -47,-25 H 1331 L 872,684 Q 825,503 825,372 825,97 1013,97 q 281,0 498,264 217,264 333,580 25,37 50,37 h 78 q 25,0 40,-17 16,-17 16,-39 0,-13 -6,-19 Q 1881,516 1612,222 1344,-72 997,-72 744,-72 570,93 397,259 397,519 Z"
       transform="scale(0.015625)" /><path
       id="Cmmi10-71"
       d="m 941,-1159 q 22,140 84,140 231,0 364,38 133,37 174,181 L 1838,288 Q 1472,-72 1106,-72 703,-72 473,233 244,538 244,953 q 0,410 211,850 211,441 572,733 361,292 779,292 194,0 350,-116 157,-115 238,-306 37,75 207,248 171,174 240,174 72,0 72,-81 L 2016,-825 q -16,-94 -19,-109 0,-85 422,-85 31,0 48,-25 17,-25 17,-56 -21,-84 -36,-112 -14,-29 -73,-29 H 1006 q -65,0 -65,82 z M 1119,97 q 225,0 439,170 214,171 373,405 l 360,1441 q -38,225 -165,387 -126,163 -335,163 -216,0 -402,-177 Q 1203,2309 1075,2069 950,1813 836,1366 722,919 722,672 722,450 817,273 913,97 1119,97 Z"
       transform="scale(0.015625)" /><path
       id="Cmmi10-bf"
       d="m 997,97 q 0,44 9,69 l 672,2197 h -578 q -234,0 -438,-147 -203,-147 -337,-372 -12,-25 -37,-25 h -75 q -60,0 -60,62 0,13 13,38 209,356 448,598 239,242 539,242 h 1963 q 68,0 115,-47 47,-46 47,-115 0,-94 -67,-164 -67,-70 -164,-70 H 1888 L 1459,153 q -25,-103 -94,-170 -68,-67 -174,-67 -82,0 -138,52 -56,51 -56,129 z"
       transform="scale(0.015625)" /><path
       id="Cmr10-5f"
       d="m 538,3928 q 0,141 106,247 106,106 247,106 87,0 171,-47 85,-46 132,-131 47,-84 47,-175 0,-137 -104,-244 -103,-106 -246,-106 -141,0 -247,106 -106,107 -106,244 z"
       transform="scale(0.015625)" /><clipPath
       id="pccd511e1de"><rect
         x="22.8528"
         y="94.318054"
         width="155.17334"
         height="65.81189"
         id="rect107" /></clipPath><clipPath
       id="pa615988822"><rect
         x="22.8528"
         y="5.4720001"
         width="155.17334"
         height="65.81189"
         id="rect108" /></clipPath><clipPath
       id="p4a49e7819a"><rect
         x="203.11156"
         y="5.4720001"
         width="154.65794"
         height="154.65794"
         id="rect109" /></clipPath><clipPath
       id="pd2598d0b81"><rect
         x="22.8528"
         y="183.16411"
         width="155.17334"
         height="65.81189"
         id="rect110" /></clipPath><clipPath
       id="paab9f9b310"><rect
         x="202.85387"
         y="183.16411"
         width="155.17334"
         height="65.81189"
         id="rect111" /></clipPath></defs><g
     inkscape:label="Layer 1"
     inkscape:groupmode="layer"
     id="layer1"
     transform="translate(-39.340189,-105.20429)"><g
       id="figure_1"
       transform="matrix(0.35277778,0,0,0.35277778,33.80737,100.24)"><g
         id="axes_1"
         transform="translate(6,4.5)"><g
           id="matplotlib.axis_1"><g
             id="xtick_1"><g
               id="line2d_1"><defs
                 id="defs2"><path
                   id="path3"
                   d="M 0,0 V -3.5"
                   style="stroke:#000000;stroke-width:0.8" /></defs><g
                 id="g2"><use
                   xlink:href="#m473d0cfcb8"
                   x="28.562923"
                   y="160.12994"
                   style="stroke:#000000;stroke-width:0.8"
                   id="use2" /></g></g></g><g
             id="xtick_2"><g
               id="line2d_2"><g
                 id="g3"><use
                   xlink:href="#m473d0cfcb8"
                   x="64.501724"
                   y="160.12994"
                   style="stroke:#000000;stroke-width:0.8"
                   id="use3" /></g></g></g><g
             id="xtick_3"><g
               id="line2d_3"><g
                 id="g4"><use
                   xlink:href="#m473d0cfcb8"
                   x="100.44053"
                   y="160.12994"
                   style="stroke:#000000;stroke-width:0.8"
                   id="use4" /></g></g></g><g
             id="xtick_4"><g
               id="line2d_4"><g
                 id="g5"><use
                   xlink:href="#m473d0cfcb8"
                   x="136.37933"
                   y="160.12994"
                   style="stroke:#000000;stroke-width:0.8"
                   id="use5" /></g></g></g><g
             id="xtick_5"><g
               id="line2d_5"><g
                 id="g6"><use
                   xlink:href="#m473d0cfcb8"
                   x="172.31813"
                   y="160.12994"
                   style="stroke:#000000;stroke-width:0.8"
                   id="use6" /></g></g></g><g
             id="text_1"><!-- $e_x$ --><g
               transform="matrix(0.13,0,0,-0.13,94.394467,171.21713)"
               id="g8"><defs
                 id="defs6"><path
                   id="path4"
                   d="M 1288,-72 Q 981,-72 751,87 522,247 401,517 281,788 281,1088 q 0,456 230,857 230,402 623,642 394,241 844,241 275,0 480,-142 205,-142 205,-408 0,-369 -294,-549 -294,-179 -663,-221 -368,-42 -815,-42 H 872 Q 769,1084 769,813 769,528 900,312 1031,97 1300,97 q 381,0 732,175 352,175 574,484 19,19 50,19 32,0 64,-36 33,-36 33,-67 0,-25 -12,-38 Q 2506,306 2109,117 1713,-72 1288,-72 Z M 909,1631 q 372,0 688,34 316,35 572,174 256,139 256,433 0,119 -66,208 -65,89 -170,136 -105,47 -217,47 -272,0 -489,-147 -217,-147 -358,-383 -141,-236 -216,-502 z"
                   transform="scale(0.015625)" /><path
                   id="path5"
                   d="m 500,184 q 113,-87 319,-87 200,0 353,192 153,192 209,420 l 291,1135 q 69,309 69,422 0,159 -89,278 -89,119 -249,119 -203,0 -381,-127 -178,-127 -300,-322 -122,-195 -172,-395 -12,-41 -50,-41 h -78 q -50,0 -50,60 v 18 q 62,238 212,464 150,227 367,367 218,141 465,141 234,0 423,-125 189,-125 267,-340 110,196 280,330 170,135 373,135 138,0 281,-49 144,-48 235,-148 91,-100 91,-250 0,-162 -105,-280 -105,-117 -267,-117 -103,0 -172,66 -69,66 -69,166 0,134 92,235 93,102 221,121 -116,91 -319,91 -206,0 -358,-191 -151,-191 -214,-425 L 1894,916 q -69,-257 -69,-422 0,-163 92,-280 92,-117 246,-117 300,0 535,264 236,264 311,580 13,37 50,37 h 79 q 25,0 40,-17 16,-17 16,-39 0,-6 -6,-19 Q 3097,522 2806,225 2516,-72 2150,-72 1916,-72 1727,54 1538,181 1459,397 1359,209 1182,68 1006,-72 806,-72 669,-72 523,-23 378,25 287,125 q -90,100 -90,253 0,150 104,273 105,124 262,124 106,0 178,-64 72,-64 72,-167 Q 813,409 723,309 634,209 500,184 Z"
                   transform="scale(0.015625)" /></defs><use
                 xlink:href="#Cmmi10-65"
                 transform="translate(0,0.8125)"
                 id="use7" /><use
                 xlink:href="#Cmmi10-78"
                 transform="matrix(0.7,0,0,0.7,46.484375,-16.19375)"
                 id="use8" /></g></g></g><g
           id="matplotlib.axis_2"><g
             id="ytick_1"><g
               id="line2d_6"><defs
                 id="defs8"><path
                   id="path6"
                   d="M 0,0 H 3.5"
                   style="stroke:#000000;stroke-width:0.8" /></defs><g
                 id="g9"><use
                   xlink:href="#m455b525f48"
                   x="22.8528"
                   y="157.7283"
                   style="stroke:#000000;stroke-width:0.8"
                   id="use9" /></g></g></g><g
             id="ytick_2"><g
               id="line2d_7"><g
                 id="g10"><use
                   xlink:href="#m455b525f48"
                   x="22.8528"
                   y="127.224"
                   style="stroke:#000000;stroke-width:0.8"
                   id="use10" /></g></g></g><g
             id="ytick_3"><g
               id="line2d_8"><g
                 id="g11"><use
                   xlink:href="#m455b525f48"
                   x="22.8528"
                   y="96.719704"
                   style="stroke:#000000;stroke-width:0.8"
                   id="use11" /></g></g></g><g
             id="text_2"><!-- $f_{int}$ --><g
               transform="matrix(0,-0.13,-0.13,0,18.913581,136.779)"
               id="g15"><defs
                 id="defs11"><path
                   id="path7"
                   d="m 622,-1056 q 119,-91 287,-91 229,0 372,506 60,244 325,1607 l 294,1568 h -550 q -62,0 -62,85 25,140 81,140 h 572 l 75,416 q 37,194 68,333 32,139 68,257 36,119 107,266 110,210 296,346 186,136 401,136 141,0 274,-52 133,-52 217,-155 84,-103 84,-243 0,-163 -108,-284 -107,-120 -260,-120 -104,0 -177,64 -73,65 -73,168 0,140 95,245 95,105 236,120 -119,91 -294,91 -97,0 -183,-91 -86,-90 -111,-193 -40,-163 -178,-882 l -78,-422 h 659 q 63,0 63,-84 -3,-16 -13,-55 -9,-39 -26,-63 -17,-23 -42,-23 H 2356 L 2059,972 q -56,-341 -130,-693 -73,-351 -206,-721 -132,-371 -339,-621 -206,-250 -487,-250 -216,0 -386,124 -170,123 -170,326 0,163 104,284 105,120 264,120 107,0 178,-64 72,-65 72,-168 0,-137 -102,-251 -101,-114 -235,-114 z"
                   transform="scale(0.015625)" /><path
                   id="path8"
                   d="m 500,459 q 0,119 50,250 l 519,1379 q 84,234 84,384 0,191 -140,191 -254,0 -418,-261 -164,-261 -242,-583 -12,-41 -53,-41 h -75 q -53,0 -53,60 v 18 q 103,382 315,677 213,295 538,295 228,0 386,-150 158,-150 158,-381 0,-119 -53,-250 L 997,672 Q 909,459 909,288 909,97 1056,97 q 250,0 417,267 168,267 236,577 13,37 50,37 h 79 q 25,0 40,-17 16,-17 16,-39 0,-6 -6,-19 Q 1800,541 1583,234 1366,-72 1044,-72 819,-72 659,83 500,238 500,459 Z m 722,3419 q 0,135 112,244 113,109 247,109 110,0 180,-67 70,-67 70,-170 0,-144 -114,-252 -114,-108 -251,-108 -103,0 -174,70 -70,71 -70,174 z"
                   transform="scale(0.015625)" /><path
                   id="path9"
                   d="m 494,109 q 0,38 6,57 l 478,1909 q 47,178 47,313 0,275 -187,275 -200,0 -297,-240 -97,-239 -188,-604 0,-19 -19,-30 -18,-11 -34,-11 h -75 q -22,0 -38,23 -15,24 -15,43 69,278 133,471 64,194 200,353 136,160 339,160 240,0 424,-152 185,-151 185,-385 191,250 447,393 256,144 544,144 228,0 393,-78 166,-78 258,-236 93,-158 93,-376 0,-263 -118,-635 -117,-372 -292,-831 -90,-209 -90,-384 0,-191 146,-191 250,0 417,268 168,269 237,576 12,37 53,37 h 75 q 25,0 42,-16 17,-15 17,-40 0,-6 -6,-19 -88,-362 -305,-669 -217,-306 -542,-306 -225,0 -385,155 -159,155 -159,376 0,119 50,250 81,210 186,500 105,291 172,556 67,266 67,469 0,179 -74,304 -73,125 -248,125 -234,0 -431,-104 -197,-103 -344,-273 -147,-170 -268,-405 L 953,141 Q 931,53 854,-9 778,-72 684,-72 q -78,0 -134,50 -56,50 -56,131 z"
                   transform="scale(0.015625)" /><path
                   id="path10"
                   d="m 397,519 q 0,94 19,178 L 878,2534 H 206 q -65,0 -65,85 25,140 84,140 h 709 l 257,1044 q 25,85 100,144 75,59 168,59 82,0 136,-49 55,-48 55,-129 0,-19 -2,-30 -1,-10 -4,-23 L 1388,2759 h 659 q 66,0 66,-84 -4,-16 -13,-54 -9,-37 -25,-62 -16,-25 -47,-25 H 1331 L 872,684 Q 825,503 825,372 825,97 1013,97 q 281,0 498,264 217,264 333,580 25,37 50,37 h 78 q 25,0 40,-17 16,-17 16,-39 0,-13 -6,-19 Q 1881,516 1612,222 1344,-72 997,-72 744,-72 570,93 397,259 397,519 Z"
                   transform="scale(0.015625)" /></defs><use
                 xlink:href="#Cmmi10-66"
                 transform="translate(0,0.484375)"
                 id="use12" /><use
                 xlink:href="#Cmmi10-69"
                 transform="matrix(0.7,0,0,0.7,48.876953,-16.521875)"
                 id="use13" /><use
                 xlink:href="#Cmmi10-6e"
                 transform="matrix(0.7,0,0,0.7,72.973633,-16.521875)"
                 id="use14" /><use
                 xlink:href="#Cmmi10-74"
                 transform="matrix(0.7,0,0,0.7,114.98047,-16.521875)"
                 id="use15" /></g></g></g><g
           id="line2d_9"><path
             d="m 162.1996,101.40153 -21.92768,9.51397 -37.23656,15.93181 -37.71602,15.89533 -26.761617,11.06508 -8.309206,3.24805 -0.341313,0.0757 0.217494,-0.15037 1.916648,-0.93131 7.818841,-3.50626 20.169959,-8.77126 35.046958,-14.98793 39.908506,-16.83299 26.90764,-11.13627 8.69096,-3.40759 0.38827,-0.09143 -0.21405,0.148929 -1.90889,0.928386 -7.80415,3.501565 -19.97898,8.69127 -34.78796,14.88044 -39.780982,16.78246 -27.065215,11.20467 -9.062869,3.56205 -0.462798,0.11638 0.210651,-0.1475 1.902916,-0.92546 7.796904,-3.49685 20.145,-8.7606 1.046187,-0.45088 v 0"
             clip-path="url(#pccd511e1de)"
             style="fill:none;stroke:#3182bd;stroke-width:1.5;stroke-linecap:square"
             id="path15" /></g><g
           id="line2d_10"><path
             d="m 147.51364,101.40153 -1.78331,0.95205 -2.99994,1.31551 -6.10296,2.37692 -7.44829,2.96496 -4.38104,1.97983 -3.40802,1.77101 -2.91365,1.75853 -2.5722,1.81385 -2.37628,1.94686 -2.69955,2.51423 -5.44547,5.15497 -2.65849,2.15333 -2.903576,2.05948 -3.272681,2.04549 -3.937359,2.19614 -5.100242,2.581 -9.528991,4.51198 -6.485707,3.19056 -3.948178,2.18001 -2.86076,1.8236 -2.219516,1.67221 -1.834824,1.66058 -2.307819,2.44784 -1.328745,1.22741 -1.086245,0.70851 -1.121716,0.47227 -1.135181,0.23911 -0.847484,-0.0259 -0.415766,-0.20631 -0.07705,-0.25193 0.143006,-0.33766 0.504293,-0.52769 1.138964,-0.81723 2.227738,-1.28697 5.558166,-2.87627 6.007506,-3.21471 4.438587,-2.62615 4.260316,-2.77844 5.122765,-3.62362 9.938935,-7.08383 5.211084,-3.39605 5.7864,-3.49639 7.49492,-4.24844 15.56102,-8.75491 5.42846,-3.35763 5.2762,-3.53499 6.76565,-4.54153 2.69526,-1.514113 2.1457,-0.960165 1.24598,-0.348162 0.19057,0.07001 -0.004,0.0269 -0.19025,0.224585 -0.89123,0.622256 -2.9101,1.691877 -7.63629,4.436732 -5.96574,3.75824 -25.23664,16.25169 -13.430002,8.04589 -12.773085,7.74897 -11.046358,6.99015 -9.336828,5.83258 -4.923253,2.81317 -2.669319,1.30957 -0.05467,-0.003 0.114007,-0.11947 1.205863,-0.81287 19.822342,-12.84698 v 0"
             clip-path="url(#pccd511e1de)"
             style="fill:none;stroke:#e6550d;stroke-width:1.5;stroke-dasharray:5.55, 2.4;stroke-dashoffset:0"
             id="path16" /></g><g
           id="patch_3"><path
             d="M 22.8528,160.12995 V 94.318054"
             style="fill:none;stroke:#000000;stroke-width:0.8;stroke-linecap:square;stroke-linejoin:miter"
             id="path17" /></g><g
           id="patch_4"><path
             d="M 178.02613,160.12995 V 94.318054"
             style="fill:none;stroke:#000000;stroke-width:0.8;stroke-linecap:square;stroke-linejoin:miter"
             id="path18" /></g><g
           id="patch_5"><path
             d="M 22.8528,160.12995 H 178.02613"
             style="fill:none;stroke:#000000;stroke-width:0.8;stroke-linecap:square;stroke-linejoin:miter"
             id="path19" /></g><g
           id="patch_6"><path
             d="M 22.8528,94.318054 H 178.02613"
             style="fill:none;stroke:#000000;stroke-width:0.8;stroke-linecap:square;stroke-linejoin:miter"
             id="path20" /></g></g><g
         id="axes_2"
         transform="translate(6,9)"><g
           id="matplotlib.axis_3"><g
             id="xtick_6"><g
               id="line2d_11"><g
                 id="g21"><use
                   xlink:href="#m473d0cfcb8"
                   x="56.401451"
                   y="71.28389"
                   style="stroke:#000000;stroke-width:0.8"
                   id="use21" /></g></g></g><g
             id="xtick_7"><g
               id="line2d_12"><g
                 id="g22"><use
                   xlink:href="#m473d0cfcb8"
                   x="100.47203"
                   y="71.28389"
                   style="stroke:#000000;stroke-width:0.8"
                   id="use22" /></g></g></g><g
             id="xtick_8"><g
               id="line2d_13"><g
                 id="g23"><use
                   xlink:href="#m473d0cfcb8"
                   x="144.5426"
                   y="71.28389"
                   style="stroke:#000000;stroke-width:0.8"
                   id="use23" /></g></g></g><g
             id="text_3"><!-- $q$ --><g
               transform="matrix(0.13,0,0,-0.13,97.514467,82.371079)"
               id="g24"><defs
                 id="defs23"><path
                   id="path11"
                   d="m 941,-1159 q 22,140 84,140 231,0 364,38 133,37 174,181 L 1838,288 Q 1472,-72 1106,-72 703,-72 473,233 244,538 244,953 q 0,410 211,850 211,441 572,733 361,292 779,292 194,0 350,-116 157,-115 238,-306 37,75 207,248 171,174 240,174 72,0 72,-81 L 2016,-825 q -16,-94 -19,-109 0,-85 422,-85 31,0 48,-25 17,-25 17,-56 -21,-84 -36,-112 -14,-29 -73,-29 H 1006 q -65,0 -65,82 z M 1119,97 q 225,0 439,170 214,171 373,405 l 360,1441 q -38,225 -165,387 -126,163 -335,163 -216,0 -402,-177 Q 1203,2309 1075,2069 950,1813 836,1366 722,919 722,672 722,450 817,273 913,97 1119,97 Z"
                   transform="scale(0.015625)" /></defs><use
                 xlink:href="#Cmmi10-71"
                 transform="translate(0,0.8125)"
                 id="use24" /></g></g></g><g
           id="matplotlib.axis_4"><g
             id="ytick_4"><g
               id="line2d_14"><g
                 id="g25"><use
                   xlink:href="#m455b525f48"
                   x="22.8528"
                   y="64.629211"
                   style="stroke:#000000;stroke-width:0.8"
                   id="use25" /></g></g></g><g
             id="ytick_5"><g
               id="line2d_15"><g
                 id="g26"><use
                   xlink:href="#m455b525f48"
                   x="22.8528"
                   y="39.094189"
                   style="stroke:#000000;stroke-width:0.8"
                   id="use26" /></g></g></g><g
             id="ytick_6"><g
               id="line2d_16"><g
                 id="g27"><use
                   xlink:href="#m455b525f48"
                   x="22.8528"
                   y="13.559165"
                   style="stroke:#000000;stroke-width:0.8"
                   id="use27" /></g></g></g><g
             id="text_4"><!-- $\tau$ --><g
               transform="matrix(0,-0.13,-0.13,0,18.939988,41.237946)"
               id="g28"><defs
                 id="defs27"><path
                   id="path12"
                   d="m 997,97 q 0,44 9,69 l 672,2197 h -578 q -234,0 -438,-147 -203,-147 -337,-372 -12,-25 -37,-25 h -75 q -60,0 -60,62 0,13 13,38 209,356 448,598 239,242 539,242 h 1963 q 68,0 115,-47 47,-46 47,-115 0,-94 -67,-164 -67,-70 -164,-70 H 1888 L 1459,153 q -25,-103 -94,-170 -68,-67 -174,-67 -82,0 -138,52 -56,51 -56,129 z"
                   transform="scale(0.015625)" /></defs><use
                 xlink:href="#Cmmi10-bf"
                 transform="translate(0,0.890625)"
                 id="use28" /></g></g></g><g
           id="line2d_17"><path
             d="m 62.902212,62.75918 10.384248,0.584362 9.612511,0.314808 8.28209,0.05119 6.759985,-0.164731 5.661124,-0.344098 4.58439,-0.487296 3.59394,-0.59105 2.72577,-0.656229 1.99492,-0.686233 1.40175,-0.685717 1.03442,-0.745298 0.61937,-0.708337 0.34732,-0.747531 0.0905,-0.683179 -0.1276,-0.810489 -0.35862,-0.83843 -0.65778,-0.97183 -1.01538,-1.109064 -1.56124,-1.36198 -2.20729,-1.617554 -3.27984,-2.099839 -5.19024,-3.016667 -9.175772,-5.309119 -3.26003,-2.157381 -2.255416,-1.754352 -1.458523,-1.392722 -1.002219,-1.2431 -0.619201,-1.106284 -0.310772,-0.981639 -0.06999,-0.94553 0.15767,-0.911612 0.408811,-0.952201 0.690095,-0.988172 0.989734,-1.020912 1.468638,-1.181225 2.102249,-1.391707 3.495081,-2.011031 6.554665,-3.741951 2.48538,-1.689288 1.77994,-1.466225 1.28548,-1.341444 0.85628,-1.20134 0.53807,-1.131407 0.24351,-1.019124 -0.006,-0.885906 -0.21879,-0.707222 -0.31218,-0.353054 -0.24567,-0.00861 -0.17752,0.22321 -0.11983,0.561504 0.008,1.194617 0.36177,7.414448 -0.24833,2.311066 -0.45837,2.205532 -0.70574,2.287557 -0.99297,2.433424 -1.32905,2.653377 -1.86502,3.208284 -3.65759,5.745592 -2.886679,4.723032 -1.812386,3.381574 -1.38324,3.045091 -1.083662,2.926042 -0.838688,2.911904 -0.636082,3.017968 -0.483303,3.397114 -0.58293,6.124984 -0.0025,0.03469 0.261941,-1.542378 1.374373,-7.139323 1.996482,-9.262025 2.06191,-8.534415 2.188332,-8.118936 2.254312,-7.522156 2.16333,-6.468811 1.87256,-4.936483 1.42578,-3.18739 0.99514,-1.736916 0.66008,-0.762033 0.44658,-0.222877 0.32723,0.064391 0.29051,0.29265 0.29251,0.639973 0.26504,1.163819 0.16121,1.775127 -0.0271,2.250641 -0.25057,2.469432 -0.48666,2.629634 -0.73765,2.777428 -0.0476,0.155327 v 0"
             clip-path="url(#pa615988822)"
             style="fill:none;stroke:#6baed6;stroke-width:1.5;stroke-linecap:square"
             id="path28" /></g><g
           id="line2d_18"><path
             d="M 167.73141,65.986429 161.25443,63.147435 149.51627,58.262032 133.9701,52.037725 106.9666,41.288259 76.446627,28.651397 58.856604,21.66017 44.041463,16.003649 l -7.685067,-2.988711 -6.018523,-2.367021 -0.431318,-0.09873 0.178107,0.131789 1.566105,0.760925 5.725559,2.497596 11.923106,4.938504 81.029278,32.871086 37.64144,14.81994 3.0019,1.044643 -0.0166,-0.02501 -0.49993,-0.270077 -3.21159,-1.433289 L 157.07626,61.623496 117.71516,45.496564 83.523956,31.644017 44.325682,16.036641 31.011359,10.896145 l -0.926755,-0.274997 0.238766,0.150935 2.161951,0.982907 8.88066,3.750741 20.010201,8.259336 v 0"
             clip-path="url(#pa615988822)"
             style="fill:none;stroke:#fd8d3c;stroke-width:1.5;stroke-dasharray:5.55, 2.4;stroke-dashoffset:0"
             id="path29" /></g><g
           id="patch_8"><path
             d="M 22.8528,71.283892 V 5.472"
             style="fill:none;stroke:#000000;stroke-width:0.8;stroke-linecap:square;stroke-linejoin:miter"
             id="path30" /></g><g
           id="patch_9"><path
             d="M 178.02613,71.283892 V 5.472"
             style="fill:none;stroke:#000000;stroke-width:0.8;stroke-linecap:square;stroke-linejoin:miter"
             id="path31" /></g><g
           id="patch_10"><path
             d="M 22.8528,71.283892 H 178.02613"
             style="fill:none;stroke:#000000;stroke-width:0.8;stroke-linecap:square;stroke-linejoin:miter"
             id="path32" /></g><g
           id="patch_11"><path
             d="M 22.8528,5.472 H 178.02613"
             style="fill:none;stroke:#000000;stroke-width:0.8;stroke-linecap:square;stroke-linejoin:miter"
             id="path33" /></g></g><g
         id="patch_12" /><g
         id="pane3d_1"><g
           id="patch_13"><path
             d="M 212.28377,117.92849 278.31632,99.707066 V 27.33461 l -66.03255,18.221422"
             style="opacity:0.5;fill:#f2f2f2;stroke:#f2f2f2;stroke-linejoin:miter"
             id="path35" /></g></g><g
         id="pane3d_2"><g
           id="patch_14"><path
             d="m 278.31632,99.707066 74.46092,16.158904 V 43.493513 L 278.31632,27.33461"
             style="opacity:0.5;fill:#e6e6e6;stroke:#e6e6e6;stroke-linejoin:miter"
             id="path36" /></g></g><g
         id="pane3d_3"><g
           id="patch_15"><path
             d="m 212.28377,117.92849 74.46092,16.1589 66.03255,-18.22142 -74.46092,-16.158904"
             style="opacity:0.5;fill:#ececec;stroke:#ececec;stroke-linejoin:miter"
             id="path37" /></g></g><g
         id="axis3d_1"><g
           id="line2d_19"><path
             d="m 212.28377,117.92849 74.46092,16.1589"
             style="fill:none;stroke:#000000;stroke-width:0.8;stroke-linecap:square"
             id="path38" /></g><g
           id="text_5"
           transform="rotate(-6.2351254,37.271031,69.911462)"><!-- $e_x$ --><g
             transform="matrix(0.12704293,0.02756982,0.02756982,-0.12704293,222.35197,156.34846)"
             id="g39"><use
               xlink:href="#Cmmi10-65"
               transform="translate(0,0.8125)"
               id="use38" /><use
               xlink:href="#Cmmi10-78"
               transform="matrix(0.7,0,0,0.7,46.484375,-16.19375)"
               id="use39" /></g></g><g
           id="Line3DCollection_1"><path
             d="m 216.40343,118.8225 66.03254,-18.22142 V 28.228625"
             style="fill:none;stroke:#b0b0b0;stroke-width:0.8"
             id="path39" /><path
             d="m 232.95908,122.41527 66.03254,-18.22142 V 31.821396"
             style="fill:none;stroke:#b0b0b0;stroke-width:0.8"
             id="path40" /><path
             d="m 249.51472,126.00805 66.03255,-18.22143 V 35.414168"
             style="fill:none;stroke:#b0b0b0;stroke-width:0.8"
             id="path41" /><path
             d="M 266.07037,129.60082 332.10291,111.3794 V 39.00694"
             style="fill:none;stroke:#b0b0b0;stroke-width:0.8"
             id="path42" /><path
             d="m 282.62602,133.19359 66.03254,-18.22142 V 42.599711"
             style="fill:none;stroke:#b0b0b0;stroke-width:0.8"
             id="path43" /></g><g
           id="xtick_9"><g
             id="line2d_20"><path
               d="m 216.93169,118.67673 -1.58478,0.43732"
               style="fill:none;stroke:#000000;stroke-width:0.8;stroke-linecap:square"
               id="path44" /></g></g><g
           id="xtick_10"><g
             id="line2d_21"><path
               d="m 233.48734,122.2695 -1.58478,0.43732"
               style="fill:none;stroke:#000000;stroke-width:0.8;stroke-linecap:square"
               id="path45" /></g></g><g
           id="xtick_11"><g
             id="line2d_22"><path
               d="m 250.04298,125.86227 -1.58478,0.43732"
               style="fill:none;stroke:#000000;stroke-width:0.8;stroke-linecap:square"
               id="path46" /></g></g><g
           id="xtick_12"><g
             id="line2d_23"><path
               d="m 266.59863,129.45505 -1.58478,0.43731"
               style="fill:none;stroke:#000000;stroke-width:0.8;stroke-linecap:square"
               id="path47" /></g></g><g
           id="xtick_13"><g
             id="line2d_24"><path
               d="m 283.15428,133.04782 -1.58478,0.43731"
               style="fill:none;stroke:#000000;stroke-width:0.8;stroke-linecap:square"
               id="path48" /></g></g></g><g
         id="axis3d_2"><g
           id="line2d_25"><path
             d="m 352.77724,115.86597 -66.03255,18.22142"
             style="fill:none;stroke:#000000;stroke-width:0.8;stroke-linecap:square"
             id="path49" /></g><g
           id="text_6"
           transform="rotate(19.556453,393.36047,118.89036)"><!-- $\dot{e}_x$ --><g
             transform="matrix(0.12531634,-0.03458055,-0.03458055,-0.12531634,337.68454,157.60587)"
             id="g51"><defs
               id="defs49"><path
                 id="path13"
                 d="m 538,3928 q 0,141 106,247 106,106 247,106 87,0 171,-47 85,-46 132,-131 47,-84 47,-175 0,-137 -104,-244 -103,-106 -246,-106 -141,0 -247,106 -106,107 -106,244 z"
                 transform="scale(0.015625)" /></defs><use
               xlink:href="#Cmr10-5f"
               transform="translate(15.214844,1.109375)"
               id="use49" /><use
               xlink:href="#Cmmi10-65"
               transform="translate(0,0.328125)"
               id="use50" /><use
               xlink:href="#Cmmi10-78"
               transform="matrix(0.7,0,0,0.7,50.948516,-16.678125)"
               id="use51" /></g></g><g
           id="Line3DCollection_2"><path
             d="m 225.71612,41.849429 v 72.372461 l 74.46092,16.1589"
             style="fill:none;stroke:#b0b0b0;stroke-width:0.8"
             id="path51" /><path
             d="m 245.29382,36.447038 v 72.372452 l 74.46093,16.15891"
             style="fill:none;stroke:#b0b0b0;stroke-width:0.8"
             id="path52" /><path
             d="M 264.87153,31.044646 V 103.4171 l 74.46092,16.1589"
             style="fill:none;stroke:#b0b0b0;stroke-width:0.8"
             id="path53" /></g><g
           id="xtick_14"><g
             id="line2d_26"><path
               d="m 299.58135,130.25152 1.78707,0.38781"
               style="fill:none;stroke:#000000;stroke-width:0.8;stroke-linecap:square"
               id="path54" /></g></g><g
           id="xtick_15"><g
             id="line2d_27"><path
               d="m 319.15906,124.84913 1.78706,0.38781"
               style="fill:none;stroke:#000000;stroke-width:0.8;stroke-linecap:square"
               id="path55" /></g></g><g
           id="xtick_16"><g
             id="line2d_28"><path
               d="m 338.73676,119.44673 1.78707,0.38782"
               style="fill:none;stroke:#000000;stroke-width:0.8;stroke-linecap:square"
               id="path56" /></g></g></g><g
         id="axis3d_3"><g
           id="line2d_29"><path
             d="M 352.77724,115.86597 V 43.493513"
             style="fill:none;stroke:#000000;stroke-width:0.8;stroke-linecap:square"
             id="path57" /></g><g
           id="text_7"
           transform="translate(-35.458152,-6.5527136)"><!-- $f_{int}$ --><g
             transform="matrix(0,-0.13,-0.13,0,399.9419,88.594613)"
             id="g60"><use
               xlink:href="#Cmmi10-66"
               transform="translate(0,0.484375)"
               id="use57" /><use
               xlink:href="#Cmmi10-69"
               transform="matrix(0.7,0,0,0.7,48.876953,-16.521875)"
               id="use58" /><use
               xlink:href="#Cmmi10-6e"
               transform="matrix(0.7,0,0,0.7,72.973633,-16.521875)"
               id="use59" /><use
               xlink:href="#Cmmi10-74"
               transform="matrix(0.7,0,0,0.7,114.98047,-16.521875)"
               id="use60" /></g></g><g
           id="Line3DCollection_3"><path
             d="M 352.77724,108.0187 278.31632,91.8598 212.28377,110.08122"
             style="fill:none;stroke:#b0b0b0;stroke-width:0.8"
             id="path60" /><path
             d="M 352.77724,93.849224 278.31632,77.69032 212.28377,95.911743"
             style="fill:none;stroke:#b0b0b0;stroke-width:0.8"
             id="path61" /><path
             d="M 352.77724,79.679744 278.31632,63.520841 212.28377,81.742263"
             style="fill:none;stroke:#b0b0b0;stroke-width:0.8"
             id="path62" /><path
             d="M 352.77724,65.510265 278.31632,49.351361 212.28377,67.572784"
             style="fill:none;stroke:#b0b0b0;stroke-width:0.8"
             id="path63" /><path
             d="M 352.77724,51.340785 278.31632,35.181882 212.28377,53.403304"
             style="fill:none;stroke:#b0b0b0;stroke-width:0.8"
             id="path64" /></g><g
           id="xtick_17"><g
             id="line2d_30"><path
               d="m 352.18155,107.88943 1.78706,0.38782"
               style="fill:none;stroke:#000000;stroke-width:0.8;stroke-linecap:square"
               id="path65" /></g></g><g
           id="xtick_18"><g
             id="line2d_31"><path
               d="m 352.18155,93.719952 1.78706,0.387814"
               style="fill:none;stroke:#000000;stroke-width:0.8;stroke-linecap:square"
               id="path66" /></g></g><g
           id="xtick_19"><g
             id="line2d_32"><path
               d="m 352.18155,79.550473 1.78706,0.387814"
               style="fill:none;stroke:#000000;stroke-width:0.8;stroke-linecap:square"
               id="path67" /></g></g><g
           id="xtick_20"><g
             id="line2d_33"><path
               d="m 352.18155,65.380993 1.78706,0.387814"
               style="fill:none;stroke:#000000;stroke-width:0.8;stroke-linecap:square"
               id="path68" /></g></g><g
           id="xtick_21"><g
             id="line2d_34"><path
               d="m 352.18155,51.211514 1.78706,0.387814"
               style="fill:none;stroke:#000000;stroke-width:0.8;stroke-linecap:square"
               id="path69" /></g></g></g><g
         id="axes_3"><g
           id="line2d_35"><path
             d="m 296.85958,60.795038 -5.6374,3.010979 -5.9978,3.458154 -6.30212,3.890143 -6.50341,4.278079 -6.29909,4.412128 -5.82541,4.351766 -5.1358,4.107513 -4.39559,3.790037 -3.63835,3.422356 -2.83201,2.956547 -2.10496,2.50005 -1.50842,2.12551 -0.93079,1.67083 -0.50359,1.32335 -0.17536,1.05999 0.0825,0.79714 0.27232,0.60706 0.45934,0.48603 0.6782,0.37635 0.92026,0.24713 1.23684,0.0984 1.66532,-0.0988 2.17315,-0.36348 2.75738,-0.69936 3.4093,-1.1074 4.00782,-1.54142 4.7212,-2.06127 5.31328,-2.56856 5.85128,-3.081555 6.17489,-3.504976 6.3804,-3.876483 6.4505,-4.180674 6.24707,-4.315033 5.78978,-4.265732 5.23108,-4.124841 4.50239,-3.823225 3.75827,-3.469997 3.02601,-3.08529 2.2761,-2.622872 1.61712,-2.182332 1.05765,-1.776683 0.59987,-1.414237 0.24116,-1.099343 -0.0306,-0.864818 -0.24363,-0.66129 -0.42525,-0.509053 -0.61136,-0.386049 -0.87607,-0.278889 -1.1902,-0.133019 -1.61467,0.06003 -2.04744,0.306614 -2.60677,0.62116 -3.23507,1.007084 -3.91924,1.462783 -4.52642,1.931498 -5.23658,2.484646 -5.66926,2.937557 -6.14084,3.43385 -6.37564,3.820752 -6.47539,4.142184 -6.3004,4.295716 -5.8684,4.265831 -5.33228,4.14337 -4.71505,3.940002 -3.958,3.591023 -3.20614,3.204573 -2.4295,2.734418 -1.74144,2.2826 -1.15251,1.86356 -0.66642,1.48685 -0.28165,1.15778 0.007,0.87824 0.22232,0.67396 0.40512,0.52138 0.59159,0.39854 0.85507,0.29262 1.16829,0.14793 1.53169,-0.0383 2.01393,-0.28107 2.57312,-0.59375 3.20254,-0.97824 3.88911,-1.43312 4.50042,-1.90238 5.09524,-2.39713 5.64747,-2.903397 6.1275,-3.403604 6.37245,-3.796327 4.93702,-3.116482 v 0"
             clip-path="url(#p4a49e7819a)"
             style="fill:none;stroke:#3182bd;stroke-width:1.5;stroke-linecap:square"
             id="path70" /></g><g
           id="line2d_36"><path
             d="m 294.75543,58.040678 -14.82076,6.483474 -3.17357,1.65862 -1.84231,1.201066 -1.01269,0.906875 -0.51614,0.730781 -0.20886,0.641926 0.021,0.675182 0.27342,0.775016 0.72537,1.239506 0.85628,1.576573 0.33595,1.106948 0.0796,0.990592 -0.14031,1.077561 -0.39168,1.165546 -0.66233,1.250908 -1.02321,1.435498 -1.44307,1.626455 -2.02971,1.929822 -2.674,2.225148 -3.77287,2.833486 -12.00947,8.790215 -1.4294,1.410981 -0.77148,1.037093 -0.37219,0.85864 -0.0608,0.65779 0.16163,0.59238 0.40081,0.57692 0.70963,0.59595 1.18467,0.67461 2.34919,1.02701 2.52914,1.1766 1.09782,0.74421 0.61056,0.67353 0.26659,0.61785 0.0179,0.61759 -0.20979,0.63241 -0.47695,0.70449 -0.8141,0.78872 -0.48948,0.39177 0.42768,-0.19888 5.65719,-2.66753 10.31846,-4.87298 4.18132,-2.22163 2.93835,-1.79996 2.15939,-1.576631 1.60591,-1.435751 1.29663,-1.446141 1.20256,-1.687862 1.52698,-2.589362 2.04064,-3.367126 1.77923,-2.47886 2.1105,-2.550466 2.75764,-2.967481 4.18297,-4.138225 5.53877,-5.513638 2.16087,-2.46922 1.42233,-1.955925 0.8951,-1.586393 0.57883,-1.474731 0.29602,-1.373312 0.0634,-1.34463 -0.16041,-1.542688 -0.84783,-5.719625 -0.0333,-3.022066 -0.31007,-0.226867 -0.53755,-0.07975 -0.95758,0.12017 -1.68,0.46498 -2.724,1.00373 -3.59795,1.569725 -3.5535,1.789964 -3.11904,1.817676 -2.68099,1.814231 -2.49792,1.959983 -2.5103,2.257314 -3.21624,3.221433 -13.39995,13.731561 -4.92881,5.157725 -2.95975,3.414523 -2.15715,2.822875 -1.65026,2.517846 -1.30433,2.387066 -1.06164,2.401981 -0.90059,2.593477 -0.80093,3.00071 -0.56663,2.93168 -0.14643,1.82269 0.12285,1.1037 0.28497,0.70153 0.43135,0.49208 0.60904,0.34248 0.83445,0.19568 1.13434,0.0254 1.53308,-0.19719 1.97573,-0.48247 2.42365,-0.82524 2.67554,-1.14517 2.8469,-1.46448 2.87773,-1.73609 2.96472,-2.05585 3.14786,-2.45732 3.71239,-3.191959 4.62569,-4.286318 1.4916,-1.436922 v 0"
             clip-path="url(#p4a49e7819a)"
             style="fill:none;stroke:#e6550d;stroke-width:1.5;stroke-dasharray:5.55, 2.4;stroke-dashoffset:0"
             id="path71" /></g></g><g
         id="axes_4"
         transform="translate(6)"><g
           id="matplotlib.axis_5"><g
             id="xtick_22"><g
               id="line2d_37"><g
                 id="g72"><use
                   xlink:href="#m473d0cfcb8"
                   x="28.562923"
                   y="248.976"
                   style="stroke:#000000;stroke-width:0.8"
                   id="use72" /></g></g></g><g
             id="xtick_23"><g
               id="line2d_38"><g
                 id="g73"><use
                   xlink:href="#m473d0cfcb8"
                   x="64.501724"
                   y="248.976"
                   style="stroke:#000000;stroke-width:0.8"
                   id="use73" /></g></g></g><g
             id="xtick_24"><g
               id="line2d_39"><g
                 id="g74"><use
                   xlink:href="#m473d0cfcb8"
                   x="100.44053"
                   y="248.976"
                   style="stroke:#000000;stroke-width:0.8"
                   id="use74" /></g></g></g><g
             id="xtick_25"><g
               id="line2d_40"><g
                 id="g75"><use
                   xlink:href="#m473d0cfcb8"
                   x="136.37933"
                   y="248.976"
                   style="stroke:#000000;stroke-width:0.8"
                   id="use75" /></g></g></g><g
             id="xtick_26"><g
               id="line2d_41"><g
                 id="g76"><use
                   xlink:href="#m473d0cfcb8"
                   x="172.31813"
                   y="248.976"
                   style="stroke:#000000;stroke-width:0.8"
                   id="use76" /></g></g></g><g
             id="text_8"><!-- $e_x$ --><g
               transform="matrix(0.13,0,0,-0.13,94.394467,260.06319)"
               id="g78"><use
                 xlink:href="#Cmmi10-65"
                 transform="translate(0,0.8125)"
                 id="use77" /><use
                 xlink:href="#Cmmi10-78"
                 transform="matrix(0.7,0,0,0.7,46.484375,-16.19375)"
                 id="use78" /></g></g></g><g
           id="matplotlib.axis_6"><g
             id="ytick_7"><g
               id="line2d_42"><g
                 id="g79"><use
                   xlink:href="#m455b525f48"
                   x="22.8528"
                   y="236.40181"
                   style="stroke:#000000;stroke-width:0.8"
                   id="use79" /></g></g></g><g
             id="ytick_8"><g
               id="line2d_43"><g
                 id="g80"><use
                   xlink:href="#m455b525f48"
                   x="22.8528"
                   y="216.07651"
                   style="stroke:#000000;stroke-width:0.8"
                   id="use80" /></g></g></g><g
             id="ytick_9"><g
               id="line2d_44"><g
                 id="g81"><use
                   xlink:href="#m455b525f48"
                   x="22.8528"
                   y="195.75121"
                   style="stroke:#000000;stroke-width:0.8"
                   id="use81" /></g></g></g><g
             id="text_9"><!-- $\dot{e}_x$ --><g
               transform="matrix(0,-0.13,-0.13,0,18.939988,222.44005)"
               id="g84"><use
                 xlink:href="#Cmr10-5f"
                 transform="translate(15.214844,1.109375)"
                 id="use82" /><use
                 xlink:href="#Cmmi10-65"
                 transform="translate(0,0.328125)"
                 id="use83" /><use
                 xlink:href="#Cmmi10-78"
                 transform="matrix(0.7,0,0,0.7,50.948516,-16.678125)"
                 id="use84" /></g></g></g><g
           id="line2d_45"><path
             d="m 162.1996,230.73077 -2.40112,1.6959 -2.65904,1.6053 -3.04193,1.58057 -3.4432,1.54291 -4.01887,1.5485 -4.46545,1.47001 -4.73454,1.32353 -5.16208,1.20887 -5.38441,1.03184 -5.57027,0.84487 -5.92452,0.66903 -6.0391,0.45238 -6.1084,0.23057 -6.131506,0.005 -6.108008,-0.22144 -5.83141,-0.4287 -5.724601,-0.63748 -5.577068,-0.84193 -5.389899,-1.04007 -4.984332,-1.183 -4.741881,-1.35111 -4.307983,-1.45093 -4.028009,-1.58842 -3.586251,-1.64763 -3.284631,-1.75604 -2.852374,-1.77868 -2.443107,-1.78148 -2.060046,-1.76678 -1.780266,-1.82061 -1.431231,-1.78105 -1.114306,-1.72911 -0.867505,-1.75504 -0.592663,-1.68566 -0.365142,-1.69806 -0.136415,-1.70496 0.09277,-1.70628 0.321682,-1.70198 0.549556,-1.69201 0.775651,-1.6764 1.057949,-1.74158 1.301848,-1.71159 1.624276,-1.75794 1.881499,-1.71074 2.238795,-1.73406 2.622945,-1.74117 2.899242,-1.65972 3.304897,-1.63665 3.727971,-1.59263 3.998456,-1.46952 4.421146,-1.3891 4.846279,-1.2836 5.074808,-1.11352 5.468584,-0.96739 5.640059,-0.76985 5.771786,-0.56681 6.073377,-0.36863 6.125097,-0.14348 6.130491,0.0829 6.0895,0.30865 6.00245,0.53211 5.67029,0.72203 5.50683,0.92144 5.30456,1.11428 4.88855,1.24971 4.63365,1.41343 4.19277,1.50715 3.90275,1.6412 3.45705,1.69522 3.0278,1.72654 2.61943,1.73737 2.33056,1.81003 1.94868,1.79141 1.59624,1.75753 1.33208,1.7969 1.01818,1.74141 0.7701,1.7644 0.49925,1.69167 0.2712,1.70117 0.0423,1.70512 -0.18679,1.70354 -0.41527,1.6964 -0.64238,1.68373 -0.86741,1.66558 -1.15306,1.72767 -1.39511,1.69533 -1.71987,1.7386 -2.07459,1.76839 -2.34484,1.70658 -2.72927,1.70999 -3.13685,1.69486 -3.41588,1.59484 -3.8358,1.54603 -4.26678,1.47393 -4.52416,1.32853 -4.94107,1.21712 -5.15652,1.0437 -5.53894,0.89189 -5.69523,0.6918 -5.81139,0.48684 -6.09769,0.28456 -6.132235,0.0589 -6.120426,-0.16709 -6.062347,-0.39184 -5.958444,-0.6136 -5.612133,-0.79851 -5.433729,-0.99526 -5.21703,-1.18502 -4.791058,-1.3146 -4.523958,-1.4747 -4.076256,-1.56241 -3.636859,-1.62512 -3.339035,-1.73631 -2.907818,-1.76248 -2.498855,-1.76845 -2.115451,-1.75645 -1.837402,-1.8122 -1.487111,-1.77464 -1.168505,-1.72431 -0.922442,-1.75136 -0.645348,-1.68313 -0.418132,-1.69639 -0.189543,-1.70414 0.03967,-1.70631 0.268772,-1.7029 0.496997,-1.6939 0.723602,-1.67934 1.003888,-1.74594 1.248717,-1.71732 1.569691,-1.76555 1.828359,-1.72004 2.184902,-1.74566 2.568799,-1.75527 2.847599,-1.67576 3.253938,-1.65527 3.678347,-1.61385 3.952624,-1.49235 4.37777,-1.41427 1.046187,-0.30553 v 0"
             clip-path="url(#pd2598d0b81)"
             style="fill:none;stroke:#3182bd;stroke-width:1.5;stroke-linecap:square"
             id="path84" /></g><g
           id="line2d_46"><path
             d="m 147.51364,225.89167 -0.99934,2.41945 -1.10125,2.10505 -1.26639,1.95088 -1.41627,1.75711 -1.4023,1.40109 -1.49578,1.19345 -1.57266,0.97119 -1.63222,0.73985 -1.6741,0.50508 -1.69845,0.2725 -1.70578,0.0476 -1.69699,-0.16446 -1.8389,-0.40471 -1.95304,-0.67527 -2.03212,-0.95585 -2.21369,-1.31057 -2.44885,-1.72302 -6.12874,-4.48462 -1.31718,-0.60092 -1.09119,-0.27017 -1.07762,-0.0319 -1.0847,0.20784 -1.11197,0.43966 -1.35702,0.78295 -1.87963,1.36915 -7.470506,5.72023 -2.460001,1.46706 -2.271001,1.0922 -2.188136,0.80303 -2.069104,0.52881 -2.09749,0.30331 -2.10623,0.0646 -1.921167,-0.15527 -1.896112,-0.35878 -2.022383,-0.61499 -1.956657,-0.83246 -2.026631,-1.12079 -1.912567,-1.31318 -1.915989,-1.58094 -1.99197,-1.94583 -1.97814,-2.25852 -2.042708,-2.68419 -2.82665,-4.15154 -1.501544,-2.00846 -0.829953,-0.7589 -0.649043,-0.30781 -0.627529,-0.059 -0.88008,0.17027 -1.438779,0.28067 -0.70791,-0.10341 -0.572677,-0.30118 -0.526818,-0.53625 -0.454866,-0.7921 -0.373919,-1.12633 -0.229821,-1.40432 -0.05393,-1.75097 0.168948,-1.96198 0.412376,-2.09604 0.623045,-2.02515 0.851048,-1.99338 1.00302,-1.78323 1.107556,-1.54166 1.255212,-1.37856 1.385764,-1.18813 1.496932,-0.98039 1.587429,-0.76596 1.656996,-0.55542 1.821432,-0.37607 2.088632,-0.1905 2.45585,0.0197 3.374582,0.27539 5.147436,0.40936 2.617464,-0.0311 2.418608,-0.24479 2.598479,-0.48814 3.203264,-0.84274 10.638148,-2.99984 3.18862,-0.56275 2.95312,-0.29298 2.8293,-0.0547 2.67375,0.16195 2.8037,0.39876 2.74608,0.61969 2.8054,0.8651 2.95625,1.15682 3.03125,1.42738 3.59563,1.95353 9.62149,5.40314 4.05184,1.78905 1.90883,0.9835 1.22508,0.86625 0.97386,0.96225 0.73597,1.0358 0.56907,1.19209 0.37906,1.33617 0.16895,1.45475 -0.0564,1.53726 -0.29081,1.57669 -0.49538,1.4926 -0.70476,1.44852 -0.90474,1.37047 -1.09083,1.26522 -1.33037,1.19797 -1.49526,1.05119 -1.80815,0.98986 -2.13565,0.90282 -2.6675,0.87428 -4.08018,1.07294 -11.0148,2.81981 -8.45106,2.17924 -4.55049,0.93163 -3.96499,0.58582 -3.73403,0.3262 -3.60286,0.0914 -3.582353,-0.13233 -3.670313,-0.36399 -3.711629,-0.5921 -3.972672,-0.86048 -4.391931,-1.18246 -5.219735,-1.64739 -5.485472,-1.96199 -3.897553,-1.61237 -2.719146,-1.35985 -2.052082,-1.27289 -1.615341,-1.25875 -1.288202,-1.27266 -1.082059,-1.38381 -0.827841,-1.41965 -0.613208,-1.49778 -0.389346,-1.55401 -0.159612,-1.58411 0.07223,-1.58632 0.302384,-1.56142 0.527323,-1.51259 0.744122,-1.44491 0.950657,-1.36465 1.202245,-1.33462 1.467328,-1.29334 1.818451,-1.29629 2.206851,-1.29309 2.725651,-1.33515 3.415751,-1.41743 3.984557,-1.41139 1.720854,-0.54409 v 0"
             clip-path="url(#pd2598d0b81)"
             style="fill:none;stroke:#e6550d;stroke-width:1.5;stroke-dasharray:5.55, 2.4;stroke-dashoffset:0"
             id="path85" /></g><g
           id="patch_17"><path
             d="M 22.8528,248.976 V 183.16411"
             style="fill:none;stroke:#000000;stroke-width:0.8;stroke-linecap:square;stroke-linejoin:miter"
             id="path86" /></g><g
           id="patch_18"><path
             d="M 178.02613,248.976 V 183.16411"
             style="fill:none;stroke:#000000;stroke-width:0.8;stroke-linecap:square;stroke-linejoin:miter"
             id="path87" /></g><g
           id="patch_19"><path
             d="M 22.8528,248.976 H 178.02613"
             style="fill:none;stroke:#000000;stroke-width:0.8;stroke-linecap:square;stroke-linejoin:miter"
             id="path88" /></g><g
           id="patch_20"><path
             d="M 22.8528,183.16411 H 178.02613"
             style="fill:none;stroke:#000000;stroke-width:0.8;stroke-linecap:square;stroke-linejoin:miter"
             id="path89" /></g></g><g
         id="axes_5"><g
           id="matplotlib.axis_7"><g
             id="xtick_27"><g
               id="line2d_47"><g
                 id="g90"><use
                   xlink:href="#m473d0cfcb8"
                   x="232.50168"
                   y="248.976"
                   style="stroke:#000000;stroke-width:0.8"
                   id="use90" /></g></g></g><g
             id="xtick_28"><g
               id="line2d_48"><g
                 id="g91"><use
                   xlink:href="#m473d0cfcb8"
                   x="280.42529"
                   y="248.976"
                   style="stroke:#000000;stroke-width:0.8"
                   id="use91" /></g></g></g><g
             id="xtick_29"><g
               id="line2d_49"><g
                 id="g92"><use
                   xlink:href="#m473d0cfcb8"
                   x="328.34894"
                   y="248.976"
                   style="stroke:#000000;stroke-width:0.8"
                   id="use92" /></g></g></g><g
             id="text_10"><!-- $\dot{e}_x$ --><g
               transform="matrix(0.13,0,0,-0.13,274.07053,261.41498)"
               id="g95"><use
                 xlink:href="#Cmr10-5f"
                 transform="translate(15.214844,1.109375)"
                 id="use93" /><use
                 xlink:href="#Cmmi10-65"
                 transform="translate(0,0.328125)"
                 id="use94" /><use
                 xlink:href="#Cmmi10-78"
                 transform="matrix(0.7,0,0,0.7,50.948516,-16.678125)"
                 id="use95" /></g></g></g><g
           id="matplotlib.axis_8"><g
             id="ytick_10"><g
               id="line2d_50"><g
                 id="g96"><use
                   xlink:href="#m455b525f48"
                   x="202.85387"
                   y="246.57436"
                   style="stroke:#000000;stroke-width:0.8"
                   id="use96" /></g></g></g><g
             id="ytick_11"><g
               id="line2d_51"><g
                 id="g97"><use
                   xlink:href="#m455b525f48"
                   x="202.85387"
                   y="216.07005"
                   style="stroke:#000000;stroke-width:0.8"
                   id="use97" /></g></g></g><g
             id="ytick_12"><g
               id="line2d_52"><g
                 id="g98"><use
                   xlink:href="#m455b525f48"
                   x="202.85387"
                   y="185.56575"
                   style="stroke:#000000;stroke-width:0.8"
                   id="use98" /></g></g></g><g
             id="text_11"><!-- $f_{int}$ --><g
               transform="matrix(0,-0.13,-0.13,0,198.91465,225.62505)"
               id="g102"><use
                 xlink:href="#Cmmi10-66"
                 transform="translate(0,0.484375)"
                 id="use99" /><use
                 xlink:href="#Cmmi10-69"
                 transform="matrix(0.7,0,0,0.7,48.876953,-16.521875)"
                 id="use100" /><use
                 xlink:href="#Cmmi10-6e"
                 transform="matrix(0.7,0,0,0.7,72.973633,-16.521875)"
                 id="use101" /><use
                 xlink:href="#Cmmi10-74"
                 transform="matrix(0.7,0,0,0.7,114.98047,-16.521875)"
                 id="use102" /></g></g></g><g
           id="line2d_53"><path
             d="m 245.87303,190.24758 -4.70281,1.25529 -4.40382,1.40468 -4.1029,1.54553 -3.66156,1.61018 -3.38104,1.72266 -3.09279,1.82546 -2.68585,1.83963 -2.29986,1.83419 -2.0176,1.89504 -1.65363,1.86126 -1.31704,1.81346 -1.01007,1.75381 -0.76655,1.77348 -0.4989,1.69719 -0.27269,1.70366 -0.0445,1.70459 0.18487,1.69999 0.41465,1.68986 0.64387,1.67424 0.87161,1.65319 1.1607,1.71156 1.40603,1.67612 1.73448,1.71518 2.09257,1.74042 2.36449,1.67519 2.75032,1.67369 3.15801,1.65335 3.43501,1.54981 3.85265,1.49565 4.28047,1.41803 4.53393,1.26938 4.94761,1.15262 5.16036,0.97644 5.54129,0.8197 5.69728,0.61758 5.8142,0.4111 6.10213,0.20503 6.13837,-0.0211 6.12773,-0.24708 6.06974,-0.47119 5.96447,-0.69174 5.61524,-0.87226 5.433,-1.06683 5.21172,-1.25389 4.78139,-1.378 4.34823,-1.47516 4.07066,-1.61148 3.62987,-1.66895 3.33109,-1.77655 2.89984,-1.79745 2.49127,-1.79837 2.10849,-1.78159 1.83086,-1.83378 1.48132,-1.79177 1.16337,-1.73739 0.91764,-1.76121 0.64105,-1.68946 0.41402,-1.69975 0.18555,-1.70453 -0.0436,-1.70378 -0.27263,-1.69747 -0.50084,-1.68568 -0.72742,-1.66838 -1.00787,-1.73158 -1.25264,-1.70018 -1.5737,-1.74473 -1.8322,-1.69645 -2.1887,-1.71814 -2.57248,-1.72358 -2.85095,-1.64123 -3.25709,-1.61634 -3.68126,-1.57028 -3.95522,-1.44584 -4.38023,-1.36296 -4.80849,-1.25474 -5.04217,-1.08298 -5.44048,-0.93407 -5.61804,-0.73513 -5.75604,-0.53099 -6.06377,-0.33077 -6.1223,-0.1053 -6.13441,0.12099 -6.10002,0.34635 -6.01934,0.56909 -5.69242,0.7568 -5.53444,0.95511 -5.33739,1.14667 -4.92488,1.2796 -4.67433,1.44183 -4.23581,1.53294 -3.94933,1.66528 -3.50495,1.71663 -3.07645,1.74533 -2.77788,1.83155 -2.36869,1.82735 -1.98641,1.80582 -1.63331,1.76923 -1.37003,1.80655 -1.05508,1.74865 -0.8076,1.7697 -0.53535,1.69491 -0.30768,1.70265 -0.079,1.70487 0.14988,1.70154 0.37827,1.6927 0.60541,1.67834 0.83059,1.65854 1.11456,1.71852 1.35702,1.68443 1.68047,1.72532 2.03413,1.75255 2.30542,1.68881 2.68939,1.68946 3.09695,1.6714 3.378,1.56939 3.79883,1.51756 4.23139,1.44232 4.49226,1.29508 4.91208,1.18061 5.13217,1.00559 5.51897,0.85094 5.681,0.64963 5.80311,0.44374 6.09547,0.23921 6.13636,0.0132 6.13055,-0.21291 6.07792,-0.43741 5.97879,-0.65861 5.63561,-0.84112 5.46034,-1.03676 5.24625,-1.22508 4.82138,-1.35161 4.55623,-1.50983 4.10913,-1.59422 3.67022,-1.6536 3.37418,-1.76251 2.47356,-1.48179 v 0"
             clip-path="url(#paab9f9b310)"
             style="fill:none;stroke:#3182bd;stroke-width:1.5;stroke-linecap:square"
             id="path102" /></g><g
           id="line2d_54"><path
             d="m 257.28282,190.24758 -11.1027,1.15332 -7.59259,1.00403 -5.20562,0.90525 -3.2869,0.77422 -2.22528,0.74437 -1.24622,0.64138 -0.60074,0.52648 -0.24311,0.47016 0.0117,0.47881 0.25517,0.48724 0.57155,0.5669 1.09732,0.72322 1.8025,0.88842 3.04155,1.21752 7.37826,2.6188 4.48961,1.73254 2.68851,1.26439 1.69709,1.02567 1.04856,0.86329 0.63207,0.78294 0.30133,0.70021 0.0502,0.70382 -0.20192,0.70702 -0.45066,0.70981 -0.79458,0.80135 -1.2194,0.89322 -1.88579,1.07469 -2.69041,1.25593 -4.01898,1.61475 -13.47681,5.23702 -2.35032,1.21776 -1.53542,1.03269 -0.89564,0.85173 -0.485,0.759 -0.16522,0.6682 0.0647,0.57935 0.31431,0.65571 0.56838,0.64851 0.93573,0.72049 1.39151,0.78865 2.12252,0.92891 3.02561,1.05809 4.31145,1.24517 5.958,1.47355 11.09887,2.46723 8.93059,2.07632 4.17431,1.18203 2.40097,0.8866 1.36293,0.72182 0.65034,0.57928 0.21327,0.45739 -0.0382,0.4152 -0.27238,0.45217 -0.70662,1.01005 0.29345,0.14068 0.87729,0.11566 2.22066,0.0328 4.98103,-0.18094 8.28364,-0.53235 9.29385,-0.81532 7.76984,-0.89342 6.12671,-0.92035 4.42317,-0.87234 3.30376,-0.86426 2.34033,-0.82909 1.57583,-0.77088 1.07897,-0.75253 0.68765,-0.72501 0.41926,-0.7532 0.18508,-0.78041 -0.0173,-0.87498 -0.25055,-1.11714 -0.81073,-2.28158 -0.48732,-1.70399 -0.15336,-1.27865 0.0767,-1.22591 0.29526,-1.16568 0.52382,-1.18432 0.81089,-1.28723 1.20203,-1.47855 1.81052,-1.84979 6.32221,-6.17132 1.02257,-1.43216 0.62192,-1.2479 0.29997,-1.06399 0.0667,-1.05731 -0.15276,-0.96219 -0.40335,-1.04072 -0.64733,-1.03009 -0.9653,-1.10238 -1.32355,-1.16956 -1.8287,-1.31167 -2.52198,-1.51901 -3.5418,-1.85159 -6.10939,-2.89503 -6.54393,-3.16842 -3.5531,-1.97288 -6.91545,-4.01707 -1.79833,-0.58897 -2.15702,-0.46344 -2.7129,-0.34808 -3.50137,-0.21832 -4.36346,-0.0472 -5.17271,0.16775 -5.38909,0.3927 -5.10264,0.58985 -4.4107,0.72942 -3.64583,0.82469 -2.91783,0.87992 -2.39432,0.94692 -2.03674,1.04759 -1.73195,1.14413 -1.63458,1.35847 -1.7767,1.79331 -13.96887,15.33286 -1.24382,1.86929 -0.82384,1.61148 -0.53845,1.5253 -0.27503,1.43492 -0.041,1.4309 0.19389,1.4236 0.42159,1.41302 0.68115,1.48609 0.95578,1.55219 1.37169,1.77723 1.82622,1.97814 2.44194,2.30082 3.27572,2.76744 3.73802,2.87312 3.12715,2.14482 2.68961,1.58709 2.57893,1.26583 2.5908,1.02969 2.84345,0.89097 3.1252,0.74764 3.55838,0.62219 3.9985,0.4739 4.57064,0.30964 4.73181,0.0994 4.92853,-0.11945 4.65046,-0.3292 4.43298,-0.53699 3.99797,-0.71107 3.56278,-0.85968 3.16156,-0.98358 3.0381,-1.18013 2.82338,-1.33334 2.85201,-1.59792 2.79714,-1.82034 2.84563,-2.11651 2.60604,-2.19924 v 0"
             clip-path="url(#paab9f9b310)"
             style="fill:none;stroke:#e6550d;stroke-width:1.5;stroke-dasharray:5.55, 2.4;stroke-dashoffset:0"
             id="path103" /></g><g
           id="patch_22"><path
             d="M 202.85387,248.976 V 183.16411"
             style="fill:none;stroke:#000000;stroke-width:0.8;stroke-linecap:square;stroke-linejoin:miter"
             id="path104" /></g><g
           id="patch_23"><path
             d="M 358.0272,248.976 V 183.16411"
             style="fill:none;stroke:#000000;stroke-width:0.8;stroke-linecap:square;stroke-linejoin:miter"
             id="path105" /></g><g
           id="patch_24"><path
             d="M 202.85387,248.976 H 358.0272"
             style="fill:none;stroke:#000000;stroke-width:0.8;stroke-linecap:square;stroke-linejoin:miter"
             id="path106" /></g><g
           id="patch_25"><path
             d="M 202.85387,183.16411 H 358.0272"
             style="fill:none;stroke:#000000;stroke-width:0.8;stroke-linecap:square;stroke-linejoin:miter"
             id="path107" /></g></g></g></g></svg>
